<?xml version="1.0" standalone="no"?>
<!DOCTYPE svg PUBLIC "-//W3C//DTD SVG 20010904//EN"
 "http://www.w3.org/TR/2001/REC-SVG-20010904/DTD/svg10.dtd">
<svg version="1.0" xmlns="http://www.w3.org/2000/svg"
 width="416.000000pt" height="416.000000pt" viewBox="0 0 416.000000 416.000000"
 preserveAspectRatio="xMidYMid meet">

<g transform="translate(0.000000,416.000000) scale(0.100000,-0.100000)"
fill="#000000" stroke="none">
<path d="M3066 3417 c-3 -12 -24 -36 -47 -52 -23 -17 -50 -38 -61 -48 -19 -18
-19 -18 1 -51 12 -18 21 -47 21 -65 0 -19 26 -80 66 -157 113 -216 115 -241
44 -457 -27 -84 -63 -205 -79 -269 -77 -302 -180 -450 -413 -591 -112 -68
-185 -98 -312 -132 -191 -49 -298 -54 -526 -26 -85 11 -199 25 -254 30 -54 6
-142 22 -195 35 -53 13 -121 27 -151 31 -30 4 -91 13 -134 22 -67 13 -98 14
-195 4 -84 -8 -138 -8 -196 -1 -187 25 -175 25 -175 1 0 -14 -6 -21 -19 -21
-10 0 -21 -9 -24 -20 -3 -11 -17 -24 -31 -30 -17 -6 -26 -17 -26 -32 0 -12
-10 -32 -21 -44 -21 -23 -21 -24 -4 -60 10 -21 60 -82 112 -137 52 -55 101
-110 110 -123 24 -37 209 -182 274 -215 87 -43 355 -135 467 -159 54 -12 131
-29 172 -40 41 -10 102 -22 135 -25 33 -4 103 -13 155 -21 121 -18 197 -17
335 1 299 39 639 138 845 246 112 58 392 272 485 370 192 202 307 431 360 718
20 112 19 185 -6 332 -36 211 -57 247 -217 378 -123 100 -180 157 -252 251
-78 103 -100 146 -100 199 0 39 -6 50 -61 112 -34 38 -65 69 -69 69 -4 0 -10
-10 -14 -23z m45 -29 c9 -17 9 -23 0 -26 -6 -2 -8 -9 -5 -14 4 -7 2 -8 -4 -4
-7 4 -10 19 -7 34 5 24 4 24 -4 6 -5 -12 -22 -25 -37 -28 -22 -6 -25 -9 -13
-17 7 -5 19 -9 24 -9 6 0 3 5 -5 10 -17 11 -10 13 14 4 9 -3 16 -10 16 -14 0
-15 -31 -20 -53 -9 -20 9 -21 9 -4 -4 17 -14 15 -15 -22 -14 l-40 2 32 25 c18
13 43 37 57 51 31 33 37 34 51 7z m49 -63 c20 -24 21 -26 3 -12 -28 24 -40 4
-12 -22 12 -11 27 -17 35 -14 8 3 14 -1 14 -11 0 -20 -14 -21 -30 -1 -9 11
-17 12 -32 4 -11 -6 -26 -8 -33 -5 -8 3 -15 0 -18 -7 -2 -7 -9 -3 -15 10 -11
19 -9 24 10 34 18 10 24 8 35 -7 7 -10 13 -13 13 -7 0 7 -4 14 -10 18 -6 3 -5
15 2 30 6 14 12 24 12 23 1 -2 12 -16 26 -33z m-106 -55 c11 -11 -1 -43 -14
-35 -5 3 -10 1 -10 -6 0 -7 -2 -10 -5 -7 -9 8 6 38 16 32 5 -3 9 0 9 5 0 6 -7
11 -15 11 -8 0 -15 -5 -15 -12 0 -6 -7 -3 -15 8 -14 18 -14 17 -5 -9 14 -40
12 -47 -6 -14 -8 15 -12 32 -8 38 7 11 53 4 68 -11z m150 -85 c22 -50 159
-227 222 -285 32 -31 95 -83 139 -117 82 -63 120 -104 148 -159 25 -49 57
-219 64 -339 16 -297 -139 -668 -381 -911 -72 -72 -318 -261 -420 -323 -285
-172 -945 -321 -1204 -271 -28 5 -89 14 -135 20 -90 11 -349 67 -457 99 -123
36 -275 93 -342 128 -89 47 -241 173 -315 264 -34 41 -84 96 -112 123 -47 46
-56 66 -28 66 7 0 6 -4 -3 -10 -8 -5 -10 -10 -4 -10 11 0 74 64 74 75 0 3 -9
5 -21 5 -11 0 -17 -4 -14 -10 3 -5 -2 -10 -12 -10 -15 0 -16 -2 -3 -10 13 -8
13 -10 0 -14 -27 -10 -55 0 -52 19 4 18 42 65 42 50 0 -5 -7 -17 -17 -27 -9
-10 -14 -21 -10 -24 3 -3 13 6 22 19 13 20 14 30 5 46 -7 14 -7 21 -1 21 6 0
32 21 58 46 46 44 50 45 88 37 22 -4 141 -8 265 -8 124 0 230 -3 236 -7 6 -4
51 -12 100 -18 49 -6 123 -19 164 -30 114 -29 174 -39 305 -50 66 -6 147 -15
180 -22 89 -16 296 -14 400 5 102 18 256 67 329 104 288 145 434 331 512 648
14 55 48 170 76 255 39 118 52 169 52 215 0 82 -7 130 -22 147 -6 8 -8 18 -4
22 4 4 -2 14 -12 22 -14 10 -16 14 -5 14 10 1 9 4 -4 11 -15 9 -37 47 -39 69
0 3 -11 17 -23 32 -22 25 -52 96 -43 102 16 12 91 46 102 46 8 0 15 -16 19
-38 4 -34 31 -105 123 -323 41 -97 49 -189 30 -348 -9 -77 -26 -172 -37 -213
-44 -157 -127 -310 -230 -422 -79 -87 -253 -242 -337 -300 -70 -49 -84 -73
-25 -42 86 44 363 298 442 405 62 83 142 249 170 351 30 109 54 321 47 407 -7
77 -34 170 -71 243 -63 125 -103 254 -90 287 6 16 8 15 26 -7 11 -14 26 -38
33 -55z"/>
<path d="M3080 3282 c0 -5 7 -9 15 -9 8 0 15 4 15 9 0 4 -7 8 -15 8 -8 0 -15
-4 -15 -8z"/>
<path d="M3101 3192 c-1 -34 57 -187 67 -178 2 3 -5 28 -17 55 -12 28 -28 74
-35 103 -13 47 -15 49 -15 20z"/>
<path d="M3041 3175 c0 -21 28 -78 29 -59 0 7 -7 27 -15 45 -10 24 -14 28 -14
14z"/>
<path d="M3071 3180 c0 -8 8 -33 18 -55 11 -22 19 -33 19 -25 1 20 -36 99 -37
80z"/>
<path d="M3161 3175 c0 -22 98 -218 98 -197 1 7 -19 52 -43 100 -24 48 -46 94
-49 102 -4 10 -6 9 -6 -5z"/>
<path d="M3180 3183 c0 -15 80 -136 86 -130 3 2 -13 33 -36 68 -46 71 -50 76
-50 62z"/>
<path d="M3022 3149 c6 -16 12 -28 15 -26 7 7 -8 57 -18 57 -4 0 -3 -14 3 -31z"/>
<path d="M3384 2776 c-18 -8 -35 -19 -38 -25 -9 -15 7 -14 22 1 6 6 40 17 74
24 62 12 62 12 18 13 -25 0 -59 -6 -76 -13z"/>
<path d="M3180 2763 c0 -5 14 -8 30 -8 17 0 30 3 30 8 0 4 -13 7 -30 7 -16 0
-30 -3 -30 -7z"/>
<path d="M3408 2753 c-10 -2 -18 -8 -18 -13 0 -8 57 6 69 16 6 5 -29 3 -51 -3z"/>
<path d="M3612 2645 c13 -19 24 -30 26 -25 4 11 -28 60 -39 60 -5 0 1 -16 13
-35z"/>
<path d="M3650 2651 c11 -16 27 -45 35 -63 9 -22 14 -27 15 -14 0 24 -47 106
-61 106 -6 0 -1 -13 11 -29z"/>
<path d="M3173 2436 c-11 -57 -36 -140 -56 -185 -19 -44 -31 -81 -27 -81 10 0
54 101 79 182 19 64 38 188 29 188 -2 0 -14 -47 -25 -104z"/>
<path d="M3721 2495 c0 -11 4 -29 9 -40 l9 -20 0 20 c0 11 -4 29 -9 40 l-9 20
0 -20z"/>
<path d="M3126 2410 c-5 -19 -19 -61 -31 -92 -13 -32 -20 -58 -15 -58 12 0 63
145 58 166 -3 13 -7 8 -12 -16z"/>
<path d="M3217 2423 c-4 -3 -7 -13 -7 -22 0 -9 -16 -54 -35 -101 -19 -46 -32
-86 -30 -88 6 -7 41 69 65 141 20 63 23 86 7 70z"/>
<path d="M3685 2145 c-54 -222 -75 -282 -135 -384 -50 -87 -87 -136 -218 -286
-100 -115 -213 -225 -233 -225 -5 0 -9 -5 -9 -10 0 -37 125 77 265 240 167
194 211 260 265 389 33 81 84 275 77 294 -2 6 -8 -1 -12 -18z"/>
<path d="M3621 2120 c-45 -177 -121 -361 -184 -443 -40 -51 -47 -68 -20 -46
32 26 92 130 136 237 46 108 92 264 84 286 -2 6 -9 -9 -16 -34z"/>
<path d="M2675 1680 c-70 -54 -217 -125 -321 -155 -87 -25 -110 -35 -83 -35
37 0 173 46 255 86 95 46 204 118 204 135 0 12 2 13 -55 -31z"/>
<path d="M476 1655 c-25 -23 -37 -53 -16 -40 6 3 10 2 10 -4 0 -5 -6 -12 -12
-14 -9 -4 -8 -6 2 -6 22 -1 46 21 54 49 l7 25 -19 -24 c-13 -16 -21 -20 -26
-12 -4 6 -3 11 1 11 5 0 14 9 21 20 16 26 11 25 -22 -5z"/>
<path d="M599 1639 c16 -6 28 -6 35 1 7 7 -1 10 -24 9 -33 0 -34 -1 -11 -10z"/>
<path d="M420 1595 c-20 -24 -5 -45 32 -44 l33 1 -33 9 c-28 8 -32 12 -21 25
6 8 10 17 7 19 -3 3 -11 -1 -18 -10z"/>
<path d="M496 1581 c-4 -5 29 -20 76 -35 46 -14 234 -75 418 -136 201 -67 358
-113 395 -117 83 -8 62 8 -38 28 -46 9 -134 35 -197 57 -63 22 -229 77 -368
122 -140 45 -259 83 -267 86 -7 3 -16 1 -19 -5z"/>
<path d="M2420 1502 c-19 -8 -69 -26 -110 -38 -41 -13 -65 -23 -53 -23 24 -1
169 43 193 58 26 17 6 19 -30 3z"/>
<path d="M2379 1414 c-199 -83 -364 -115 -661 -130 -76 -4 -138 -11 -138 -15
0 -21 357 2 502 31 155 32 418 127 418 151 0 13 -4 12 -121 -37z"/>
<path d="M461 1390 c24 -22 48 -40 54 -40 5 0 -10 18 -34 40 -23 22 -47 40
-53 40 -6 0 9 -18 33 -40z"/>
<path d="M470 1426 c0 -2 7 -9 15 -16 9 -7 15 -8 15 -2 0 5 -7 12 -15 16 -8 3
-15 4 -15 2z"/>
<path d="M564 1345 c10 -8 54 -33 98 -55 44 -23 77 -44 75 -47 -3 -2 -37 12
-76 31 -39 20 -71 33 -71 28 0 -13 136 -75 149 -68 6 4 20 2 31 -4 11 -6 20
-7 20 -3 0 5 -52 37 -115 71 -111 60 -150 77 -111 47z"/>
<path d="M869 1306 c25 -30 399 -167 453 -166 13 1 -31 18 -97 39 -157 50
-279 96 -322 121 -40 24 -50 25 -34 6z"/>
<path d="M650 1235 c36 -19 72 -34 80 -34 8 0 -14 15 -50 34 -36 19 -72 34
-80 34 -8 0 14 -15 50 -34z"/>
<path d="M1097 1249 c23 -11 97 -34 165 -53 167 -45 178 -48 178 -39 0 5 -51
21 -112 37 -62 16 -144 39 -183 52 -83 28 -106 30 -48 3z"/>
<path d="M1651 1091 c34 -22 381 -42 393 -22 3 4 -74 11 -172 14 -97 4 -190 9
-207 12 -23 5 -26 4 -14 -4z"/>
<path d="M1708 1050 c31 -13 302 -26 302 -14 0 5 -46 10 -103 11 -56 2 -129 5
-162 8 -45 4 -54 3 -37 -5z"/>
<path d="M2060 1028 c-52 -5 -157 -7 -233 -5 -91 2 -132 0 -121 -6 22 -13 451
-3 484 11 l25 11 -30 -1 c-16 0 -73 -5 -125 -10z"/>
<path d="M2665 990 c-105 -49 -416 -127 -610 -155 l-100 -14 90 4 c103 6 223
29 410 81 144 40 255 81 255 95 0 5 -1 9 -2 8 -2 0 -21 -9 -43 -19z"/>
</g>
</svg>
