<?xml version="1.0" standalone="no"?>
<!DOCTYPE svg PUBLIC "-//W3C//DTD SVG 20010904//EN"
 "http://www.w3.org/TR/2001/REC-SVG-20010904/DTD/svg10.dtd">
<svg version="1.0" xmlns="http://www.w3.org/2000/svg"
 width="1170.000000pt" height="780.000000pt" viewBox="0 0 1170.000000 780.000000"
 preserveAspectRatio="xMidYMid meet">

<g transform="translate(0.000000,780.000000) scale(0.100000,-0.100000)"
fill="#000000" stroke="none">
<path d="M0 3900 l0 -3900 2926 0 c2600 0 2925 2 2914 15 -10 13 -9 15 9 15
12 0 21 -6 21 -15 0 -25 28 -17 42 13 14 28 38 36 46 15 2 -7 -4 -13 -13 -13
-9 0 -15 -6 -13 -12 3 -8 28 -14 65 -16 54 -3 61 -1 66 18 3 11 11 20 17 20 7
0 10 -8 7 -20 -5 -18 3 -19 279 -20 l284 0 0 29 c0 35 15 48 35 31 9 -8 13
-21 9 -36 l-6 -24 632 0 c418 0 629 3 625 10 -3 6 -24 10 -45 10 -21 0 -42 5
-45 10 -3 6 -21 10 -38 10 -47 0 -58 11 -62 66 -2 28 -9 50 -17 53 -7 2 -26
17 -41 33 l-29 28 2 -52 c2 -29 2 -60 1 -68 -2 -22 -39 -22 -53 0 -9 13 -17
16 -33 10 -21 -8 -94 4 -127 21 -10 5 -30 9 -46 9 -15 0 -32 4 -37 9 -6 5 -28
11 -50 15 -94 13 -116 19 -129 37 -12 18 -14 18 -29 1 -11 -12 -31 -17 -74
-17 -53 0 -59 2 -71 27 -10 22 -22 28 -60 34 -26 4 -58 11 -71 16 -22 8 -23 9
-6 34 10 16 14 35 11 49 -3 13 -2 27 4 30 5 3 10 15 10 26 0 12 7 19 20 19 17
0 20 -6 18 -27 -3 -25 0 -28 32 -29 19 -1 54 -5 78 -9 33 -6 46 -4 55 7 7 8
20 18 30 22 24 8 47 -46 47 -111 0 -36 3 -44 12 -35 7 7 24 12 39 12 23 0 28
5 31 28 3 26 5 27 68 28 36 0 71 -4 78 -10 8 -5 29 -9 48 -8 23 2 36 -2 40
-13 7 -17 109 -22 119 -5 3 6 13 10 21 10 9 0 12 -5 8 -11 -4 -8 0 -9 15 -4
17 5 21 2 21 -17 1 -20 2 -21 11 -5 15 26 65 23 73 -6 4 -19 12 -23 43 -24 21
0 63 -6 93 -14 30 -7 93 -13 140 -13 84 -1 85 -1 90 -28 5 -27 6 -27 33 -14
15 8 27 11 27 5 0 -5 6 -9 13 -9 16 0 57 -42 57 -58 0 -7 5 -12 11 -12 6 0 9
9 6 20 -3 12 0 20 8 20 16 0 26 -25 19 -45 -4 -8 -3 -26 0 -40 l6 -25 1690 0
1690 0 0 3389 0 3388 -47 6 c-26 3 -58 0 -72 -5 -69 -27 -237 -47 -421 -50
-49 -1 -117 14 -127 28 -10 14 -16 13 -50 -14 -46 -37 -129 -54 -252 -54 -47
0 -103 -5 -125 -13 -23 -7 -48 -13 -56 -13 -8 0 -42 0 -75 0 -33 0 -76 -1 -95
-1 -19 -1 -52 4 -72 10 -28 9 -41 9 -51 0 -10 -7 -41 -10 -91 -6 -71 4 -79 3
-102 -19 -23 -20 -34 -22 -99 -20 -40 2 -89 -2 -107 -7 -18 -6 -87 -12 -153
-13 -131 -3 -186 11 -224 60 -11 14 -22 19 -27 14 -15 -15 -32 3 -39 44 -7 36
-6 39 13 34 22 -6 32 7 39 52 2 14 8 29 12 33 5 5 66 12 137 17 71 6 158 14
194 20 36 6 77 8 92 5 14 -4 29 -1 33 4 8 14 48 14 80 -1 24 -11 29 -8 61 25
42 43 81 53 168 42 77 -10 83 -9 186 5 47 6 124 13 173 15 48 2 93 7 99 12 23
13 101 12 130 -3 15 -8 48 -13 75 -12 26 1 60 -1 75 -6 24 -7 28 -5 42 27 17
42 23 44 151 52 55 3 142 13 193 22 73 13 102 15 134 6 46 -12 80 0 71 24 -4
11 7 13 61 7 l66 -7 0 352 0 351 -2595 0 c-1723 0 -2595 -3 -2595 -10 0 -5 -7
-10 -15 -10 -8 0 -15 4 -15 9 0 10 -415 15 -430 6 -5 -3 -3 -18 3 -34 13 -34
-3 -61 -34 -61 -16 0 -19 8 -20 53 l-1 52 -12 -35 c-8 -23 -20 -36 -34 -38
-17 -3 -22 3 -28 32 -7 41 -34 50 -34 11 0 -14 5 -25 10 -25 6 0 10 -7 10 -16
0 -9 -7 -14 -17 -12 -13 2 -19 14 -21 41 l-3 37 -53 0 c-28 0 -57 -5 -64 -12
-15 -15 -16 -58 -2 -58 6 0 10 -7 10 -15 0 -8 -7 -15 -15 -15 -10 0 -16 16
-21 50 -5 40 -10 50 -26 50 -10 0 -17 -4 -14 -9 4 -5 1 -11 -6 -13 -8 -3 -7
-11 5 -28 18 -26 8 -60 -18 -60 -18 0 -19 12 -2 29 10 11 10 14 0 18 -17 6
-17 50 0 56 6 3 -1265 6 -2825 6 l-2838 1 0 -3900z m3760 3870 c-7 -4 -9 -16
-5 -29 5 -15 2 -21 -9 -21 -11 0 -16 9 -16 28 0 34 7 43 27 35 11 -4 11 -8 3
-13z m1865 -21 c4 -18 3 -35 -4 -42 -8 -8 -11 -2 -11 21 0 43 -16 40 -28 -5
l-10 -38 -1 32 c-1 43 8 63 29 63 12 0 21 -10 25 -31z m-72 9 c7 -19 -4 -77
-16 -85 -13 -8 -37 25 -36 51 0 20 1 19 10 -2 5 -13 13 -20 19 -17 13 8 13 45
0 45 -5 0 -10 5 -10 10 0 14 27 12 33 -2z m-340 -88 c3 -11 1 -20 -4 -20 -5 0
-9 9 -9 20 0 11 2 20 4 20 2 0 6 -9 9 -20z m257 5 c0 -8 -4 -15 -9 -15 -5 0
-11 7 -15 15 -3 9 0 15 9 15 8 0 15 -7 15 -15z m588 -146 c-3 -72 -4 -74 -29
-77 -22 -3 -28 2 -34 25 l-8 28 -6 -30 c-8 -39 -45 -47 -56 -13 -7 22 -7 22
-12 3 -3 -11 -8 -24 -13 -28 -7 -8 -76 -18 -122 -18 -10 0 -20 -4 -23 -10 -13
-19 -34 -8 -44 24 -8 24 -8 42 0 66 10 29 15 32 40 27 16 -3 29 -2 29 3 0 14
54 20 62 8 5 -7 8 0 8 15 0 33 16 45 23 18 3 -11 12 -20 20 -20 9 0 17 -10 20
-22 3 -22 4 -22 15 5 14 33 52 38 52 7 0 -11 5 -20 10 -20 6 0 10 9 10 20 0
10 9 24 20 30 11 6 20 20 20 32 0 15 3 19 10 12 6 -6 10 -43 8 -85z m52 26 c0
-14 -4 -25 -10 -25 -5 0 -10 11 -10 25 0 14 5 25 10 25 6 0 10 -11 10 -25z
m-650 -51 c0 -8 -4 -12 -10 -9 -5 3 -10 10 -10 16 0 5 5 9 10 9 6 0 10 -7 10
-16z m145 -34 c-4 -23 -2 -41 4 -45 16 -9 14 -25 -3 -25 -21 0 -38 95 -20 113
15 15 25 -8 19 -43z m505 6 c0 -31 -14 -55 -25 -44 -8 7 7 78 16 78 5 0 9 -15
9 -34z m-556 -2 c4 -9 1 -22 -4 -30 -6 -7 -10 -21 -8 -30 4 -26 -29 -30 -37
-4 -10 33 4 80 25 80 10 0 21 -7 24 -16z m-94 2 c0 -3 -4 -8 -10 -11 -5 -3
-10 -1 -10 4 0 6 5 11 10 11 6 0 10 -2 10 -4z m3451 -15 c22 -18 24 -29 29
-138 3 -65 9 -125 13 -133 5 -11 -3 -27 -23 -50 -26 -29 -29 -36 -16 -45 12
-10 12 -13 -5 -23 -28 -18 -56 -15 -79 8 -11 11 -24 20 -29 20 -19 0 -41 43
-30 56 6 7 8 18 4 23 -3 6 -2 19 4 29 13 25 -4 54 -19 32 -5 -8 -10 -29 -10
-47 0 -20 -6 -36 -17 -42 -24 -12 -157 -13 -207 -1 -28 6 -47 5 -65 -4 -52
-26 -208 -37 -221 -16 -8 12 -16 11 -53 -7 -35 -17 -55 -20 -98 -15 -30 3 -63
5 -74 4 -34 -2 -89 -10 -117 -17 -14 -4 -50 -2 -79 4 -46 10 -54 9 -71 -6 -14
-13 -46 -20 -107 -26 -154 -14 -175 -16 -231 -26 -81 -14 -100 1 -100 79 0 55
2 60 25 66 14 3 32 4 40 1 8 -4 40 -2 72 4 32 5 74 12 93 14 44 5 168 24 198
30 12 3 22 12 22 21 0 10 6 14 18 10 39 -12 154 -6 269 12 67 11 126 23 131
26 5 3 45 8 88 11 44 3 86 9 94 12 24 8 121 17 177 16 33 -1 52 3 50 10 -1 6
12 15 28 20 44 14 60 24 58 36 -8 34 52 -11 76 -56 l18 -37 8 59 c11 94 76
135 136 86z m-3437 -73 c-9 -14 -23 2 -17 18 4 12 8 13 14 3 4 -7 5 -17 3 -21z
m-3668 -49 c4 -6 20 -8 39 -5 45 9 66 -15 35 -41 -11 -10 -26 -18 -32 -18 -6
0 -16 -9 -22 -20 -6 -11 -12 -22 -14 -24 -1 -3 -8 4 -16 14 -9 13 -26 19 -52
19 -50 0 -77 22 -39 32 14 3 31 14 38 24 11 15 31 27 49 29 4 1 10 -4 14 -10z
m6019 -59 c4 -6 -5 -10 -19 -10 -14 0 -26 5 -26 10 0 6 9 10 19 10 11 0 23 -4
26 -10z m-3302 -100 c31 -15 37 -53 11 -68 -9 -5 -15 -12 -15 -15 3 -22 -1
-27 -20 -24 -18 3 -21 12 -24 58 -3 54 1 72 13 66 4 -2 19 -9 35 -17z m2387
-36 c7 -18 7 -31 -1 -40 -15 -18 -2 -54 20 -54 29 0 44 -25 36 -60 -5 -23 -12
-30 -30 -30 -13 0 -29 8 -35 18 -10 16 -10 16 -20 0 -15 -25 -39 -22 -52 7 -8
18 -8 28 1 39 8 10 10 27 6 46 -5 22 -1 39 15 65 26 42 47 45 60 9z m-109 -15
c-6 -45 -5 -134 4 -158 7 -22 6 -24 -16 -16 -13 4 -49 10 -79 14 -47 5 -55 9
-55 26 0 11 -4 21 -10 22 -5 1 -9 -12 -7 -28 2 -28 0 -30 -25 -28 -16 1 -36
-2 -47 -6 -38 -16 -66 26 -52 80 9 37 37 40 64 8 l24 -28 -6 27 c-6 25 -3 27
37 33 97 15 109 18 114 34 9 25 35 52 47 48 6 -2 9 -15 7 -28z m-1586 -19 c3
-5 1 -10 -4 -10 -6 0 -11 5 -11 10 0 6 2 10 4 10 3 0 8 -4 11 -10z m1290 -19
c3 -6 -2 -14 -12 -19 -14 -8 -15 -13 -5 -25 9 -10 10 -17 2 -22 -5 -3 -10 -24
-10 -46 0 -37 -12 -51 -25 -29 -12 19 -8 119 4 134 15 18 37 21 46 7z m716
-42 c-16 -17 -23 -19 -40 -10 -15 9 -21 9 -21 1 0 -15 -42 -8 -47 7 -3 8 14
13 54 16 32 2 62 4 66 5 4 1 -1 -7 -12 -19z m-803 -17 c2 -7 -4 -12 -14 -12
-16 0 -15 -2 4 -20 12 -12 22 -27 22 -34 0 -19 -26 -38 -46 -34 -26 5 -29 28
-5 28 24 0 28 15 6 24 -18 7 -20 52 -2 59 17 7 30 3 35 -11z m2791 9 c19 -12
22 -38 6 -51 -9 -8 -15 -8 -20 0 -3 5 -1 10 6 10 8 0 6 6 -4 18 -27 29 -19 43
12 23z m-2861 -59 c2 -32 -1 -52 -7 -52 -6 0 -11 18 -11 40 0 22 -4 40 -10 40
-5 0 -10 -20 -10 -45 0 -25 -4 -45 -10 -45 -5 0 -10 24 -10 54 0 44 4 55 18
59 31 8 37 1 40 -51z m2948 41 c7 -10 14 -24 14 -30 0 -19 -27 -15 -34 5 -3 9
-9 23 -12 30 -9 18 17 14 32 -5z m-3189 -9 c12 -11 13 -18 4 -27 -18 -18 -14
-67 6 -67 13 0 14 -3 6 -11 -7 -7 -18 -9 -26 -6 -22 8 -31 127 -10 127 2 0 11
-7 20 -16z m163 -41 c5 -47 4 -52 -17 -56 -44 -8 -57 30 -21 63 18 17 19 20 5
20 -18 0 -22 11 -10 24 4 4 14 5 23 4 10 -2 17 -19 20 -55z m1565 47 c-3 -5
-11 -10 -16 -10 -6 0 -7 5 -4 10 3 6 11 10 16 10 6 0 7 -4 4 -10z m-2020 -9
c3 -5 1 -12 -5 -16 -5 -3 -10 1 -10 9 0 18 6 21 15 7z m385 -12 c0 -11 -7 -19
-16 -19 -12 0 -15 -9 -12 -37 2 -26 -1 -38 -9 -38 -7 0 -13 3 -13 8 0 107 -1
102 25 103 18 2 25 -3 25 -17z m1586 3 c-10 -2 -22 0 -28 6 -6 6 0 7 19 4 21
-5 23 -7 9 -10z m-41 -2 c4 -6 -8 -10 -27 -11 -18 0 -42 -3 -53 -5 -11 -3 -37
-7 -57 -9 -21 -3 -84 -11 -140 -20 -92 -13 -337 -42 -788 -92 -80 -9 -171 -15
-203 -14 -32 0 -56 -3 -53 -7 3 -5 -20 -7 -50 -5 -31 2 -54 1 -51 -4 3 -4 -16
-7 -41 -5 -35 2 -43 0 -32 -7 11 -8 -1 -10 -45 -9 -65 2 -154 -7 -225 -21 -25
-5 -54 -9 -65 -9 -11 0 -54 -5 -95 -10 -41 -6 -106 -13 -145 -17 -38 -3 -88
-10 -110 -15 -22 -5 -56 -11 -75 -12 l-35 -3 -4 -130 c-2 -71 -4 -186 -5 -255
l-1 -125 28 -3 28 -3 -3 -142 -3 -142 -37 -3 -38 -3 0 416 c0 323 3 417 13
420 6 2 140 18 297 35 440 47 611 67 1075 124 237 30 437 54 445 54 22 -1 152
11 255 22 192 22 232 23 240 10z m1260 -6 c-11 -8 -20 -19 -20 -24 0 -6 -4
-10 -10 -9 -5 0 -9 8 -7 17 2 14 1 14 -7 3 -5 -8 -7 -20 -4 -28 3 -7 0 -13 -6
-13 -6 0 -11 7 -11 15 0 20 -27 19 -38 -2 -9 -16 -11 -16 -27 0 -9 9 -21 17
-26 17 -5 0 -9 7 -9 16 0 11 6 13 19 9 11 -3 22 -1 26 5 3 5 36 10 73 10 62
-1 65 -2 47 -16z m115 -6 c0 -18 -2 -20 -9 -8 -6 8 -7 18 -5 22 9 14 14 9 14
-14z m-4590 -8 c12 -8 9 -10 -12 -10 -16 0 -28 5 -28 10 0 13 20 13 40 0z
m1448 -42 c2 -29 -1 -48 -7 -48 -6 0 -11 18 -11 41 0 24 -4 38 -10 34 -5 -3
-10 -24 -10 -46 0 -22 -3 -38 -7 -36 -5 3 -6 28 -4 57 3 46 5 51 25 48 18 -3
21 -11 24 -50z m-229 28 c8 -10 9 -16 1 -21 -13 -8 -13 -65 0 -65 6 0 10 -5
10 -11 0 -6 -8 -9 -17 -7 -13 2 -20 16 -24 48 -9 65 4 88 30 56z m157 -11 c13
-52 -24 -110 -47 -74 -10 16 -12 60 -3 83 10 25 43 19 50 -9z m-432 -12 c0
-42 -14 -93 -25 -93 -12 0 -11 77 1 101 15 27 25 24 24 -8z m348 -13 c0 -22 1
-46 2 -52 1 -7 -6 -14 -15 -16 -12 -2 -15 8 -15 53 1 66 25 79 28 15z m2888
15 c0 -13 -14 -35 -22 -35 -5 0 -7 4 -3 9 3 5 1 12 -5 16 -5 3 -10 13 -10 21
0 12 4 12 20 4 11 -6 20 -12 20 -15z m-3020 5 c0 -6 -7 -13 -15 -16 -8 -4 -15
-17 -15 -30 0 -15 6 -24 15 -24 8 0 15 -7 15 -16 0 -10 -7 -14 -22 -12 -18 2
-24 11 -26 35 -2 18 2 41 8 53 11 21 40 28 40 10z m-70 -51 c0 -55 -19 -61
-21 -6 l-2 32 -6 -35 c-4 -22 -12 -34 -20 -32 -7 1 -19 -5 -26 -14 -22 -30
-45 -10 -44 38 1 24 3 34 6 23 9 -36 20 -37 28 -3 l9 33 3 -32 c6 -44 23 -42
23 1 0 19 6 37 13 39 31 13 37 6 37 -44z m2847 35 c6 -19 -52 -41 -100 -37
-29 2 -47 -1 -47 -7 0 -6 -4 -8 -10 -5 -20 12 -9 33 21 44 23 8 43 8 71 0 22
-6 43 -8 46 -5 3 3 -2 6 -11 6 -9 0 -17 4 -17 10 0 12 43 7 47 -6z m-436 -54
c10 0 19 -7 19 -15 0 -13 -4 -14 -20 -5 -15 8 -26 7 -44 -6 -14 -8 -30 -13
-36 -9 -15 9 -2 25 15 18 13 -4 18 6 14 33 0 4 5 11 13 15 9 6 14 2 16 -11 2
-12 11 -20 23 -20z m-334 -8 c15 -10 4 -65 -12 -58 -7 2 -16 1 -21 -4 -5 -5
-36 -10 -69 -12 -33 -1 -63 -7 -67 -12 -9 -14 -38 12 -38 34 0 10 -6 20 -12
23 -7 2 -9 8 -5 13 4 5 12 2 17 -6 7 -11 11 -12 25 0 28 23 155 39 182 22z
m-244 -32 c3 -11 2 -22 -3 -25 -11 -7 -33 22 -25 35 10 16 22 12 28 -10z m-98
-43 c-2 -23 -4 -45 -4 -49 -1 -5 -6 -8 -12 -8 -6 0 -8 7 -5 16 4 12 2 15 -9
10 -20 -7 -19 3 1 26 13 14 14 21 5 32 -9 11 -9 15 1 19 22 7 26 -1 23 -46z
m37 38 c0 -5 -5 -11 -11 -13 -6 -2 -11 4 -11 13 0 9 5 15 11 13 6 -2 11 -8 11
-13z m-692 -63 c0 -32 5 -63 12 -70 13 -13 5 -27 -11 -17 -6 3 -11 33 -11 66
0 33 -4 59 -10 59 -5 0 -10 5 -10 10 0 6 7 10 15 10 12 0 15 -13 15 -58z m330
37 c0 -25 -33 -22 -38 4 -2 12 3 17 17 17 15 0 21 -6 21 -21z m84 12 c7 -10
-22 -37 -30 -28 -9 8 3 37 15 37 5 0 12 -4 15 -9z m2012 -78 c24 -55 14 -144
-11 -103 -11 18 -21 11 -43 -28 -11 -21 -30 -46 -41 -56 -18 -16 -24 -17 -51
-6 -25 10 -48 11 -113 1 -45 -7 -112 -10 -148 -8 -43 3 -72 0 -83 -8 -14 -11
-22 -11 -43 0 -15 8 -30 12 -35 9 -4 -3 -8 1 -8 9 0 8 -6 20 -14 26 -25 21
-30 69 -10 99 10 15 17 33 16 40 -3 11 36 15 173 17 22 0 46 4 53 8 7 5 51 9
97 10 56 1 85 6 85 13 0 22 43 23 81 3 22 -11 39 -24 39 -29 0 -6 7 -10 15
-10 8 0 13 6 11 13 -3 6 -7 26 -10 42 -6 29 -6 29 10 10 9 -11 22 -34 30 -52z
m-2246 47 c0 -5 -5 -10 -12 -10 -6 0 -4 -6 7 -13 17 -13 17 -14 -5 -20 -24 -6
-24 -6 -4 -28 19 -21 19 -21 -5 -18 -27 4 -54 60 -32 67 6 2 11 10 11 18 0 8
9 14 20 14 11 0 20 -4 20 -10z m530 0 c0 -5 -7 -10 -15 -10 -8 0 -15 5 -15 10
0 6 7 10 15 10 8 0 15 -4 15 -10z m-762 -56 c4 -48 -18 -75 -43 -54 -29 24
-10 104 23 98 12 -2 18 -15 20 -44z m130 29 c9 -10 16 -28 14 -40 -5 -31 -32
-30 -32 1 0 13 -3 31 -6 40 -8 21 2 20 24 -1z m332 -20 c0 -15 -26 -17 -35 -3
-9 15 18 41 27 26 4 -6 8 -17 8 -23z m-540 17 c0 -5 -7 -10 -15 -10 -8 0 -15
-4 -15 -9 0 -5 7 -11 15 -15 8 -3 15 -16 15 -30 0 -25 -24 -41 -43 -29 -6 4 0
10 14 16 l24 9 -22 15 c-22 15 -30 43 -16 56 10 11 43 8 43 -3z m2797 -52 c3
-28 -26 -65 -58 -73 -19 -5 -28 0 -40 22 -9 15 -20 42 -24 60 -6 30 -4 33 27
41 41 12 92 -15 95 -50z m-2947 31 c0 -11 -4 -18 -9 -14 -13 7 -24 -30 -16
-55 4 -13 2 -20 -7 -20 -9 0 -13 15 -13 50 0 41 3 50 20 53 11 2 21 5 23 6 1
0 2 -8 2 -20z m75 1 c8 -24 -1 -40 -21 -40 -9 0 -14 -6 -11 -12 2 -7 10 -12
16 -10 6 1 11 -3 11 -9 0 -6 -10 -9 -22 -7 -25 3 -34 32 -24 74 8 30 42 32 51
4z m535 0 c8 -5 11 -12 8 -16 -10 -9 -38 3 -38 16 0 12 10 13 30 0z m-762 -33
c3 -22 -1 -27 -17 -27 -12 0 -21 -7 -21 -15 0 -9 9 -15 23 -15 20 -1 20 -2 4
-11 -25 -15 -37 -3 -37 40 0 60 42 84 48 28z m-78 13 c0 -5 -7 -10 -15 -10
-20 0 -19 -6 5 -30 30 -30 4 -71 -31 -49 -11 7 -9 9 9 9 25 0 30 25 7 34 -15
5 -21 37 -8 49 10 11 33 8 33 -3z m-354 -15 c9 -23 -5 -65 -21 -65 -9 0 -15
-10 -15 -25 0 -14 -4 -25 -10 -25 -11 0 -14 113 -3 123 12 13 44 7 49 -8z
m212 -37 l-1 -53 -7 45 -7 45 -3 -50 -3 -50 -4 43 c-2 23 -8 42 -13 42 -5 0
-11 -19 -13 -42 -4 -39 -4 -39 -3 7 1 44 4 50 26 56 14 4 26 7 28 8 1 1 1 -23
0 -51z m52 12 c0 -22 5 -40 10 -40 6 0 10 -4 10 -10 0 -5 -12 -10 -27 -10 -20
0 -24 3 -14 9 10 6 12 21 8 50 -3 23 -1 41 4 41 5 0 9 -18 9 -40z m-492 -42
c-21 -75 -28 -92 -28 -66 0 15 29 117 37 131 12 20 10 0 -9 -65z m56 -2 c-9
-36 -20 -66 -24 -66 -4 0 2 31 13 70 26 87 33 85 11 -4z m316 19 c0 -12 -7
-30 -15 -41 -15 -19 -15 -19 -30 0 -20 26 -19 61 2 81 16 16 17 16 30 -1 7
-10 13 -27 13 -39z m-70 23 c0 -5 -7 -7 -16 -4 -13 5 -15 -1 -13 -36 2 -26 -1
-43 -9 -46 -8 -2 -12 11 -12 46 0 40 4 51 18 55 21 4 32 -1 32 -15z m2011 -11
c8 -10 123 -10 228 2 93 10 158 5 181 -14 8 -7 32 -20 53 -30 59 -27 83 -88
52 -132 -12 -18 -22 -21 -53 -16 -20 3 -50 14 -65 25 -18 13 -35 17 -50 12
-12 -4 -52 -8 -89 -9 -45 -2 -78 -9 -100 -22 -75 -44 -175 -33 -211 24 -20 31
-18 97 4 146 12 26 36 32 50 14z m-1591 -6 c0 -6 -4 -13 -10 -16 -5 -3 -10 1
-10 9 0 9 5 16 10 16 6 0 10 -4 10 -9z m-1113 -76 c-1 -49 -17 -44 -17 6 0 22
4 38 9 35 5 -3 9 -22 8 -41z m2344 29 c9 -11 23 -14 43 -10 136 24 179 26 202
11 28 -18 39 -53 30 -98 -10 -52 -17 -56 -101 -62 -44 -3 -97 -8 -119 -11 -21
-3 -88 -8 -150 -11 -61 -2 -147 -6 -191 -9 -44 -3 -114 -7 -155 -9 -41 -2 -93
-7 -115 -10 -74 -11 -150 -13 -164 -5 -9 4 -24 3 -35 -4 -12 -7 -50 -12 -86
-12 -65 1 -65 1 -62 29 1 15 -2 27 -8 27 -5 0 -10 -6 -11 -12 -1 -7 -2 -22 -3
-33 -1 -18 -8 -20 -61 -20 l-60 0 0 38 c0 56 -22 46 -34 -16 -11 -53 -32 -46
-30 10 3 69 24 113 54 113 29 0 33 -15 8 -29 -14 -8 -15 -12 -6 -22 9 -9 15
-8 28 5 23 23 46 18 58 -14 4 -10 6 -8 6 7 1 24 15 27 153 38 48 4 81 12 89
21 15 18 33 18 49 -1 8 -10 17 -12 24 -6 7 6 27 10 46 10 19 0 53 3 75 6 22 3
56 7 75 9 19 2 45 6 58 10 12 4 31 4 43 1 16 -6 19 -12 14 -36 -6 -28 -5 -29
29 -29 34 0 36 2 36 35 0 44 18 53 104 58 49 3 74 9 94 25 33 25 55 27 73 6z
m-852 -7 c-9 -9 -99 -16 -99 -8 0 4 23 9 52 10 28 1 50 0 47 -2z m-164 -17
c-3 -5 -32 -9 -63 -8 l-57 1 50 7 c28 4 56 8 63 8 7 1 10 -2 7 -8z m42 4 c-3
-3 -12 -4 -19 -1 -8 3 -5 6 6 6 11 1 17 -2 13 -5z m-2021 -17 c1 -1 4 -11 8
-23 5 -16 0 -23 -19 -32 -41 -19 -72 -15 -78 10 -9 33 19 59 57 52 17 -3 31
-6 32 -7z m1809 -7 c-27 -4 -53 -5 -57 -1 -4 3 19 7 50 8 l57 1 -50 -8z m605
-16 c0 -17 -36 -19 -46 -3 -8 14 14 29 33 22 7 -3 13 -11 13 -19z m-687 9 c-7
-2 -21 -2 -30 0 -10 3 -4 5 12 5 17 0 24 -2 18 -5z m-70 -10 c-13 -2 -35 -2
-50 0 -16 2 -5 4 22 4 28 0 40 -2 28 -4z m-216 -19 c-3 -3 -12 -4 -19 -1 -8 3
-5 6 6 6 11 1 17 -2 13 -5z m-464 -41 c-7 -2 -21 -2 -30 0 -10 3 -4 5 12 5 17
0 24 -2 18 -5z m892 -34 c4 -6 -3 -13 -14 -16 -20 -5 -21 -7 -5 -24 24 -27 10
-59 -27 -59 -16 0 -29 5 -29 10 0 6 9 10 20 10 24 0 26 13 5 30 -8 7 -15 18
-15 24 0 29 51 49 65 25z m-3844 -25 c13 -16 3 -90 -13 -100 -6 -4 -16 -1 -22
7 -6 8 -20 19 -31 25 -15 8 -19 19 -17 45 2 19 6 37 8 40 6 10 63 -3 75 -17z
m3532 -12 c-7 -5 -16 -23 -19 -42 -5 -24 -4 -31 4 -26 7 4 12 1 12 -9 0 -10
-7 -15 -17 -13 -14 3 -18 14 -18 53 0 59 13 81 35 59 12 -11 12 -16 3 -22z
m150 -16 c-2 -55 -1 -55 -33 -58 -37 -4 -39 31 -4 59 22 18 25 23 12 23 -18 0
-23 11 -11 24 4 4 14 5 23 3 11 -2 15 -14 13 -51z m86 27 c-1 -40 -12 -74 -24
-76 -6 -1 -9 16 -8 38 2 31 1 35 -6 20 -5 -11 -10 -30 -10 -42 -1 -27 -21 -32
-21 -5 0 9 3 34 6 55 6 33 10 37 35 37 25 0 29 -4 28 -27z m-3876 -8 c-3 -8
-9 -15 -14 -15 -10 0 -12 24 -3 33 11 11 24 -3 17 -18z m3727 4 c0 -11 -7 -19
-15 -19 -15 0 -20 -16 -17 -52 1 -12 -5 -18 -19 -18 -16 0 -19 4 -13 18 4 9 9
33 10 52 1 19 3 36 3 36 1 1 12 2 26 2 18 0 25 -6 25 -19z m-466 -55 c-4 -22
-2 -40 6 -49 15 -18 7 -30 -13 -22 -15 5 -29 90 -20 114 4 10 9 11 19 2 10 -8
12 -22 8 -45z m230 40 c10 -25 7 -82 -4 -89 -6 -4 -10 10 -10 34 0 23 -4 41
-10 41 -5 0 -10 -18 -10 -40 0 -22 -4 -40 -10 -40 -5 0 -10 22 -10 49 0 49 3
53 41 60 4 0 10 -6 13 -15z m-3534 -20 c0 -8 -7 -14 -15 -14 -15 0 -21 21 -9
33 10 9 24 -2 24 -19z m3468 8 c-2 -9 -10 -16 -17 -14 -10 2 -12 -7 -8 -38 4
-33 2 -40 -12 -40 -13 0 -16 9 -14 53 1 28 2 52 3 52 0 0 12 2 26 3 20 1 25
-2 22 -16z m-108 -40 c0 -45 17 -32 23 18 3 27 4 24 5 -16 2 -39 -2 -53 -14
-58 -26 -10 -34 3 -34 55 0 31 4 48 10 44 6 -3 10 -23 10 -43z m-180 19 c0
-11 -5 -23 -11 -26 -5 -4 -9 -17 -8 -28 2 -37 -1 -47 -14 -41 -20 7 -18 102 2
107 29 8 31 7 31 -12z m68 -14 c2 -19 -1 -27 -12 -27 -9 0 -16 -4 -16 -10 0
-5 7 -10 16 -10 9 0 14 -6 12 -12 -3 -7 -13 -13 -24 -13 -21 0 -30 39 -19 82
8 33 39 27 43 -10z m-1106 -31 c27 -17 22 -35 -16 -53 -40 -18 -76 -12 -94 17
-10 17 -9 23 9 41 21 21 62 20 101 -5z m638 -3 c0 -10 -5 -25 -10 -33 -7 -11
-10 -7 -10 18 0 17 5 32 10 32 6 0 10 -8 10 -17z m-3840 -148 c49 -8 107 -45
70 -45 -5 0 -18 -10 -29 -21 -29 -31 -155 -35 -191 -6 -18 14 -20 18 -6 13 16
-5 17 -4 6 9 -10 12 -10 15 5 15 9 0 30 9 46 21 16 11 29 17 29 13 0 -5 5 -3
12 4 7 7 19 10 28 6 8 -4 22 -8 30 -9z m3838 -140 c-2 -49 -18 -44 -18 6 0 23
4 38 10 34 5 -3 9 -21 8 -40z m2837 -289 c12 -18 15 -46 13 -122 -3 -107 -8
-114 -64 -100 -65 17 -77 197 -15 231 37 20 48 18 66 -9z m-193 -6 c46 -36 56
-133 21 -202 -13 -26 -33 -38 -33 -20 0 11 -1 11 -125 14 -98 3 -190 -6 -210
-22 -21 -16 -85 -21 -112 -8 -15 8 -53 13 -83 12 -30 -1 -181 -4 -335 -8 -154
-3 -322 -8 -373 -11 -91 -6 -92 -5 -102 19 -7 19 -14 23 -31 19 l-23 -6 24 -9
c30 -11 13 -31 -21 -26 -22 3 -24 8 -24 53 0 47 2 50 28 53 15 2 27 -1 27 -7
0 -6 5 -11 10 -11 6 0 10 14 10 31 0 53 25 27 30 -32 5 -50 7 -54 30 -54 19 0
26 6 28 24 2 13 -1 28 -7 34 -15 15 -14 27 4 27 11 0 14 7 9 25 -4 18 -2 25 9
25 18 0 30 -27 16 -36 -6 -4 -7 -10 0 -17 5 -7 11 -28 14 -47 4 -34 4 -34 5 6
2 44 13 54 58 54 17 0 24 6 24 20 0 27 26 26 41 -2 11 -21 12 -21 26 -2 15 21
71 28 91 11 8 -6 47 -11 88 -11 70 -1 77 1 100 27 29 33 38 34 58 6 15 -21 17
-22 117 -10 96 11 104 13 129 43 20 23 31 29 47 24 23 -7 40 -55 28 -78 -4 -7
2 -2 12 10 18 22 27 24 163 27 79 3 146 8 149 13 17 27 47 62 52 62 3 0 18 -9
31 -20z m-2052 -140 c0 -5 -5 -10 -11 -10 -5 0 -7 5 -4 10 3 6 8 10 11 10 2 0
4 -4 4 -10z m-342 -77 c-6 -35 -14 -63 -18 -63 -11 0 -21 75 -13 97 24 68 44
46 31 -34z m875 38 c13 -62 -23 -101 -55 -61 -17 22 -18 22 -18 2 0 -13 -6
-19 -17 -18 -13 1 -20 13 -24 41 l-6 40 -1 -42 c-1 -24 -7 -43 -13 -43 -6 0
-9 21 -7 53 3 51 4 52 36 55 24 2 32 -1 32 -12 0 -13 4 -12 20 4 25 25 46 17
53 -19z m38 11 c0 -12 3 -11 9 6 11 26 30 29 30 5 0 -35 -21 -93 -34 -93 -13
0 -38 88 -29 102 7 13 23 -1 24 -20z m-640 -34 c-13 -20 -6 -58 10 -58 5 0 9
-4 9 -10 0 -5 -8 -10 -19 -10 -14 0 -19 10 -24 50 -8 65 -1 86 21 64 13 -13
13 -20 3 -36z m447 15 c3 -26 -1 -32 -20 -36 l-23 -4 23 -8 c27 -9 29 -25 2
-25 -34 0 -48 59 -23 103 11 20 38 0 41 -30z m-220 -36 c-1 -50 -2 -51 -5 -9
-5 50 -23 57 -23 8 0 -19 -4 -38 -10 -41 -6 -4 -10 13 -10 44 0 39 4 50 18 54
28 6 32 -1 30 -56z m152 43 c0 -14 -5 -18 -16 -13 -13 5 -15 -1 -12 -33 2 -26
-1 -39 -9 -39 -7 0 -13 3 -13 8 0 4 0 27 0 52 0 41 2 45 25 45 18 0 25 -5 25
-20z m-310 -29 c0 -22 5 -43 10 -46 18 -11 10 -25 -15 -25 -25 0 -33 14 -15
25 13 8 13 52 0 60 -12 7 -4 25 11 25 5 0 9 -18 9 -39z m88 -7 c5 -63 -37 -87
-52 -30 -9 35 10 78 32 74 12 -2 18 -15 20 -44z m-280 -16 c2 -29 -1 -48 -7
-48 -6 0 -11 14 -11 30 0 17 -4 30 -10 30 -5 0 -10 -13 -10 -30 0 -16 -4 -30
-10 -30 -11 0 -14 59 -4 85 4 9 15 15 28 13 17 -2 22 -11 24 -50z m72 43 c0
-5 -9 -15 -21 -22 -23 -16 -17 -49 8 -49 8 0 13 -6 11 -12 -8 -23 -41 -14 -50
13 -12 35 6 79 32 79 11 0 20 -4 20 -9z m-140 -51 c0 -46 -2 -50 -24 -50 -13
0 -27 7 -30 16 -9 24 -7 62 4 69 6 3 10 -5 10 -19 0 -14 5 -28 10 -31 6 -4 10
8 10 29 0 20 5 36 10 36 6 0 10 -22 10 -50z m-335 -40 c-3 -5 -10 -10 -16 -10
-5 0 -9 5 -9 10 0 6 7 10 16 10 8 0 12 -4 9 -10z m2058 -52 c8 -8 12 -48 11
-108 -1 -94 -1 -95 -27 -98 -17 -2 -29 3 -36 16 -15 29 -25 99 -16 119 4 10 8
28 9 41 3 36 37 53 59 30z m-376 -34 c13 -20 14 -30 5 -44 -6 -10 -8 -34 -5
-54 5 -30 1 -42 -17 -61 -30 -32 -45 -31 -67 1 -16 25 -16 27 0 39 12 9 15 21
10 48 -4 27 0 43 16 66 27 38 36 38 58 5z m-116 -15 c-11 -34 -12 -119 -2
-138 10 -17 9 -21 -3 -21 -8 0 -20 8 -25 18 -7 11 -13 13 -18 6 -10 -13 -128
-25 -140 -14 -4 4 -34 4 -67 0 -76 -11 -86 -6 -86 39 0 20 -4 41 -9 47 -6 5
-4 16 5 29 14 19 15 19 37 -4 15 -16 18 -25 10 -28 -19 -7 -17 -63 2 -63 12 0
15 14 15 65 0 51 3 65 15 65 8 0 15 -6 15 -14 0 -7 10 -20 23 -29 19 -12 26
-13 41 -1 13 9 24 10 37 4 12 -7 20 -6 25 1 4 7 22 9 44 6 33 -4 37 -2 48 25
11 29 42 35 33 7z m329 -28 c13 -24 13 -57 1 -80 -9 -16 -16 -17 -63 -7 -59
12 -68 19 -68 59 0 24 4 27 33 28 17 0 41 4 52 9 29 13 33 12 45 -9z m-1368
-63 c-17 -17 -15 -55 5 -62 12 -5 13 -10 6 -17 -18 -18 -30 -2 -36 48 -7 61 0
80 21 59 13 -12 14 -18 4 -28z m466 20 c-2 -13 -10 -23 -18 -23 -10 0 -15 -10
-15 -33 0 -24 -4 -32 -18 -32 -14 0 -17 5 -12 20 3 11 7 33 7 49 1 29 5 32 51
40 5 0 7 -9 5 -21z m67 -13 c0 -23 -5 -31 -22 -33 -13 -2 -23 -7 -23 -12 0 -5
10 -10 23 -13 19 -3 20 -4 5 -11 -34 -15 -51 1 -45 40 7 43 24 66 46 62 10 -2
16 -14 16 -33z m44 13 l8 -22 5 22 c6 23 28 31 28 10 -1 -22 -38 -98 -48 -98
-14 0 -22 26 -22 71 0 42 16 52 29 17z m-419 -13 c0 -15 -5 -24 -12 -22 -9 1
-12 -9 -10 -34 2 -25 -2 -36 -11 -36 -21 0 -18 105 3 111 28 7 30 6 30 -19z
m68 -34 c2 -36 0 -51 -8 -46 -6 3 -10 12 -9 18 3 26 -1 60 -7 54 -4 -3 -8 -21
-10 -38 -6 -52 -14 -47 -14 9 0 48 10 64 35 58 6 -1 11 -26 13 -55z m162 24
c0 -25 -8 -44 -24 -60 -14 -14 -30 -33 -36 -42 -9 -14 -10 -3 -5 45 8 82 12
92 41 92 21 0 24 -5 24 -35z m-510 6 c0 -11 -4 -23 -10 -26 -5 -3 -10 -22 -10
-41 0 -24 -5 -34 -15 -34 -24 0 -21 107 3 113 30 8 32 7 32 -12z m66 -8 c5
-19 2 -30 -10 -38 -15 -11 -15 -13 -1 -19 20 -7 10 -26 -15 -26 -29 0 -40 52
-20 91 15 27 38 24 46 -8z m115 -53 c5 0 9 18 9 40 0 22 5 40 10 40 6 0 10
-22 10 -49 0 -37 -4 -50 -17 -55 -25 -10 -42 19 -38 63 4 51 8 52 12 4 2 -24
8 -43 14 -43z m-587 55 c3 -8 1 -15 -4 -15 -6 0 -10 7 -10 15 0 8 2 15 4 15 2
0 6 -7 10 -15z m1194 -42 c5 -18 -28 -29 -38 -12 -5 7 -6 17 -3 22 7 12 35 5
41 -10z m-1188 -23 c0 -5 -4 -10 -10 -10 -5 0 -10 5 -10 10 0 6 5 10 10 10 6
0 10 -4 10 -10z m1729 -104 c8 -10 7 -22 -4 -51 -16 -38 -13 -87 7 -112 13
-16 3 -43 -16 -43 -9 0 -24 10 -35 21 l-20 21 -26 -26 c-30 -31 -41 -32 -54
-9 -8 15 -25 18 -106 19 -100 1 -120 8 -109 38 5 13 13 16 30 12 22 -6 24 -3
24 28 0 19 4 37 8 40 4 2 35 5 67 6 86 1 91 1 130 3 19 1 35 6 35 10 0 16 33
57 45 57 7 0 18 -6 24 -14z m794 -6 c40 0 75 -4 83 -11 22 -18 17 -63 -11 -93
-14 -15 -25 -32 -25 -39 0 -17 -37 -39 -45 -27 -3 5 -15 6 -28 1 -20 -7 -294
-6 -379 1 -52 5 -63 20 -61 78 3 67 17 90 53 90 17 0 30 -5 30 -10 0 -14 188
-9 216 5 12 6 39 9 60 7 22 -2 70 -3 107 -2z m-1187 -35 c7 -19 14 -48 14 -65
0 -44 -26 -100 -46 -100 -14 0 -15 6 -8 33 9 39 9 102 -1 140 -11 42 22 36 41
-8z m457 -58 c2 -56 -1 -77 -10 -77 -21 0 -35 75 -23 121 17 61 31 43 33 -44z
m1092 67 c20 -13 25 -14 25 -3 0 11 2 11 8 1 5 -7 7 -23 6 -35 -1 -12 -3 -29
-3 -38 -1 -10 -13 -19 -32 -23 -37 -7 -119 12 -119 28 0 6 -3 21 -6 33 -5 17
0 22 25 28 17 4 29 11 25 16 -9 15 45 10 71 -7z m-2357 -15 c7 -11 10 -29 7
-39 -3 -11 -1 -28 5 -40 8 -16 7 -28 -6 -55 -19 -42 -26 -43 -44 -9 -12 22
-12 27 0 34 12 8 13 13 3 30 -7 11 -13 26 -13 33 0 16 23 67 30 67 3 0 11 -9
18 -21z m66 -1 c-4 -13 -7 -45 -7 -73 0 -27 3 -60 7 -72 11 -29 -9 -31 -24 -2
-17 30 -17 99 -1 137 15 36 38 45 25 10z m457 -26 c0 -34 1 -35 11 -14 15 30
46 28 58 -4 11 -29 6 -44 -16 -44 -8 0 -14 -5 -14 -11 0 -5 4 -8 9 -4 14 8 25
-15 13 -27 -14 -14 -52 0 -53 20 0 12 -3 11 -9 -5 -10 -25 -39 -30 -58 -11
-18 18 -14 76 6 96 10 10 22 26 25 36 11 27 27 8 28 -32z m209 18 c0 -23 -4
-30 -20 -30 -16 0 -20 7 -20 30 0 23 4 30 20 30 16 0 20 -7 20 -30z m-600 -16
c0 -21 -4 -33 -10 -29 -17 10 -11 65 7 65 2 0 3 -16 3 -36z m130 10 c0 -8 7
-14 15 -14 12 0 15 -13 15 -57 0 -31 -3 -53 -7 -49 -4 4 -6 23 -4 42 1 19 -2
34 -8 34 -6 0 -11 -18 -11 -40 0 -22 -4 -40 -10 -40 -6 0 -10 32 -10 76 0 47
4 73 10 69 6 -3 10 -13 10 -21z m1108 -16 c3 -31 6 -35 28 -30 31 6 54 -13 54
-45 0 -60 -46 -84 -75 -39 -11 16 -22 22 -35 19 -23 -6 -36 18 -25 45 5 9 7
27 6 40 -3 26 16 54 33 49 6 -2 12 -19 14 -39z m-698 -13 c0 -16 -6 -25 -16
-25 -13 0 -15 -7 -10 -36 7 -33 5 -35 -15 -32 -20 3 -22 9 -24 61 l-1 57 33 0
c29 0 33 -3 33 -25z m-304 -9 c7 -30 -1 -46 -24 -47 -12 0 -9 -3 7 -10 28 -11
16 -33 -15 -27 -14 2 -20 14 -22 42 -4 49 3 66 27 66 13 0 23 -9 27 -24z m72
-32 c3 -50 2 -51 -25 -50 -23 1 -29 6 -31 29 -2 18 2 29 12 33 21 8 21 24 0
24 -8 0 -12 5 -9 11 4 5 17 9 28 7 19 -3 22 -11 25 -54z m-230 29 c-4 -22 -22
-20 -26 1 -2 10 3 16 13 16 10 0 15 -7 13 -17z m-738 -49 c0 -15 -6 -24 -15
-24 -15 0 -21 40 -9 53 12 11 24 -3 24 -29z m732 -26 c-15 -15 -26 -4 -18 18
5 13 9 15 18 6 9 -9 9 -15 0 -24z m2849 -69 c11 -5 17 -14 14 -20 -4 -5 -2 -9
4 -9 5 0 13 5 16 10 12 19 119 6 153 -19 l32 -22 0 35 c0 31 3 36 24 36 14 0
33 -11 44 -25 24 -31 36 -31 56 -3 14 20 18 20 41 8 14 -7 25 -21 25 -30 0
-17 32 -60 44 -60 12 0 6 38 -6 43 -7 2 -10 8 -6 12 12 13 37 -15 48 -54 23
-83 4 -185 -37 -193 -10 -2 -40 -1 -67 3 -54 6 -71 22 -87 81 -13 50 -50 54
-75 7 -23 -45 -63 -79 -91 -79 -38 0 -81 36 -108 91 -29 55 -37 61 -33 22 2
-20 -2 -28 -16 -31 -11 -2 -29 -15 -39 -29 -16 -20 -27 -24 -61 -22 -22 1 -61
-1 -85 -6 -25 -4 -46 -3 -50 2 -4 6 -39 6 -96 0 -61 -6 -105 -6 -136 1 -33 8
-58 8 -85 0 -27 -7 -48 -7 -69 0 -16 6 -91 9 -165 8 -111 -2 -137 0 -146 12
-10 13 -16 14 -42 3 -22 -9 -82 -11 -229 -8 -109 3 -217 7 -241 10 -23 2 -45
0 -48 -4 -7 -12 -58 -11 -70 1 -8 8 -15 6 -24 -5 -15 -19 -31 -19 -55 -2 -14
11 -19 30 -21 90 -4 68 -2 78 18 97 26 24 41 25 58 5 9 -11 16 -12 26 -4 15
12 74 3 74 -12 0 -5 10 -5 25 1 17 7 28 5 38 -4 14 -15 191 -18 213 -4 14 9
80 10 121 2 19 -4 52 1 82 11 28 9 55 14 61 10 5 -3 10 1 10 9 0 9 4 16 8 16
10 0 42 -54 42 -72 1 -39 43 -46 53 -8 9 35 55 54 136 56 42 1 86 3 99 3 12 1
22 7 22 15 0 11 11 14 43 12 23 -1 49 -6 57 -11 8 -5 108 -10 222 -11 l208 -1
15 23 c17 27 27 29 56 13z m-3914 -59 c3 -42 -22 -84 -37 -60 -5 8 -12 11 -16
8 -13 -13 -44 13 -44 36 0 26 14 41 45 49 39 10 50 3 52 -33z m1583 -15 c0 -8
-4 -15 -9 -15 -13 0 -22 16 -14 24 11 11 23 6 23 -9z m70 0 c8 -10 10 -29 6
-56 -5 -32 -3 -46 10 -60 16 -17 16 -19 0 -25 -29 -11 -46 15 -46 72 0 29 -5
56 -10 59 -13 8 -3 25 14 25 8 0 19 -7 26 -15z m107 -5 c4 -15 14 -20 42 -21
74 -2 127 0 147 6 34 11 56 -19 52 -74 l-3 -46 -53 -1 c-28 0 -55 -4 -58 -7
-13 -13 -43 14 -49 43 -9 42 -29 39 -22 -4 l6 -35 -57 0 c-31 0 -62 5 -69 11
-19 16 -16 75 5 96 10 10 21 26 25 35 9 23 28 21 34 -3z m-258 -16 c18 -19 25
-37 25 -70 1 -52 -18 -60 -22 -9 -4 45 -22 36 -22 -11 0 -21 -4 -33 -10 -29
-11 7 -14 145 -2 145 4 0 18 -12 31 -26z m-217 -32 c-18 -6 -15 -59 4 -70 12
-7 13 -11 4 -17 -18 -11 -31 8 -40 57 -10 53 3 76 28 51 12 -12 13 -18 4 -21z
m295 16 c4 -7 9 -26 9 -43 1 -16 5 -38 9 -47 6 -15 2 -18 -24 -18 -21 0 -31 5
-31 15 0 8 5 15 10 15 14 0 13 43 -1 57 -12 12 -4 33 11 33 5 0 12 -6 17 -12z
m-570 -14 c2 -6 -6 -14 -17 -17 -28 -7 -25 -54 4 -49 11 2 17 -1 14 -10 -8
-24 -42 -14 -52 14 -12 34 7 81 31 76 9 -2 18 -8 20 -14z m68 -39 c0 -43 -3
-50 -20 -50 -27 0 -42 46 -27 80 8 17 19 25 30 23 13 -3 17 -14 17 -53z m73
-3 c2 -33 -1 -52 -6 -48 -6 3 -9 22 -7 41 2 19 -1 37 -5 40 -9 6 -15 -11 -23
-65 -3 -14 -5 1 -6 33 -1 55 0 58 22 55 19 -3 22 -10 25 -56z m72 48 c0 -5 -7
-10 -15 -10 -20 0 -19 -16 1 -24 23 -9 15 -61 -10 -61 -11 0 -21 6 -24 14 -3
10 0 12 11 8 25 -9 31 10 7 23 -19 10 -27 40 -13 53 10 11 43 8 43 -3z m223
-5 c-2 -5 -9 -10 -15 -10 -7 0 -14 -12 -16 -27 -3 -23 1 -28 17 -28 24 0 28
-18 6 -26 -25 -10 -45 16 -45 56 0 20 3 40 7 44 10 10 48 3 46 -9z m693 -10
c8 -34 -1 -55 -25 -55 -22 0 -38 38 -27 65 9 25 45 18 52 -10z m-1819 -57 c-3
-7 -5 -2 -5 12 0 14 2 19 5 13 2 -7 2 -19 0 -25z m-3324 -33 c34 -6 37 -8 31
-33 -4 -15 -13 -36 -20 -47 -16 -23 -18 -49 -4 -40 7 4 9 -3 6 -19 -5 -25 -3
-27 37 -30 6 -1 16 -7 20 -13 4 -7 17 -13 27 -13 11 0 24 -9 30 -19 5 -11 23
-22 39 -26 33 -7 40 -19 31 -55 -4 -17 -8 -21 -14 -12 -15 24 -27 11 -25 -25
3 -31 0 -37 -14 -35 -9 2 -26 -2 -37 -8 -17 -9 -20 -8 -20 9 0 11 8 25 18 30
15 9 15 10 -5 11 -25 0 -34 -11 -38 -46 -6 -60 -38 -38 -33 25 3 41 1 46 -19
49 -13 2 -23 10 -23 18 0 13 -12 18 -32 15 -4 0 -12 9 -19 20 -8 15 -17 19
-34 15 -16 -4 -24 -1 -27 12 -4 13 1 18 15 19 26 2 26 2 28 61 1 32 -3 58 -12
68 -15 18 -14 51 2 70 9 11 16 11 92 -1z m992 -40 c28 -4 82 -6 121 -5 57 1
75 -2 89 -17 13 -13 20 -14 23 -5 6 18 30 15 62 -8 20 -15 26 -26 23 -44 -3
-13 -12 -27 -21 -30 -10 -3 -25 -11 -35 -18 -14 -11 -19 -10 -27 2 -9 13 -12
12 -26 -5 -17 -23 -64 -28 -107 -12 -19 6 -46 6 -90 -3 -34 -6 -76 -12 -94
-12 -45 0 -131 30 -143 50 -5 9 -10 12 -10 5 0 -8 -13 -11 -39 -8 -28 2 -41
-1 -45 -11 -4 -10 -16 -14 -33 -12 -15 2 -28 -2 -30 -9 -3 -7 2 -13 11 -13 9
0 15 -6 13 -12 -1 -7 8 -13 20 -13 11 0 24 -3 28 -7 4 -4 28 -4 54 -1 l46 5
-1 -38 c-1 -22 2 -44 8 -51 16 -19 0 -73 -22 -73 -10 0 -21 -9 -25 -19 -10
-31 -53 -43 -114 -31 -83 16 -106 30 -104 65 2 28 2 29 -7 7 -13 -32 -35 -22
-34 14 2 81 16 111 57 127 9 3 17 11 17 17 0 5 7 10 15 10 8 0 12 -6 9 -14 -3
-8 -1 -17 5 -21 7 -4 11 4 11 19 0 14 -4 26 -10 26 -5 0 -10 9 -10 19 0 22
-20 40 -20 19 -1 -9 -5 -8 -14 4 -12 16 -14 16 -30 -3 -21 -25 -50 -21 -54 9
-2 12 -7 22 -12 22 -4 0 -6 9 -3 20 4 14 13 19 32 18 14 -1 29 -7 33 -13 5 -6
8 -4 8 5 0 17 -5 16 186 23 73 2 137 8 144 12 17 10 72 22 85 19 6 -2 33 -6
60 -9z m1070 -11 c99 -3 230 -5 291 -5 107 1 112 0 138 -25 65 -66 10 -125
-115 -124 -29 1 -172 2 -316 3 -194 2 -265 5 -274 15 -7 6 -19 12 -26 12 -8 0
-13 13 -12 38 0 29 7 42 30 60 30 24 76 42 94 36 6 -2 91 -6 190 -10z m-522
-22 c23 -20 22 -65 -2 -86 -20 -18 -74 -18 -102 0 -8 5 -20 9 -28 9 -7 0 -17
10 -22 23 -7 17 -4 27 11 40 37 31 114 39 143 14z m2667 -77 c-12 -35 -10 -73
5 -125 7 -23 7 -24 -10 -9 -25 24 -31 96 -11 143 20 48 32 41 16 -9z m87 18
c10 -21 10 -28 0 -35 -9 -6 -9 -11 1 -28 16 -26 15 -60 -3 -84 -15 -20 -15
-20 -30 0 -17 23 -19 34 -5 34 6 0 10 9 10 19 0 11 -4 23 -10 26 -14 8 -13 35
3 68 15 33 19 33 34 0z m61 -27 c-10 -37 -10 -55 0 -92 15 -55 10 -66 -13 -30
-11 16 -17 46 -17 76 0 30 6 60 17 76 23 36 28 25 13 -30z m709 23 c7 -15 15
-42 17 -60 3 -26 8 -33 21 -31 9 2 26 -4 36 -14 18 -17 19 -16 19 19 0 20 -5
48 -12 62 -10 21 -9 29 5 42 13 13 21 14 41 5 13 -6 27 -20 31 -31 5 -16 11
-19 23 -12 9 4 49 9 87 9 77 1 190 18 217 33 29 15 42 11 82 -30 33 -34 38
-45 39 -88 3 -71 -11 -83 -93 -83 -54 0 -70 -4 -85 -20 -26 -29 -76 -26 -105
5 -25 26 -27 27 -172 25 -25 -1 -40 5 -46 16 -9 17 -11 17 -27 1 -20 -21 -26
-21 -50 -3 -17 12 -21 12 -33 -5 -16 -23 -41 -25 -56 -3 -9 11 -29 15 -78 15
-68 0 -83 7 -90 44 -2 11 -8 18 -13 15 -10 -5 -11 -12 -4 -40 3 -12 -8 -15
-50 -17 -66 -3 -81 8 -81 56 0 27 8 46 29 70 29 32 51 34 51 5 0 -14 19 -17
118 -16 23 0 49 3 58 6 30 12 54 -12 54 -54 0 -22 5 -40 10 -40 13 0 13 86 0
111 -6 11 -8 24 -5 30 12 18 49 5 62 -22z m1030 -66 c4 -42 1 -68 -10 -89 -14
-27 -19 -29 -66 -28 -28 0 -57 6 -63 12 -7 7 -20 12 -30 12 -36 0 -51 96 -22
138 8 12 24 22 34 22 10 0 21 4 25 9 3 5 20 7 39 4 21 -3 36 -1 41 7 5 9 13 7
27 -8 13 -13 21 -38 25 -79z m-1507 61 c0 -16 -16 -19 -25 -4 -8 13 4 32 16
25 5 -4 9 -13 9 -21z m1668 11 c11 -11 7 -171 -5 -186 -19 -22 -62 -12 -75 17
-6 13 -15 24 -20 24 -4 0 -8 26 -8 57 0 71 27 108 74 99 16 -4 32 -8 34 -11z
m-2258 -5 c0 -5 -4 -10 -10 -10 -5 0 -10 5 -10 10 0 6 5 10 10 10 6 0 10 -4
10 -10z m90 0 c0 -5 -4 -10 -10 -10 -5 0 -10 -7 -10 -15 0 -8 5 -15 12 -15 9
0 9 -3 0 -12 -7 -7 -12 -27 -12 -44 0 -18 -4 -36 -10 -39 -14 -8 -18 98 -5
133 5 14 35 16 35 2z m400 -9 c0 -10 9 -21 20 -24 17 -4 20 -14 20 -56 0 -28
-4 -51 -10 -51 -5 0 -10 18 -10 40 0 22 -4 40 -10 40 -5 0 -10 -18 -10 -40 0
-22 -4 -40 -10 -40 -6 0 -10 32 -10 75 0 43 4 75 10 75 6 0 10 -8 10 -19z
m170 -38 c0 -38 5 -62 16 -75 16 -16 16 -18 0 -24 -29 -11 -46 15 -46 72 0 29
-4 56 -10 59 -18 11 -10 25 15 25 24 0 25 -3 25 -57z m-1325 -51 c-7 -18 -20
-8 -20 16 0 9 -6 16 -12 15 -18 -4 -16 7 4 30 17 18 18 18 26 -13 4 -18 6 -39
2 -48z m665 30 c0 -21 5 -43 12 -50 7 -7 10 -12 8 -13 -3 0 -15 -2 -27 -5 -12
-2 -25 1 -28 6 -3 6 -2 10 3 10 12 0 21 59 10 66 -13 9 -9 24 7 24 11 0 15
-11 15 -38z m455 27 c4 -6 -3 -13 -15 -16 -16 -4 -20 -12 -18 -32 2 -14 9 -26
16 -26 22 0 18 -20 -5 -23 -17 -3 -26 3 -33 22 -5 14 -7 33 -5 41 3 8 7 22 10
30 5 17 41 20 50 4z m135 -27 c0 -21 5 -43 12 -50 16 -16 -4 -36 -28 -28 -15
5 -19 16 -20 61 0 47 3 55 18 55 14 0 18 -8 18 -38z m1218 -14 c1 -24 -3 -50
-8 -58 -8 -13 -10 -13 -10 1 0 9 -9 19 -20 22 -11 3 -23 12 -26 21 -7 18 14
49 27 40 5 -3 12 2 15 10 10 26 21 9 22 -36z m-6000 10 c19 -19 14 -28 -18
-28 -41 0 -40 33 1 39 3 1 10 -4 17 -11z m630 3 c11 -6 9 -9 -7 -14 -11 -2
-28 1 -38 9 -17 12 -16 13 7 14 14 0 31 -4 38 -9z m2562 -46 c0 -42 -14 -62
-33 -47 -7 7 -16 10 -19 7 -3 -3 -13 4 -23 15 -20 22 -14 48 12 56 10 3 25 9
33 13 19 11 30 -5 30 -44z m-1820 -43 c8 -4 15 -14 15 -22 0 -8 10 -19 23 -25
27 -12 29 -25 2 -18 -15 4 -20 0 -20 -16 0 -11 -4 -21 -10 -21 -5 0 -10 -7
-10 -16 0 -11 -5 -14 -16 -10 -9 3 -29 6 -45 6 -22 0 -29 5 -29 20 0 11 -5 19
-11 18 -6 -2 -13 11 -15 29 -3 29 -1 33 39 46 48 17 56 18 77 9z m80 -44 c0
-17 -3 -18 -15 -8 -8 7 -15 19 -15 26 0 8 6 11 15 8 8 -4 15 -15 15 -26z m230
-33 c0 -2 -7 -5 -15 -9 -9 -3 -15 0 -15 9 0 9 6 12 15 9 8 -4 15 -7 15 -9z
m2661 -45 c14 0 11 -28 -3 -33 -10 -4 -10 -7 0 -18 15 -16 16 -63 0 -88 -11
-18 -12 -18 -30 4 -22 28 -23 35 -2 35 11 0 14 5 9 18 -16 38 -17 52 -4 82 9
20 15 25 17 15 2 -8 8 -15 13 -15z m59 -10 c-12 -30 -10 -97 5 -132 4 -10 3
-18 -3 -18 -14 0 -32 55 -32 97 0 35 27 99 37 89 3 -3 0 -19 -7 -36z m534 8
c19 -27 21 -116 4 -153 -6 -14 -20 -25 -31 -25 -16 0 -18 4 -12 28 4 15 8 47
8 72 0 25 -4 57 -8 73 -9 34 16 38 39 5z m482 12 c8 -8 19 -7 37 1 21 10 29 9
43 -5 9 -10 28 -25 41 -33 18 -12 23 -22 19 -39 -7 -25 8 -74 23 -74 5 0 9 16
9 35 0 20 5 42 12 50 16 20 109 38 125 25 13 -11 72 -9 90 2 10 6 58 11 82 9
6 -1 15 -11 19 -23 6 -21 7 -21 20 -3 12 16 22 17 86 11 40 -5 111 -10 158
-12 105 -6 122 -18 118 -83 -2 -33 -7 -46 -18 -46 -8 0 -19 -3 -25 -6 -19 -11
-186 -10 -200 1 -9 7 -16 6 -25 -5 -16 -19 -72 -19 -125 0 -34 12 -43 12 -73
-2 -31 -15 -36 -15 -60 -1 -27 16 -64 17 -115 3 -19 -5 -33 -3 -45 8 -27 24
-62 31 -62 13 0 -10 -6 -13 -15 -9 -9 3 -23 -1 -33 -9 -19 -17 -117 -19 -141
-4 -17 11 -41 13 -189 18 -121 3 -131 8 -132 58 0 14 -3 34 -6 45 -3 11 2 29
10 40 14 20 15 20 40 -4 19 -18 29 -22 37 -14 7 7 34 9 70 6 39 -4 64 -2 74 7
9 8 27 10 50 6 26 -5 35 -3 35 7 0 31 44 49 66 27z m-1892 -15 c3 -8 1 -15 -4
-15 -6 0 -10 7 -10 15 0 8 2 15 4 15 2 0 6 -7 10 -15z m973 -30 c11 -9 13 -22
8 -58 -4 -26 -12 -47 -17 -47 -7 0 -8 15 -4 40 4 24 2 40 -4 40 -5 0 -13 -18
-16 -40 -4 -22 -10 -40 -15 -40 -11 0 -11 4 2 76 13 68 22 88 27 59 3 -11 11
-24 19 -30z m246 2 c-6 -31 -6 -32 14 -14 28 24 53 12 53 -25 0 -22 -6 -31
-22 -36 -21 -5 -21 -6 -2 -12 28 -11 34 -3 34 41 0 21 3 39 8 40 4 0 17 2 28
5 12 2 28 -4 35 -12 11 -14 10 -19 -8 -34 -12 -9 -23 -30 -25 -46 -2 -23 -7
-28 -23 -26 -11 2 -35 3 -53 3 -21 -1 -35 5 -38 14 -6 14 -8 14 -18 -1 -18
-25 -60 -14 -65 16 l-4 25 -6 -25 c-5 -18 -14 -25 -31 -25 -21 0 -26 6 -28 31
-2 24 2 33 20 42 18 8 19 11 6 11 -23 1 -23 20 -1 28 10 4 22 -1 32 -13 16
-19 17 -19 50 18 39 43 53 41 44 -5z m2264 22 c9 -9 20 -9 43 1 28 12 33 11
55 -10 13 -12 26 -33 29 -46 4 -13 14 -24 22 -24 15 0 15 2 0 25 -13 20 -14
25 -2 25 30 0 50 -52 50 -132 1 -65 -2 -81 -20 -98 -17 -18 -28 -20 -76 -14
-45 5 -58 11 -69 30 -9 18 -18 22 -35 18 -34 -9 -45 29 -41 131 5 101 15 123
44 94z m-3562 -9 c3 -5 1 -10 -4 -10 -6 0 -11 5 -11 10 0 6 2 10 4 10 3 0 8
-4 11 -10z m3366 -16 c20 -22 24 -38 27 -103 4 -72 2 -80 -19 -94 -12 -9 -27
-13 -33 -10 -6 4 -74 8 -151 8 -78 1 -146 5 -154 9 -7 4 -28 5 -47 1 -60 -11
-91 2 -105 42 -10 31 -9 39 8 61 13 18 29 26 49 27 22 0 30 5 32 21 6 41 36
57 89 49 68 -11 159 -10 218 2 28 6 53 11 56 12 3 0 16 -11 30 -25z m-2233
-32 c3 -27 0 -32 -17 -32 -12 0 -21 -4 -21 -10 0 -5 7 -10 15 -10 8 0 15 -4
15 -10 0 -5 -11 -10 -25 -10 -22 0 -25 4 -25 36 0 72 52 105 58 36z m430 -44
c21 -21 14 -48 -12 -48 -28 0 -42 26 -25 46 14 17 22 17 37 2z m1879 -20 c-3
-7 -5 -2 -5 12 0 14 2 19 5 13 2 -7 2 -19 0 -25z m-2546 -148 c5 0 9 -7 9 -15
0 -8 -4 -15 -10 -15 -5 0 -10 -7 -10 -15 0 -8 5 -15 10 -15 14 0 13 -43 -2
-75 -14 -32 -20 -31 -36 2 -10 23 -10 29 3 36 13 7 13 11 0 38 -15 27 -14 32
2 60 13 21 19 26 21 15 2 -9 8 -16 13 -16z m63 3 c-5 -10 -9 -43 -9 -73 0 -30
4 -63 9 -72 5 -11 4 -18 -1 -18 -16 0 -33 48 -33 90 0 42 17 90 33 90 5 0 6
-7 1 -17z m-879 -41 c0 -23 -4 -42 -10 -42 -13 0 -25 45 -18 70 9 35 28 16 28
-28z m1105 27 c0 -5 -7 -9 -15 -9 -15 0 -20 12 -9 23 8 8 24 -1 24 -14z m466
-14 c7 -19 14 -50 14 -70 0 -32 2 -34 19 -23 17 10 24 9 41 -7 l22 -20 -3 42
c-2 23 0 45 4 49 4 4 74 6 155 4 277 -7 302 -6 326 24 19 22 28 25 79 24 52
-2 61 -5 79 -30 11 -16 25 -28 31 -27 47 6 59 -12 62 -86 3 -89 -30 -133 -77
-101 -12 9 -31 13 -45 10 -13 -4 -23 -2 -23 3 0 5 -16 7 -36 5 -20 -3 -46 0
-57 6 -34 16 -80 22 -241 27 -82 3 -156 9 -165 13 -9 5 -46 7 -83 6 -60 -2
-70 0 -83 19 -11 16 -15 17 -15 6 0 -24 -38 -55 -51 -42 -8 8 -8 25 2 62 10
41 10 58 1 84 -17 46 -15 57 9 57 13 0 25 -11 35 -35z m-566 5 c0 -11 3 -19 8
-19 27 4 32 -4 32 -51 0 -27 -4 -50 -10 -50 -5 0 -10 18 -10 40 0 22 -4 40
-10 40 -5 0 -10 -18 -10 -40 0 -22 -4 -40 -10 -40 -6 0 -10 30 -10 70 0 40 4
70 10 70 6 0 10 -9 10 -20z m170 -45 c0 -37 4 -65 10 -65 6 0 10 -5 10 -11 0
-6 -10 -9 -22 -7 -21 3 -23 9 -26 66 -2 34 -7 62 -12 62 -6 0 -10 5 -10 10 0
6 11 10 25 10 24 0 25 -2 25 -65z m98 -14 l3 -72 -33 3 c-28 3 -33 7 -36 32
-5 41 6 76 23 76 9 0 15 9 15 21 0 12 5 19 13 17 8 -3 13 -30 15 -77z m-307
33 c11 -14 10 -15 -7 -12 -29 5 -34 -51 -5 -59 24 -6 18 -23 -9 -23 -29 0 -43
73 -18 98 16 16 23 15 39 -4z m139 -39 c0 -25 5 -45 11 -45 5 0 7 -4 4 -10 -3
-5 -15 -10 -25 -10 -22 0 -39 22 -22 28 14 4 16 62 2 62 -5 0 -10 5 -10 10 0
6 9 10 20 10 17 0 20 -7 20 -45z m245 35 c4 -6 13 -5 25 2 14 9 22 9 33 0 11
-10 21 -10 41 -1 38 18 56 -2 56 -61 0 -25 -2 -49 -6 -52 -3 -3 -20 -2 -38 2
-18 4 -40 3 -49 -1 -24 -14 -46 0 -55 34 -12 46 -37 49 -29 3 5 -33 4 -36 -17
-36 -21 0 -23 4 -23 60 0 59 1 60 28 60 15 0 31 -4 34 -10z m-684 -241 c8 -60
-1 -130 -18 -136 -19 -8 -29 5 -15 19 15 15 16 134 2 143 -13 8 -2 27 13 22 7
-2 15 -23 18 -48z m-663 -16 c-5 -44 -28 -40 -28 5 0 21 3 42 7 46 11 11 25
-22 21 -51z m2 -252 c0 -16 -3 -36 -6 -45 -12 -31 -24 -16 -24 29 0 33 4 45
15 45 10 0 15 -10 15 -29z m802 -49 c-18 -6 -15 -62 3 -62 8 0 15 -4 15 -10 0
-17 -38 -11 -44 8 -9 29 -10 87 -2 101 6 9 12 7 24 -10 11 -16 12 -24 4 -27z
m-124 8 c3 -18 0 -21 -13 -16 -15 5 -17 2 -12 -29 5 -28 3 -35 -11 -35 -14 0
-17 10 -17 53 -1 50 0 52 25 51 18 0 26 -7 28 -24z m492 15 c0 -9 7 -18 15
-21 8 -4 15 -13 15 -22 0 -13 3 -13 19 2 25 23 55 17 59 -12 4 -29 23 -29 19
0 -3 28 31 37 49 14 10 -15 15 -13 44 14 38 35 50 38 50 10 0 -15 7 -20 28
-21 149 -5 165 -7 173 -20 5 -8 6 -21 3 -29 -4 -8 -6 -22 -5 -30 9 -73 -7
-107 -41 -89 -19 10 -21 37 -7 89 2 8 -3 15 -11 15 -10 0 -16 -12 -18 -32 l-3
-32 -57 3 c-31 2 -59 5 -62 6 -7 3 -79 9 -119 9 -18 0 -39 5 -46 11 -9 8 -15
8 -20 0 -10 -15 -22 -12 -45 12 -18 19 -20 20 -20 4 0 -10 -6 -16 -12 -13 -8
2 -12 18 -11 38 l3 34 -13 -32 c-22 -57 -30 -50 -23 21 4 38 9 73 12 78 9 14
24 9 24 -7z m-430 -16 c13 -22 6 -54 -9 -44 -5 3 -12 1 -16 -5 -3 -5 1 -10 9
-10 9 0 16 -7 16 -15 0 -18 -21 -20 -38 -3 -13 13 -16 56 -6 82 9 22 31 20 44
-5z m121 -69 c5 0 9 15 9 34 0 19 5 38 10 41 6 4 10 -14 10 -48 0 -47 -2 -53
-20 -52 -11 1 -23 4 -26 8 -10 10 -15 70 -7 87 5 9 9 -1 11 -27 2 -24 7 -43
13 -43z m105 59 c1 -22 -8 -32 -16 -19 -5 8 -10 2 -14 -15 -4 -16 -2 -33 5
-41 9 -11 8 -14 -7 -14 -16 0 -19 8 -20 54 0 52 1 54 25 51 15 -1 26 -8 27
-16z m68 -5 c10 -25 7 -82 -4 -89 -6 -4 -10 12 -10 39 0 25 -4 46 -10 46 -5 0
-10 -18 -10 -40 0 -22 -4 -40 -10 -40 -5 0 -10 23 -10 50 0 46 2 50 24 50 13
0 27 -7 30 -16z m-4532 -36 c10 -10 17 -21 17 -25 -3 -18 2 -24 12 -17 14 8
60 14 154 18 39 2 85 7 102 11 26 6 34 4 39 -9 5 -13 16 -15 56 -11 27 2 52 6
57 9 14 9 75 -19 105 -47 35 -33 42 -81 15 -116 -16 -19 -20 -21 -25 -8 -5 15
-9 15 -45 0 -26 -10 -51 -13 -77 -8 -20 4 -64 9 -96 11 -33 2 -64 10 -68 17
-6 9 -10 9 -18 -3 -8 -13 -14 -13 -42 -1 -18 7 -51 15 -73 17 -25 2 -47 12
-57 25 -18 22 -43 17 -34 -7 10 -26 -29 -35 -72 -16 -47 21 -82 54 -64 60 18
6 15 23 -4 20 -11 -2 -18 5 -19 19 -1 16 3 20 17 18 10 -2 16 0 13 5 -7 11 53
58 73 56 9 0 24 -9 34 -18z m-1054 -100 c15 3 30 10 34 15 4 7 12 6 22 -2 9
-7 21 -9 28 -5 24 16 79 13 99 -4 24 -21 24 -37 0 -61 -15 -15 -28 -17 -70
-13 -28 2 -51 8 -51 12 0 4 -11 5 -23 3 -14 -3 -31 2 -40 11 -8 9 -20 16 -25
16 -14 0 -24 29 -15 43 5 8 9 7 11 -4 2 -12 10 -15 30 -11z m5066 -80 c-3 -11
0 -25 6 -33 10 -12 10 -18 0 -30 -7 -8 -10 -24 -7 -35 3 -10 -1 -25 -9 -31
-21 -17 -24 -9 -14 36 5 21 7 64 4 94 -4 52 -3 54 11 37 8 -11 12 -28 9 -38z
m-540 26 c3 -8 2 -12 -4 -9 -6 3 -10 10 -10 16 0 14 7 11 14 -7z m616 -14 c15
-35 9 -122 -10 -145 -21 -26 -30 -6 -13 32 14 35 13 65 -3 121 -10 33 12 27
26 -8z m66 -66 c-5 -13 -10 -14 -18 -6 -6 6 -8 18 -4 28 5 13 10 14 18 6 6 -6
8 -18 4 -28z m4 -53 c0 -26 -10 -51 -21 -51 -5 0 -9 16 -9 35 0 24 5 35 15 35
8 0 15 -9 15 -19z m-670 -131 c0 -5 -4 -10 -10 -10 -5 0 -10 5 -10 10 0 6 5
10 10 10 6 0 10 -4 10 -10z m540 -62 c0 -5 -7 -16 -15 -24 -9 -10 -13 -24 -9
-40 5 -18 2 -24 -10 -24 -13 0 -16 11 -16 54 0 51 1 53 25 48 14 -2 25 -9 25
-14z m128 5 c12 -12 13 -18 4 -21 -14 -4 -17 -62 -2 -62 6 0 10 -7 10 -16 0
-9 -7 -14 -17 -12 -14 2 -20 17 -25 58 -8 72 -1 85 30 53z m-60 -31 c2 -24 -1
-32 -12 -32 -9 0 -16 -4 -16 -10 0 -5 3 -9 8 -7 4 1 8 -2 10 -8 1 -5 -5 -10
-15 -10 -23 0 -36 45 -23 79 14 38 44 31 48 -12z m114 -27 l4 -40 11 45 11 45
1 -53 c1 -50 0 -53 -21 -50 -20 3 -23 10 -26 58 -4 64 15 59 20 -5z m340 35
c9 -13 24 -20 45 -20 18 0 33 -5 33 -11 0 -8 5 -8 15 1 8 7 22 9 32 5 10 -4
42 -8 72 -9 47 -1 54 2 62 22 5 12 13 22 18 22 14 0 23 -18 15 -31 -9 -15 -10
-99 -1 -99 39 0 42 1 29 9 -8 5 -12 21 -10 37 3 32 38 45 64 24 11 -10 17 -10
28 -1 24 20 56 -4 56 -39 0 -23 4 -30 20 -30 11 0 23 -7 26 -15 12 -31 27 -14
21 25 -7 54 12 64 90 50 32 -6 64 -10 71 -10 6 0 22 0 35 0 82 -3 101 1 114
20 8 11 19 20 25 20 18 0 48 -32 48 -51 0 -15 9 -17 83 -12 63 4 86 9 100 24
26 28 65 25 73 -5 3 -13 1 -33 -5 -44 -14 -26 -14 -69 -1 -77 6 -4 10 11 10
37 0 74 47 115 117 102 23 -4 38 -15 49 -35 11 -22 22 -29 44 -29 16 0 32 -5
35 -10 12 -19 13 -134 2 -157 -14 -31 -52 -40 -77 -18 -11 10 -26 15 -36 11
-9 -3 -23 -1 -31 6 -8 6 -48 12 -89 13 -41 1 -80 7 -87 14 -6 6 -25 11 -42 11
-17 0 -36 5 -42 11 -6 6 -40 11 -77 11 -40 1 -71 6 -77 14 -8 10 -16 10 -34 2
-13 -6 -32 -7 -42 -3 -10 4 -49 9 -87 11 -44 3 -76 10 -87 20 -11 10 -19 12
-24 5 -10 -17 -46 -13 -61 7 -8 10 -13 12 -14 5 0 -15 -36 -17 -45 -3 -3 6
-17 7 -31 4 -13 -3 -32 -3 -41 1 -10 4 -52 9 -93 10 -41 2 -97 8 -123 13 -27
5 -57 7 -68 5 -13 -4 -21 2 -28 18 -4 13 -6 29 -4 35 5 15 -24 26 -33 13 -3
-6 -3 -21 0 -35 6 -22 4 -25 -16 -22 -17 2 -22 9 -20 23 2 11 6 34 8 50 5 30
5 30 -13 9 -10 -12 -26 -24 -35 -27 -10 -4 -18 -16 -18 -27 0 -11 -5 -20 -11
-20 -11 0 -7 56 8 118 7 28 38 29 55 2z m-234 -14 c3 -14 0 -17 -13 -12 -16 6
-17 1 -12 -34 4 -33 2 -40 -11 -40 -14 0 -17 10 -17 54 0 52 1 54 25 53 15 -2
26 -10 28 -21z m70 -43 c2 -32 -1 -53 -7 -53 -6 0 -11 20 -11 45 0 25 -4 45
-10 45 -5 0 -10 -18 -10 -40 0 -22 -4 -40 -10 -40 -5 0 -10 23 -10 51 0 49 1
50 28 47 25 -3 27 -7 30 -55z m-506 -152 c5 -97 -6 -150 -32 -151 -4 0 -4 185
-1 197 1 1 8 0 16 -3 9 -4 16 -21 17 -43z m73 -61 c0 -39 -5 -64 -15 -74 -13
-14 -15 -6 -15 74 0 79 2 88 15 74 10 -10 15 -35 15 -74z m63 8 c-4 -27 -23
-34 -32 -13 -8 21 1 35 20 35 10 0 14 -8 12 -22z m-2 -53 c4 -8 3 -26 0 -40
-8 -32 -36 -33 -36 -1 0 48 23 75 36 41z m-2618 -30 c78 -6 119 -27 137 -68
l14 -32 1 35 c0 37 15 32 24 -10 8 -32 -9 -62 -23 -41 -6 9 -14 10 -22 5 -39
-25 -82 -32 -137 -23 -31 5 -72 11 -90 13 -42 6 -96 37 -100 60 -6 31 8 68 23
62 8 -3 17 0 21 5 4 7 23 8 48 5 22 -3 69 -8 104 -11z m-428 -32 c0 -21 -3
-24 -9 -14 -5 8 -7 20 -4 28 8 21 13 15 13 -14z m727 -4 c8 -8 17 -8 31 0 25
13 73 14 104 2 25 -10 88 -27 128 -35 30 -6 54 -53 44 -90 -8 -33 -75 -65
-124 -59 -19 2 -57 5 -83 7 -26 2 -60 12 -75 22 -15 10 -29 18 -32 18 -3 -1
-17 -4 -32 -8 -22 -5 -29 -1 -47 30 -25 41 -27 77 -6 94 12 10 18 10 29 1 12
-10 17 -8 26 8 12 24 21 26 37 10z m2048 -60 c11 -34 8 -135 -4 -158 -7 -11
-17 -21 -24 -21 -9 0 -12 27 -12 100 0 87 2 100 17 100 9 0 20 -9 23 -21z
m-259 -54 c4 -8 3 -23 -1 -32 -7 -17 -8 -16 -15 2 -5 11 -9 26 -9 33 -1 17 18
15 25 -3z m-6 -225 c0 -5 -4 -10 -10 -10 -5 0 -10 5 -10 10 0 6 5 10 10 10 6
0 10 -4 10 -10z m-4 -285 c-2 -7 0 -17 6 -23 7 -7 7 -16 0 -27 -8 -15 -10 -14
-16 9 -3 14 -11 26 -16 26 -6 0 -10 7 -10 16 0 8 5 12 10 9 6 -3 10 -1 10 5 0
6 5 8 11 5 6 -4 8 -13 5 -20z m268 -22 c-13 -73 -34 -91 -42 -36 -5 43 6 73
29 73 18 0 19 -4 13 -37z m336 -18 c0 -8 -4 -15 -10 -15 -5 0 -10 7 -10 15 0
8 5 15 10 15 6 0 10 -7 10 -15z m-297 -30 c4 -18 5 -17 6 3 1 14 6 22 14 19 6
-2 20 0 30 5 10 5 27 6 37 3 16 -5 20 -15 20 -50 0 -56 -17 -67 -26 -18 -8 38
-8 38 -13 9 -5 -24 -12 -29 -40 -32 -41 -5 -51 7 -51 61 0 39 13 40 23 0z
m237 -6 c0 -4 -4 -11 -10 -14 -15 -9 -12 -36 7 -57 15 -17 15 -18 -5 -18 -23
0 -30 16 -34 70 -3 49 10 69 29 45 7 -11 13 -22 13 -26z m-74 20 c4 -7 -1 -16
-10 -21 -22 -12 -20 -35 4 -50 27 -17 25 -28 -4 -28 -26 0 -36 16 -36 59 0 40
30 66 46 40z m132 -55 c2 -21 8 -44 13 -50 12 -14 2 -23 -19 -17 -13 3 -17 16
-18 59 0 63 19 70 24 8z m81 22 c19 -23 10 -90 -13 -94 -10 -2 -22 2 -27 10
-13 19 -11 72 3 86 16 16 23 15 37 -2z m79 -58 c2 -29 -1 -48 -7 -48 -6 0 -11
18 -11 40 0 22 -4 40 -10 40 -5 0 -10 -18 -10 -41 0 -22 -3 -38 -8 -35 -4 2
-6 25 -4 51 4 41 7 46 26 43 18 -3 21 -11 24 -50z m273 9 c15 -4 19 -14 19
-51 0 -33 -5 -48 -16 -53 -25 -9 -35 11 -36 73 0 68 3 89 9 58 2 -12 13 -24
24 -27z m-124 -5 c10 -25 11 -25 12 -4 1 18 7 22 31 22 l30 0 -2 -57 -1 -58
-7 50 -7 50 -1 -42 c-1 -24 -6 -43 -12 -43 -5 0 -11 19 -12 43 l-1 42 -7 -45
c-4 -27 -8 -35 -8 -19 -2 21 -7 27 -27 27 -14 0 -25 -4 -25 -9 0 -5 7 -9 15
-9 8 0 15 -7 15 -15 0 -8 -6 -15 -13 -15 -23 0 -37 23 -37 60 0 62 36 75 57
22z m293 -47 c0 -72 -1 -75 -24 -75 -27 0 -36 16 -36 67 0 26 5 36 20 40 11 3
20 14 20 24 0 11 5 19 10 19 6 0 10 -32 10 -75z m76 43 c4 -6 2 -14 -4 -16
-15 -5 -16 -88 -2 -97 6 -4 10 12 10 39 0 46 0 46 34 46 19 0 37 -4 40 -9 3
-5 15 -7 26 -4 12 3 29 -2 39 -11 14 -13 21 -14 26 -5 8 12 106 6 129 -8 6 -4
30 -7 54 -8 37 0 46 3 53 22 6 16 17 23 35 23 24 0 26 -3 20 -27 -16 -62 -18
-84 -12 -108 8 -33 26 -23 26 14 0 40 32 66 67 55 27 -7 83 -14 133 -15 14 -1
33 -5 43 -11 10 -5 32 -11 48 -13 22 -3 29 0 29 13 0 23 19 42 42 42 61 0 63
-200 2 -224 -26 -10 -47 14 -40 46 5 27 5 27 -14 8 -23 -23 -36 -25 -46 -9 -4
6 -20 8 -40 5 -26 -5 -38 -2 -55 15 -15 15 -24 18 -27 11 -5 -15 -48 -16 -57
-2 -9 15 -23 12 -46 -11 -18 -18 -25 -20 -40 -10 -10 6 -25 11 -32 11 -8 0
-20 11 -27 24 -10 20 -18 24 -41 19 -16 -3 -35 0 -43 7 -9 6 -24 9 -36 5 -12
-4 -27 -2 -35 5 -10 9 -15 7 -20 -9 -8 -28 -60 -29 -74 -2 -6 10 -8 21 -5 23
2 3 -17 9 -43 12 -26 4 -59 10 -73 12 -22 5 -56 10 -85 13 -6 0 -10 32 -10 71
0 65 1 70 22 70 12 0 25 -5 29 -12z m-158 -10 c20 -20 15 -58 -8 -58 -11 0
-20 -5 -20 -10 0 -6 6 -10 14 -8 8 2 16 -1 18 -7 2 -5 -7 -11 -19 -13 -17 -3
-24 3 -30 25 -16 62 11 105 45 71z m-4498 -127 c-14 -28 -60 -29 -60 -1 0 14
10 22 33 28 36 10 43 3 27 -27z m5696 27 c5 -7 7 -60 4 -118 l-5 -105 -30 0
c-23 0 -33 7 -44 30 -19 40 -17 149 3 181 18 26 57 32 72 12z m-5836 -14 c0
-8 -19 -13 -24 -6 -3 5 1 9 9 9 8 0 15 -2 15 -3z m31 -64 c18 34 19 34 25 12
5 -17 12 -22 25 -19 15 4 19 0 19 -18 0 -28 24 -55 50 -55 10 0 22 -4 25 -10
3 -5 19 -10 35 -10 24 0 31 -5 36 -27 4 -16 18 -41 31 -56 24 -29 31 -81 13
-92 -12 -7 -4 -25 11 -25 6 0 7 4 4 10 -3 5 0 7 9 4 19 -7 26 -28 15 -45 -7
-11 -9 -11 -9 4 0 9 -4 17 -10 17 -14 0 -13 -23 2 -38 20 -20 -19 -50 -87 -67
-33 -9 -63 -21 -67 -28 -6 -9 -8 -9 -8 1 0 7 -16 20 -35 29 -19 9 -35 23 -35
30 0 7 -9 13 -20 13 -33 0 -27 53 8 71 15 8 31 20 35 26 4 7 15 13 22 13 9 0
15 10 15 24 0 34 -10 56 -26 56 -7 0 -17 6 -21 13 -13 21 -121 77 -137 71 -7
-3 -17 0 -21 5 -3 6 -11 8 -17 5 -6 -4 -5 3 2 15 9 19 14 20 26 10 13 -10 17
-10 25 2 5 8 9 22 9 32 0 9 5 17 10 17 6 0 11 15 12 33 1 24 2 21 6 -13 l4
-45 19 35z m3899 6 c0 -7 -4 -16 -9 -21 -5 -6 -11 -23 -13 -40 -2 -18 -9 -30
-18 -30 -19 0 -19 93 0 105 16 10 40 2 40 -14z m120 -1 c10 -12 10 -19 2 -27
-15 -15 -16 -55 -2 -63 15 -9 12 -25 -5 -25 -14 0 -19 12 -28 74 -8 51 8 71
33 41z m-54 -22 c5 -19 2 -30 -11 -40 -11 -7 -13 -13 -7 -13 7 0 12 -7 12 -15
0 -18 -21 -20 -38 -3 -13 13 -17 80 -5 91 16 17 43 6 49 -20z m104 -33 c0 -22
5 -40 10 -40 6 0 10 16 10 35 0 19 5 35 11 35 6 0 9 -19 7 -47 -2 -37 -7 -49
-22 -51 -10 -2 -22 2 -27 10 -12 18 -11 98 1 98 6 0 10 -18 10 -40z m108 7 c2
-11 -3 -17 -14 -17 -13 0 -16 -6 -11 -35 4 -26 2 -35 -9 -35 -10 0 -14 14 -14
55 0 51 1 55 23 51 12 -1 23 -10 25 -19z m70 -51 c2 -27 -1 -46 -7 -46 -6 0
-11 18 -11 40 0 22 -4 40 -10 40 -5 0 -10 -18 -10 -41 0 -24 -4 -38 -10 -34
-11 7 -14 64 -4 89 4 10 12 12 27 7 18 -7 23 -18 25 -55z m156 17 c9 -29 -9
-77 -32 -88 -12 -5 -22 -15 -22 -22 0 -7 -5 -13 -11 -13 -7 0 -9 9 -6 23 3 12
9 43 12 70 6 41 10 47 30 47 14 0 26 -7 29 -17z m79 -6 c-2 -4 -3 -14 -3 -22
0 -9 -6 -12 -15 -9 -15 6 -20 -9 -15 -49 1 -13 -4 -18 -17 -15 -10 2 -16 11
-14 19 2 8 6 31 9 51 3 33 7 36 30 35 15 -2 26 -6 25 -10z m65 -35 c3 -27 0
-32 -17 -32 -12 0 -21 -4 -21 -10 0 -5 7 -10 15 -10 8 0 15 -5 15 -11 0 -6
-10 -9 -22 -7 -18 2 -24 11 -26 35 -4 40 14 75 36 71 11 -2 18 -15 20 -36z
m43 -4 l1 -33 11 28 c6 15 17 27 24 27 17 0 17 -2 -9 -55 -12 -25 -27 -44 -33
-42 -14 5 -19 107 -6 107 6 0 11 -15 12 -32z m149 18 c0 -8 6 -16 13 -19 10
-4 10 -7 0 -18 -18 -18 -16 -58 2 -65 23 -9 18 -26 -7 -22 -19 2 -24 10 -26
43 -2 22 -7 44 -12 49 -5 5 -3 17 3 27 14 22 27 25 27 5z m60 3 c0 -7 11 -22
25 -35 21 -19 29 -22 44 -12 11 6 26 8 37 3 11 -4 33 -7 51 -6 21 2 35 -3 42
-16 9 -16 11 -14 21 15 7 17 19 32 27 32 12 0 13 -6 8 -22 -11 -29 -11 -107 0
-135 12 -36 -14 -28 -29 8 -10 25 -14 28 -20 14 -5 -13 -13 -15 -38 -9 -18 4
-48 8 -66 8 -18 1 -37 7 -41 14 -4 7 -15 10 -24 6 -14 -5 -17 1 -17 35 0 23
-4 41 -10 41 -5 0 -10 -18 -10 -40 0 -22 -4 -40 -10 -40 -6 0 -10 32 -10 75 0
43 4 75 10 75 6 0 10 -5 10 -11z m373 -54 c7 -20 7 -30 -1 -33 -7 -2 -9 -19
-6 -45 5 -37 2 -45 -24 -71 l-30 -28 -17 32 c-15 29 -15 34 -1 49 10 11 12 21
6 31 -16 25 -11 44 16 73 30 33 44 31 57 -8z m-496 -31 c8 -21 -13 -42 -28
-27 -13 13 -5 43 11 43 6 0 13 -7 17 -16z m-1190 -14 c-3 -10 -1 -20 5 -22 6
-2 6 -13 0 -28 l-10 -25 -5 25 c-8 41 -6 70 5 70 6 0 8 -9 5 -20z m2065 -90
c0 -90 -2 -105 -16 -108 -25 -5 -46 17 -46 47 0 14 -4 32 -9 39 -8 13 7 96 22
120 5 7 18 12 29 10 19 -3 21 -10 20 -108z m-167 50 c17 -33 13 -61 -10 -80
-11 -9 -18 -9 -30 3 -8 8 -32 18 -54 22 -36 6 -39 9 -38 38 2 34 0 33 104 45
7 1 20 -12 28 -28z m-1365 -11 c0 -5 -4 -9 -10 -9 -5 0 -10 7 -10 16 0 8 5 12
10 9 6 -3 10 -10 10 -16z m-3604 -66 c-8 -24 -15 -31 -28 -27 -11 3 -19 -2
-23 -17 -7 -22 -8 -22 -21 -4 -22 29 -17 64 13 89 25 22 29 23 48 8 18 -14 20
-20 11 -49z m3694 57 c0 -6 -7 -13 -15 -16 -12 -5 -13 -9 -4 -21 9 -10 9 -17
1 -25 -7 -7 -12 -25 -12 -40 0 -45 -19 -32 -22 15 -4 57 9 97 33 97 10 0 19
-5 19 -10z m124 -17 c-11 -23 -11 -110 0 -145 12 -40 -8 -36 -25 5 -17 39 -17
104 0 135 14 26 37 31 25 5z m-211 -60 c6 -56 2 -62 -29 -38 -13 10 -15 14 -5
15 10 0 12 10 8 39 -5 40 1 58 14 44 3 -5 9 -32 12 -60z m277 -9 c0 -27 -4
-43 -10 -39 -5 3 -10 24 -10 46 0 21 5 39 10 39 6 0 10 -21 10 -46z m200 7 c0
-10 9 -21 20 -24 17 -4 20 -14 20 -55 0 -56 -6 -64 -38 -55 -20 5 -22 12 -22
79 0 43 4 74 10 74 6 0 10 -8 10 -19z m-116 -6 c8 -8 17 -11 20 -7 3 5 19 7
36 4 30 -4 30 -5 30 -63 l0 -59 -27 11 c-16 6 -30 9 -33 7 -3 -2 -7 9 -10 23
-4 22 -9 25 -25 18 -17 -6 -17 -8 -2 -8 9 -1 17 -8 17 -17 0 -10 -7 -14 -22
-12 -29 4 -44 52 -29 91 12 31 23 34 45 12z m367 -33 c6 -15 11 -46 11 -70 0
-50 -27 -101 -45 -83 -8 8 -8 14 1 23 15 15 16 102 2 129 -12 21 -4 43 11 33
6 -3 15 -18 20 -32z m-61 -47 c0 -74 0 -75 -25 -75 -18 0 -28 7 -34 24 -9 22
-51 44 -51 25 0 -5 7 -9 15 -9 8 0 15 -7 15 -16 0 -31 -44 -12 -54 24 -18 64
32 113 56 55 9 -22 12 -24 15 -11 2 9 13 20 23 23 11 3 19 9 19 13 -2 15 1 22
11 22 6 0 10 -32 10 -75z m-4270 45 c0 -5 9 -10 20 -10 13 0 20 -7 20 -20 0
-11 7 -20 15 -20 8 0 15 -4 15 -10 0 -5 -5 -10 -12 -10 -6 0 -9 -2 -7 -5 3 -2
18 -1 35 4 21 6 40 2 69 -11 73 -35 90 -47 89 -61 -1 -9 5 -13 17 -10 11 3 21
-1 25 -11 4 -10 11 -13 18 -8 13 9 67 9 83 -1 6 -4 13 -3 15 1 5 15 146 -5
172 -25 14 -10 26 -21 26 -25 0 -5 9 -17 21 -29 23 -23 22 -81 -3 -106 -15
-14 -75 -25 -155 -27 -24 0 -43 -5 -43 -9 0 -23 -36 3 -54 38 -20 37 -24 40
-69 43 -42 3 -47 1 -47 -17 0 -24 -10 -27 -28 -9 -7 7 -12 8 -12 2 0 -5 -24
-9 -53 -8 l-53 1 0 -48 c0 -27 3 -45 6 -39 3 5 10 -11 16 -35 8 -36 8 -45 -3
-45 -7 0 -22 -6 -33 -12 -15 -10 -22 -10 -32 0 -16 16 -55 16 -61 0 -3 -10 -7
-10 -18 -2 -8 6 -39 19 -69 29 -64 21 -108 42 -128 62 -8 7 -22 11 -32 8 -33
-10 -55 60 -27 84 10 8 17 7 25 -1 9 -9 12 -7 12 10 0 30 14 28 27 -5 l12 -28
-6 30 c-6 26 -4 28 9 17 13 -10 16 -9 21 7 6 23 0 31 -21 31 -7 0 -26 8 -40
19 -15 10 -41 22 -59 25 -17 4 -34 13 -36 20 -3 8 -22 16 -41 20 -20 4 -36 12
-36 18 0 6 3 8 7 5 4 -4 12 6 19 23 7 16 20 30 28 30 8 0 21 10 27 23 12 22
13 22 26 -10 7 -18 17 -33 22 -33 5 0 13 -9 16 -21 4 -11 13 -18 20 -15 18 6
50 -31 66 -76 7 -21 17 -38 21 -38 4 0 8 -10 8 -22 0 -17 3 -19 9 -10 4 8 11
13 15 12 4 -1 16 0 27 3 16 4 19 9 11 24 -12 22 -4 73 12 73 6 0 25 -4 42 -9
27 -8 33 -6 43 13 7 12 13 32 14 44 1 15 10 25 24 29 19 4 21 8 12 20 -7 7
-18 12 -25 9 -7 -3 -15 2 -18 10 -3 8 -11 14 -18 14 -7 0 -13 12 -14 28 0 15
-4 35 -8 45 -6 12 -4 17 8 17 9 0 16 -4 16 -10z m90 -19 c0 -11 -26 -22 -34
-14 -12 12 -5 23 14 23 11 0 20 -4 20 -9z m3786 -28 c-10 -10 -19 5 -10 18 6
11 8 11 12 0 2 -7 1 -15 -2 -18z m622 -30 c3 -18 0 -22 -14 -16 -15 5 -16 2
-11 -30 5 -31 3 -37 -11 -37 -15 0 -18 10 -18 55 0 54 1 56 26 53 17 -2 26
-10 28 -25z m80 -42 c-2 -9 -11 -15 -21 -15 -21 2 -22 -12 -2 -20 22 -8 18
-26 -5 -26 -38 0 -54 74 -23 105 16 16 18 16 35 -5 11 -13 17 -30 16 -39z m59
39 c8 -12 9 -21 3 -25 -17 -11 -12 -62 7 -69 15 -6 15 -9 3 -16 -27 -17 -47 7
-53 62 -2 29 -3 56 0 61 8 13 28 7 40 -13z m-1567 -27 c0 -43 -5 -41 -13 5 -4
18 -2 32 3 32 6 0 10 -16 10 -37z m1631 -24 c7 -23 7 -23 8 -1 1 13 7 22 17
22 12 0 14 -10 12 -47 -3 -44 -5 -48 -30 -51 -27 -3 -45 17 -42 48 1 8 2 26 3
38 1 30 23 24 32 -9z m374 7 c21 -21 57 -33 125 -41 14 -1 51 -6 83 -10 38 -4
63 -3 72 5 9 8 15 8 20 0 3 -6 11 -8 16 -5 5 4 9 -3 9 -14 0 -16 7 -19 33 -19
17 0 57 -4 87 -8 54 -9 55 -10 69 -53 l14 -45 26 30 c14 17 33 33 42 37 9 3
68 -4 130 -15 126 -23 130 -23 211 -13 56 8 57 7 70 -21 15 -34 28 -45 42 -36
6 3 26 5 46 4 19 -2 57 2 85 7 27 5 54 6 60 1 5 -4 46 -6 91 -4 70 4 83 2 98
-15 10 -11 24 -17 32 -14 15 6 54 -52 54 -80 0 -13 6 -18 23 -15 15 2 21 9 19
21 -2 9 1 17 7 17 12 0 25 -121 16 -151 -20 -67 -48 -82 -101 -54 -16 8 -37
15 -46 15 -11 0 -18 8 -18 20 0 22 -12 25 -38 11 -20 -10 -91 3 -134 25 -14 8
-42 14 -62 14 -20 0 -53 7 -74 16 -20 8 -65 18 -100 21 -34 3 -65 10 -68 14
-3 5 -21 9 -41 9 -20 0 -50 4 -67 9 -17 5 -60 15 -95 21 -35 6 -71 15 -80 20
-9 4 -50 13 -91 19 -124 19 -144 23 -156 32 -6 5 -22 9 -35 8 -27 -1 -95 12
-184 35 -33 8 -72 15 -86 16 -15 0 -32 6 -38 13 -6 8 -23 12 -42 9 -34 -5 -52
12 -43 41 3 11 0 17 -10 17 -8 0 -18 -9 -21 -20 -8 -25 -42 -26 -49 -2 -9 29
12 126 31 140 24 18 41 15 68 -12z m-187 -14 c22 -28 12 -110 -12 -94 -6 4
-20 7 -31 7 -15 0 -21 8 -25 34 -3 19 -11 36 -17 39 -13 4 -17 -7 -13 -45 1
-17 -4 -23 -18 -23 -17 0 -19 7 -20 56 l0 56 61 -7 c38 -4 67 -13 75 -23z
m-1280 -49 c2 -7 -3 -13 -12 -13 -21 0 -21 -46 -1 -54 21 -8 19 -26 -4 -26
-10 0 -22 7 -25 16 -8 21 -8 79 1 88 10 10 36 3 41 -11z m75 -26 c14 -42 1
-79 -26 -75 -18 2 -23 11 -25 42 -2 21 -1 45 2 53 9 23 38 11 49 -20z m71 -9
c9 -35 7 -76 -4 -83 -6 -4 -10 10 -10 34 0 22 -4 43 -10 46 -6 4 -10 -10 -10
-34 0 -23 -4 -41 -10 -41 -5 0 -10 23 -10 50 0 46 2 50 24 50 16 0 26 -7 30
-22z m128 -26 c-18 -6 -15 -59 4 -66 8 -3 13 -10 9 -15 -13 -22 -35 2 -35 39
0 22 -4 42 -10 45 -6 4 -5 13 2 25 12 18 12 18 27 -3 11 -15 12 -22 3 -25z
m-64 19 c3 -8 0 -11 -6 -7 -6 3 -13 2 -17 -4 -3 -5 -2 -10 4 -10 15 0 32 -36
25 -55 -8 -19 -45 -16 -52 4 -3 9 2 11 17 6 26 -8 27 3 1 30 -13 14 -18 28
-14 39 8 20 35 18 42 -3z m212 4 c0 -8 -4 -15 -10 -15 -5 0 -10 7 -10 15 0 8
5 15 10 15 6 0 10 -7 10 -15z m-2 -70 c2 -22 8 -45 13 -51 13 -15 3 -22 -26
-16 -24 4 -36 22 -15 22 6 0 10 13 10 29 0 17 -4 33 -10 36 -17 10 -11 27 8
23 12 -2 18 -15 20 -43z m94 12 c4 -7 8 -23 9 -37 0 -14 3 -19 6 -12 2 6 12
12 21 12 15 1 15 2 0 14 -24 18 -22 28 5 24 19 -3 23 -11 27 -55 5 -52 5 -53
-21 -53 -19 0 -29 6 -33 23 -7 21 -7 21 -16 2 -7 -16 -9 -10 -11 25 l-2 45 -4
-43 c-5 -51 -22 -46 -24 6 l-2 37 -7 -40 c-7 -38 -7 -37 -9 19 l-1 58 27 -7
c15 -3 31 -12 35 -18z m150 -42 c-2 -16 -10 -35 -18 -41 -13 -10 -13 -12 1
-18 19 -7 20 -55 0 -62 -28 -11 -42 14 -44 78 -1 65 8 80 44 76 16 -2 19 -9
17 -33z m68 -4 c16 -31 12 -51 -10 -51 -11 0 -20 -4 -20 -10 0 -5 7 -10 15
-10 8 0 15 -5 15 -11 0 -22 -45 -3 -54 23 -19 53 29 105 54 59z m64 3 c9 -3
16 -13 16 -21 0 -9 -6 -13 -15 -9 -8 3 -15 1 -15 -3 0 -5 7 -11 15 -15 17 -6
20 -51 5 -61 -15 -9 -50 4 -50 20 0 9 8 11 23 8 l22 -6 -22 25 c-39 42 -26 80
21 62z m319 -16 c12 -19 18 -21 28 -10 14 13 59 17 59 5 0 -5 -7 -27 -15 -50
-13 -38 -13 -48 1 -89 12 -35 13 -49 4 -58 -9 -8 -19 -3 -40 23 -28 32 -28 33
-39 12 -15 -28 -25 -26 -46 6 -14 21 -15 30 -6 45 8 13 8 24 1 38 -14 26 -13
47 6 75 20 31 27 31 47 3z m-1653 -23 c0 -14 0 -28 1 -32 0 -4 -4 -9 -9 -11
-5 -1 -9 13 -10 33 -1 19 3 35 8 35 6 0 10 -11 10 -25z m-2765 5 c3 -5 -1 -10
-10 -10 -9 0 -13 5 -10 10 3 6 8 10 10 10 2 0 7 -4 10 -10z m4263 -27 c5 -18
-20 -16 -44 2 -18 15 -18 15 10 13 16 -2 31 -9 34 -15z m310 -15 c-2 -25 -8
-33 -23 -33 -15 0 -21 8 -23 33 -3 29 -1 32 23 32 24 0 26 -3 23 -32z m86 17
c3 -8 3 -21 0 -29 -7 -18 163 -34 193 -17 23 11 63 4 63 -12 0 -7 4 -7 12 1
19 19 56 14 68 -8 6 -11 14 -43 17 -70 6 -55 27 -67 43 -25 16 42 46 49 131
30 112 -25 121 -25 157 -8 43 20 89 8 83 -23 -6 -30 -4 -106 4 -141 6 -26 3
-33 -15 -43 -19 -10 -29 -9 -59 8 -32 18 -38 19 -55 6 -26 -18 -32 -18 -54 6
-11 12 -46 28 -78 36 -32 9 -66 18 -74 21 -8 3 -27 5 -41 4 -15 -1 -34 5 -43
15 -16 15 -18 15 -35 0 -38 -35 -67 -2 -49 56 6 20 8 52 3 74 l-7 38 -18 -23
c-11 -16 -23 -22 -34 -18 -23 9 -40 -27 -26 -53 23 -43 -16 -86 -65 -74 -14 3
-32 19 -40 34 -13 24 -23 30 -69 35 -75 10 -91 22 -75 59 10 22 10 32 1 47 -9
14 -10 25 -2 39 6 11 8 20 4 20 -3 0 -1 7 6 15 7 8 20 15 30 15 10 0 20 -7 24
-15z m-4593 -35 c31 0 40 -66 12 -87 -14 -11 -14 -14 2 -30 18 -17 17 -18 -15
-27 -25 -7 -35 -7 -38 2 -2 7 -10 12 -18 12 -8 0 -13 6 -11 13 1 6 -5 11 -14
9 -10 -1 -19 7 -22 19 -5 18 -9 20 -20 11 -10 -9 -18 -9 -31 1 -23 17 -6 67
21 62 10 -1 23 1 28 5 15 12 48 19 70 14 11 -2 27 -4 36 -4z m4201 -5 c-3 -12
-43 -7 -57 7 -7 6 2 8 25 6 19 -2 34 -7 32 -13z m-4392 -5 c0 -5 -4 -10 -10
-10 -5 0 -10 5 -10 10 0 6 5 10 10 10 6 0 10 -4 10 -10z m3570 -65 c0 -9 -6
-12 -15 -9 -11 5 -15 -1 -15 -25 0 -21 5 -31 15 -31 8 0 15 -7 15 -15 0 -19
-14 -19 -34 1 -16 15 -22 75 -9 87 12 13 43 7 43 -8z m70 -14 c13 -24 13 -61
0 -81 -13 -20 -44 -1 -48 30 -9 57 25 93 48 51z m78 -59 c2 -36 0 -52 -7 -47
-6 3 -11 24 -11 46 0 21 -4 39 -10 39 -5 0 -10 -18 -10 -41 0 -24 -4 -38 -10
-34 -11 7 -14 78 -3 89 4 4 16 6 28 4 17 -3 20 -11 23 -56z m136 25 c8 -6 7
-10 -1 -14 -16 -6 -17 -55 -1 -71 6 -6 8 -15 5 -19 -4 -4 -14 0 -21 8 -18 19
-27 104 -12 119 8 8 12 7 15 -2 2 -7 9 -17 15 -21z m-66 4 c3 -10 0 -12 -12
-8 -20 8 -21 -6 -1 -23 22 -18 15 -55 -9 -55 -11 0 -21 6 -24 14 -3 10 0 12
12 8 20 -8 21 6 1 23 -16 13 -20 42 -8 54 11 10 36 3 41 -13z m210 -33 c17
-17 15 -29 -3 -22 -8 4 -15 2 -15 -4 0 -5 7 -12 15 -16 20 -7 19 -55 0 -62
-17 -7 -48 14 -40 27 3 4 12 6 20 2 8 -3 15 -1 15 5 0 5 -7 12 -15 16 -23 8
-19 66 5 66 3 0 11 -5 18 -12z m90 -36 c3 -17 0 -20 -14 -15 -15 5 -16 2 -11
-30 5 -30 3 -37 -11 -37 -14 0 -17 10 -17 55 0 53 1 55 25 52 17 -2 26 -11 28
-25z m72 -8 c0 -10 -6 -14 -15 -10 -11 4 -15 -2 -15 -23 0 -21 6 -30 21 -34
24 -7 16 -27 -10 -27 -27 0 -47 54 -33 85 13 28 52 35 52 9z m307 -11 c10 -20
10 -30 1 -40 -8 -10 -8 -17 0 -25 8 -8 13 -6 17 8 17 53 26 65 43 62 19 -5 19
-8 0 -55 -12 -32 -11 -37 13 -122 8 -28 -22 -22 -38 8 -21 36 -33 39 -40 11
-7 -27 -27 -25 -48 6 -12 19 -14 29 -5 39 9 11 9 22 -1 48 -10 29 -9 37 6 60
22 34 37 34 52 0z m1653 -34 c113 -16 116 -20 103 -109 -13 -81 -32 -117 -68
-126 -37 -9 -76 3 -69 21 8 19 -51 45 -120 54 -52 6 -53 8 -61 79 -3 22 0 35
10 39 10 3 13 13 9 29 -5 21 -3 24 22 25 16 0 38 4 49 8 11 5 25 5 30 1 6 -5
48 -14 95 -21z m-1804 0 c3 -5 -6 -9 -20 -9 -24 0 -41 12 -30 23 7 7 43 -3 50
-14z m1389 1 c3 -5 12 -7 20 -3 8 3 15 0 15 -6 0 -6 16 -11 35 -11 43 0 58
-24 45 -70 -12 -43 -28 -60 -55 -60 -27 0 -75 52 -75 80 0 10 -5 22 -10 25 -6
4 -8 10 -5 15 3 5 0 12 -6 16 -8 4 -7 9 2 15 18 11 26 11 34 -1z m-1386 -36
c2 -2 2 -7 -2 -10 -9 -10 -57 5 -57 17 0 10 48 4 59 -7z m-771 -79 c2 -33 8
-65 14 -72 15 -19 0 -30 -16 -12 -18 18 -29 152 -12 146 6 -2 12 -30 14 -62z
m156 -18 c8 -6 7 -10 -1 -14 -19 -7 -16 -60 4 -72 21 -11 11 -26 -12 -18 -8 4
-16 19 -16 37 -2 42 -3 47 -11 55 -4 4 -2 17 4 29 9 16 12 18 16 6 3 -8 10
-19 16 -23z m2811 11 c19 -13 35 -26 35 -29 0 -3 -11 -18 -25 -33 -28 -30 -69
-34 -102 -11 -20 14 -21 19 -11 43 26 60 47 66 103 30z m-2875 -9 c14 -26 6
-49 -17 -49 -17 -1 -17 -2 1 -15 23 -18 12 -34 -12 -19 -19 13 -26 45 -18 80
8 30 31 31 46 3z m230 -70 c0 -67 -1 -69 -25 -69 -27 0 -45 25 -45 63 0 27 48
89 62 81 4 -3 8 -36 8 -75z m148 23 c2 -7 -6 -12 -17 -12 -24 0 -28 -18 -6
-26 8 -4 15 -12 15 -20 0 -8 -7 -14 -15 -14 -9 0 -15 -9 -15 -25 0 -14 -4 -25
-10 -25 -11 0 -14 132 -4 143 8 8 47 -8 52 -21z m-90 -4 c18 -18 15 -97 -3
-104 -26 -10 -45 16 -45 61 0 55 19 72 48 43z m152 -37 c18 -34 12 -61 -12
-62 l-23 0 23 -9 c29 -12 28 -30 -2 -30 -51 0 -55 119 -4 120 4 0 12 -9 18
-19z m69 -3 c10 -16 10 -23 2 -26 -16 -5 -14 -59 4 -66 22 -8 19 -26 -4 -26
-25 0 -33 13 -42 70 -10 69 11 95 40 48z m131 -7 c0 -11 9 -23 20 -26 17 -5
20 -15 20 -67 0 -69 -21 -78 -31 -12 l-6 39 -2 -37 c-1 -36 -9 -46 -25 -31 -4
4 -19 7 -34 8 -33 0 -56 41 -46 80 8 32 30 42 55 26 17 -10 19 -8 19 14 0 16
6 25 15 25 8 0 15 -9 15 -19z m104 -59 c9 -14 -12 -35 -28 -29 -23 9 -20 37 3
37 11 0 22 -4 25 -8z m-829 -51 c3 -5 1 -12 -5 -16 -5 -3 -10 1 -10 9 0 18 6
21 15 7z"/>
<path d="M6021 7510 c0 -29 1 -32 10 -17 7 11 7 23 0 35 -9 14 -10 11 -10 -18z"/>
<path d="M5877 7495 c-4 -8 -2 -17 3 -20 6 -4 10 3 10 14 0 25 -6 27 -13 6z"/>
<path d="M6542 7010 c0 -14 2 -19 5 -12 2 6 2 18 0 25 -3 6 -5 1 -5 -13z"/>
<path d="M6230 6950 c0 -5 5 -10 10 -10 6 0 10 5 10 10 0 6 -4 10 -10 10 -5 0
-10 -4 -10 -10z"/>
<path d="M5450 5965 c-10 -13 -9 -15 9 -15 12 0 21 6 21 15 0 8 -4 15 -9 15
-5 0 -14 -7 -21 -15z"/>
<path d="M5870 6930 c0 -16 5 -30 10 -30 6 0 10 14 10 30 0 17 -4 30 -10 30
-5 0 -10 -13 -10 -30z"/>
<path d="M6612 6729 c2 -19 8 -33 13 -31 15 3 12 55 -3 60 -10 3 -13 -5 -10
-29z"/>
<path d="M6460 6730 c0 -5 5 -10 10 -10 6 0 10 5 10 10 0 6 -4 10 -10 10 -5 0
-10 -4 -10 -10z"/>
<path d="M6236 6713 c-11 -11 -6 -23 9 -23 8 0 15 4 15 9 0 13 -16 22 -24 14z"/>
<path d="M5800 6674 c0 -14 4 -23 10 -19 6 3 10 15 10 26 0 10 -4 19 -10 19
-5 0 -10 -12 -10 -26z"/>
<path d="M5940 6655 c0 -35 13 -47 23 -21 7 18 -3 56 -14 56 -5 0 -9 -16 -9
-35z"/>
<path d="M6886 6474 c-10 -26 -7 -44 8 -44 14 0 26 21 26 46 0 19 -26 18 -34
-2z"/>
<path d="M6235 6380 c-3 -5 -1 -10 4 -10 6 0 11 5 11 10 0 6 -2 10 -4 10 -3 0
-8 -4 -11 -10z"/>
<path d="M6300 5550 c0 -16 5 -30 10 -30 6 0 10 14 10 30 0 17 -4 30 -10 30
-5 0 -10 -13 -10 -30z"/>
<path d="M6150 5560 c0 -5 5 -10 10 -10 6 0 10 5 10 10 0 6 -4 10 -10 10 -5 0
-10 -4 -10 -10z"/>
<path d="M5867 5553 c-4 -3 -7 -17 -7 -30 0 -28 23 -27 28 1 4 20 -11 40 -21
29z"/>
<path d="M6240 5279 c0 -5 5 -7 10 -4 6 3 10 8 10 11 0 2 -4 4 -10 4 -5 0 -10
-5 -10 -11z"/>
<path d="M6092 5266 c-13 -31 -8 -46 9 -29 6 6 9 21 7 34 -4 24 -5 23 -16 -5z"/>
<path d="M6228 4985 c-3 -14 -1 -28 3 -31 5 -3 9 9 9 25 0 38 -6 40 -12 6z"/>
<path d="M6080 5000 c0 -5 5 -10 11 -10 5 0 7 5 4 10 -3 6 -8 10 -11 10 -2 0
-4 -4 -4 -10z"/>
<path d="M6150 4960 c0 -5 5 -10 10 -10 6 0 10 5 10 10 0 6 -4 10 -10 10 -5 0
-10 -4 -10 -10z"/>
<path d="M7268 4764 c-5 -4 -8 -21 -8 -38 0 -21 3 -27 11 -19 6 6 9 23 7 38
-2 15 -6 23 -10 19z"/>
<path d="M6652 4700 c0 -19 2 -27 5 -17 2 9 2 25 0 35 -3 9 -5 1 -5 -18z"/>
<path d="M5937 4723 c-11 -10 -8 -53 3 -53 6 0 10 14 10 30 0 31 -2 35 -13 23z"/>
<path d="M6652 4415 c0 -16 2 -22 5 -12 2 9 2 23 0 30 -3 6 -5 -1 -5 -18z"/>
<path d="M7094 4137 c-7 -20 1 -47 16 -47 12 0 13 30 0 50 -8 12 -10 12 -16
-3z"/>
<path d="M6782 4120 c0 -14 2 -19 5 -12 2 6 2 18 0 25 -3 6 -5 1 -5 -13z"/>
<path d="M6380 4130 c0 -11 2 -20 4 -20 2 0 6 9 9 20 3 11 1 20 -4 20 -5 0 -9
-9 -9 -20z"/>
<path d="M7430 3825 c0 -45 13 -61 23 -26 6 25 -3 71 -14 71 -5 0 -9 -20 -9
-45z"/>
<path d="M6452 3845 c0 -16 2 -22 5 -12 2 9 2 23 0 30 -3 6 -5 -1 -5 -18z"/>
<path d="M6460 3256 c0 -2 7 -7 16 -10 8 -3 12 -2 9 4 -6 10 -25 14 -25 6z"/>
<path d="M5930 3330 c0 -5 5 -10 11 -10 5 0 7 5 4 10 -3 6 -8 10 -11 10 -2 0
-4 -4 -4 -10z"/>
<path d="M1751 3214 c0 -11 3 -14 6 -6 3 7 2 16 -1 19 -3 4 -6 -2 -5 -13z"/>
<path d="M6237 2766 c-4 -10 -5 -21 -2 -24 9 -9 17 6 13 25 -3 17 -4 17 -11
-1z"/>
<path d="M6377 2716 c-4 -10 -5 -21 -2 -24 9 -9 17 6 13 25 -3 17 -4 17 -11
-1z"/>
<path d="M6500 2699 c0 -17 4 -28 10 -24 6 3 10 17 10 31 0 13 -4 24 -10 24
-5 0 -10 -14 -10 -31z"/>
<path d="M5850 1650 c0 -16 5 -30 10 -30 6 0 10 14 10 30 0 17 -4 30 -10 30
-5 0 -10 -13 -10 -30z"/>
<path d="M6217 1624 c-10 -11 -9 -52 2 -59 13 -8 24 32 14 50 -5 9 -12 12 -16
9z"/>
<path d="M6070 1640 c0 -5 5 -10 11 -10 5 0 7 5 4 10 -3 6 -8 10 -11 10 -2 0
-4 -4 -4 -10z"/>
<path d="M6360 1575 c0 -14 5 -25 10 -25 6 0 10 11 10 25 0 14 -4 25 -10 25
-5 0 -10 -11 -10 -25z"/>
<path d="M6568 1563 c7 -3 16 -2 19 1 4 3 -2 6 -13 5 -11 0 -14 -3 -6 -6z"/>
<path d="M6785 1490 c3 -5 8 -10 11 -10 2 0 4 5 4 10 0 6 -5 10 -11 10 -5 0
-7 -4 -4 -10z"/>
<path d="M6290 1610 c0 -5 5 -10 11 -10 5 0 7 5 4 10 -3 6 -8 10 -11 10 -2 0
-4 -4 -4 -10z"/>
<path d="M1691 1384 c-18 -21 -6 -30 14 -11 8 9 15 18 15 21 0 11 -15 5 -29
-10z"/>
<path d="M6076 1348 c-8 -32 -8 -38 3 -38 14 0 24 41 13 52 -6 6 -12 1 -16
-14z"/>
<path d="M6220 1330 c0 -5 5 -10 10 -10 6 0 10 5 10 10 0 6 -4 10 -10 10 -5 0
-10 -4 -10 -10z"/>
<path d="M6608 1223 c6 -2 18 -2 25 0 6 3 1 5 -13 5 -14 0 -19 -2 -12 -5z"/>
<path d="M6210 1036 c0 -14 5 -28 10 -31 6 -4 10 7 10 24 0 17 -4 31 -10 31
-5 0 -10 -11 -10 -24z"/>
<path d="M6360 1005 c0 -15 4 -24 10 -20 6 3 10 12 10 20 0 8 -4 17 -10 20 -6
4 -10 -5 -10 -20z"/>
<path d="M2140 1030 c0 -5 5 -10 11 -10 5 0 7 5 4 10 -3 6 -8 10 -11 10 -2 0
-4 -4 -4 -10z"/>
<path d="M5780 830 c0 -18 4 -29 10 -25 6 3 10 15 10 25 0 10 -4 22 -10 25 -6
4 -10 -7 -10 -25z"/>
<path d="M6285 721 c-3 -5 -1 -12 5 -16 5 -3 10 1 10 9 0 18 -6 21 -15 7z"/>
<path d="M6360 736 c0 -9 5 -16 10 -16 6 0 10 4 10 9 0 6 -4 13 -10 16 -5 3
-10 -1 -10 -9z"/>
<path d="M6355 660 c3 -5 11 -10 16 -10 6 0 7 5 4 10 -3 6 -11 10 -16 10 -6 0
-7 -4 -4 -10z"/>
<path d="M6855 670 c-3 -5 -1 -10 4 -10 6 0 11 5 11 10 0 6 -2 10 -4 10 -3 0
-8 -4 -11 -10z"/>
<path d="M5920 519 c0 -17 4 -28 10 -24 6 3 10 17 10 31 0 13 -4 24 -10 24 -5
0 -10 -14 -10 -31z"/>
<path d="M5920 260 c0 -5 5 -10 10 -10 6 0 10 5 10 10 0 6 -4 10 -10 10 -5 0
-10 -4 -10 -10z"/>
<path d="M6142 195 c0 -16 2 -22 5 -12 2 9 2 23 0 30 -3 6 -5 -1 -5 -18z"/>
<path d="M6210 186 c0 -14 5 -28 10 -31 6 -3 10 5 10 19 0 14 -4 28 -10 31 -6
3 -10 -5 -10 -19z"/>
<path d="M6360 170 c0 -5 5 -10 11 -10 5 0 7 5 4 10 -3 6 -8 10 -11 10 -2 0
-4 -4 -4 -10z"/>
<path d="M6522 110 c2 -14 10 -26 21 -28 13 -3 17 3 17 25 0 22 -5 29 -20 29
-16 0 -20 -6 -18 -26z"/>
<path d="M5945 7790 c-8 -13 4 -32 16 -25 12 8 12 35 0 35 -6 0 -13 -4 -16
-10z"/>
<path d="M6015 7740 c-3 -5 -1 -10 4 -10 6 0 11 5 11 10 0 6 -2 10 -4 10 -3 0
-8 -4 -11 -10z"/>
<path d="M7112 275 c-12 -25 -1 -42 18 -30 12 7 13 55 2 55 -5 0 -14 -11 -20
-25z"/>
<path d="M8117 100 c-16 -5 -35 -6 -42 -4 -18 7 -29 -14 -30 -58 l-1 -38 48 0
c43 0 48 2 49 23 1 12 2 37 4 55 1 17 2 32 1 31 0 0 -14 -5 -29 -9z"/>
</g>
</svg>
