<?xml version="1.0" standalone="no"?>
<!DOCTYPE svg PUBLIC "-//W3C//DTD SVG 20010904//EN"
 "http://www.w3.org/TR/2001/REC-SVG-20010904/DTD/svg10.dtd">
<svg version="1.0" xmlns="http://www.w3.org/2000/svg"
 width="1000.000000pt" height="1000.000000pt" viewBox="0 0 1000.000000 1000.000000"
 preserveAspectRatio="xMidYMid meet">

<g transform="translate(0.000000,1000.000000) scale(0.100000,-0.100000)"
fill="#000000" stroke="none">
<path d="M4445 7935 c-82 -13 -197 -38 -235 -53 -8 -3 -17 -6 -20 -7 -3 -1
-12 -4 -20 -8 -8 -3 -39 -13 -69 -23 -30 -9 -69 -25 -87 -36 -18 -11 -48 -20
-67 -21 -19 -1 -33 -5 -31 -8 4 -8 -109 -79 -125 -79 -6 0 -11 -4 -11 -10 0
-5 -5 -10 -10 -10 -6 0 -29 -14 -52 -30 -23 -17 -48 -28 -55 -26 -7 3 -15 0
-19 -6 -4 -7 -3 -8 4 -4 7 4 12 3 12 -2 0 -14 -49 -44 -60 -37 -6 3 -7 -1 -4
-9 4 -10 -1 -18 -12 -22 -11 -4 -34 -22 -51 -41 -18 -18 -36 -33 -40 -33 -13
0 -63 -47 -63 -59 0 -6 -4 -11 -9 -11 -11 0 -58 -47 -94 -94 -16 -20 -33 -33
-39 -30 -7 4 -8 2 -4 -4 4 -7 -4 -22 -18 -36 -14 -13 -26 -28 -26 -34 0 -6 -8
-17 -18 -24 -10 -7 -21 -20 -25 -28 -4 -8 -22 -36 -39 -62 -50 -71 -103 -161
-100 -170 1 -4 -5 -8 -14 -8 -8 0 -13 -4 -10 -9 11 -17 -5 -40 -22 -33 -14 5
-15 3 -4 -10 15 -19 5 -51 -14 -44 -8 3 -11 0 -7 -9 5 -14 -23 -119 -37 -140
-4 -5 -15 -44 -24 -85 -9 -41 -21 -84 -26 -95 -11 -25 -32 -180 -35 -255 -2
-30 -3 -55 -4 -55 -1 0 -3 -44 -4 -98 -1 -53 2 -97 6 -97 4 0 8 -35 8 -77 -1
-86 14 -214 29 -253 5 -14 11 -45 13 -70 1 -25 5 -50 9 -55 3 -6 9 -28 13 -50
4 -22 11 -44 15 -50 4 -5 13 -32 20 -60 7 -27 20 -68 30 -90 46 -106 52 -120
50 -124 -1 -2 2 -7 7 -10 16 -12 67 -121 66 -141 -1 -12 3 -18 9 -14 6 4 8 -1
3 -15 -5 -15 -3 -19 8 -16 17 7 39 -38 30 -62 -4 -10 -2 -14 4 -10 12 8 30
-18 58 -83 11 -25 28 -54 38 -65 10 -11 16 -28 13 -38 -2 -11 -2 -16 1 -13 7
6 83 -108 83 -124 0 -4 3 -10 8 -12 4 -1 14 -17 23 -35 13 -23 14 -34 5 -43
-8 -8 -7 -10 4 -6 21 8 53 -47 36 -64 -8 -8 -6 -9 9 -4 11 4 17 4 13 0 -3 -4
3 -17 14 -28 11 -11 18 -28 15 -39 -3 -10 0 -17 6 -16 15 3 97 -153 92 -176
-2 -10 1 -14 7 -11 7 5 9 -3 4 -22 -5 -20 -4 -25 3 -15 7 12 13 6 26 -25 10
-21 21 -47 26 -56 5 -10 5 -20 -1 -23 -6 -3 -10 -14 -10 -23 0 -14 2 -15 10
-2 5 8 11 12 13 10 7 -10 26 -107 33 -165 3 -33 11 -65 16 -72 5 -6 8 -31 8
-55 -1 -23 6 -86 14 -138 8 -52 13 -103 10 -112 -4 -13 -1 -16 9 -12 15 5 31
-21 21 -37 -3 -5 0 -9 7 -9 7 0 10 -3 6 -6 -3 -3 3 -16 14 -27 11 -12 30 -43
42 -69 12 -26 27 -46 32 -45 14 2 75 -55 75 -70 0 -10 174 -12 826 -13 454 0
830 -2 835 -6 5 -3 9 1 9 8 0 8 16 30 36 49 46 44 135 230 126 263 -2 4 2 14
9 22 6 8 9 23 6 34 -3 11 -2 22 2 25 4 2 13 50 21 107 7 57 16 108 20 113 4 6
10 36 14 68 3 32 22 98 41 147 19 49 35 94 35 100 0 5 3 10 8 10 4 0 15 23 25
50 10 28 22 50 27 50 6 0 10 5 10 10 0 12 84 186 98 203 6 7 26 44 46 82 46
91 71 127 80 118 4 -4 4 0 1 9 -6 16 1 31 89 193 56 103 147 285 178 355 14
30 33 73 43 95 10 22 19 42 20 45 11 44 49 157 55 165 4 6 15 44 24 85 9 41
21 84 26 95 12 29 30 154 37 262 3 52 10 96 15 99 11 7 10 112 -2 119 -5 3
-10 36 -10 72 0 73 -26 267 -39 298 -5 11 -17 54 -26 95 -10 41 -21 80 -25 85
-4 6 -15 37 -25 70 -9 33 -22 67 -29 75 -19 23 -38 89 -30 101 4 7 3 9 -4 6
-10 -7 -72 82 -72 103 0 6 -4 10 -10 10 -5 0 -10 6 -10 13 0 12 -70 113 -132
191 -52 65 -296 305 -343 336 -27 19 -75 51 -106 72 -58 39 -311 168 -339 172
-3 1 -25 8 -50 17 -107 37 -157 51 -248 70 -53 11 -117 24 -142 30 -77 16
-533 19 -635 4z m389 -192 c6 -14 9 -14 15 -4 10 16 67 11 64 -6 -2 -7 2 -13
7 -13 6 0 10 7 10 15 0 19 9 19 30 0 9 -8 32 -17 51 -20 26 -4 29 -3 14 4 -11
5 -18 10 -15 11 28 8 50 8 55 0 3 -6 19 -10 36 -10 16 0 29 -3 29 -7 0 -5 23
-9 52 -11 28 -1 56 -6 62 -11 6 -5 26 -12 44 -16 18 -3 30 -10 27 -15 -3 -5
10 -6 30 -3 24 4 35 2 35 -6 0 -7 4 -10 10 -6 5 3 18 -3 29 -14 11 -11 22 -17
25 -14 3 4 6 0 6 -8 0 -10 2 -11 8 -2 6 9 19 8 55 -4 26 -8 47 -19 47 -24 0
-5 7 -9 15 -9 8 0 15 -4 15 -8 0 -4 10 -8 22 -9 11 -1 25 -8 29 -15 5 -7 9 -9
9 -5 0 5 13 -1 29 -12 16 -12 33 -21 38 -21 14 0 44 -35 37 -43 -3 -3 2 -3 13
-1 12 4 42 -14 91 -55 39 -34 75 -61 79 -61 14 0 133 -132 127 -141 -3 -5 2
-6 10 -3 10 4 18 -1 22 -11 4 -9 20 -31 35 -48 16 -17 29 -40 29 -50 0 -10 4
-16 9 -12 12 7 54 -52 46 -65 -3 -5 -1 -10 5 -10 20 0 40 -28 33 -46 -4 -12
-3 -15 5 -10 7 4 14 -3 18 -19 3 -14 10 -25 16 -25 5 0 7 -4 4 -9 -3 -5 1 -12
10 -15 10 -4 14 -14 11 -26 -3 -11 -1 -18 4 -14 17 10 122 -237 122 -288 0
-16 3 -28 8 -28 4 0 13 -33 19 -72 7 -40 17 -83 22 -95 6 -11 7 -26 3 -32 -4
-7 -2 -18 5 -26 6 -7 11 -33 11 -57 0 -23 2 -100 5 -170 3 -71 2 -128 -3 -128
-4 0 -6 -22 -5 -50 2 -28 0 -50 -6 -50 -5 0 -7 -12 -4 -26 2 -14 0 -35 -6 -47
-5 -12 -15 -56 -22 -97 -7 -41 -18 -84 -25 -96 -8 -12 -17 -39 -21 -60 -11
-63 -45 -145 -56 -138 -6 4 -8 -1 -4 -12 8 -25 -27 -120 -43 -116 -7 1 -10 -2
-7 -7 10 -15 -5 -43 -20 -37 -8 3 -14 1 -14 -3 0 -5 5 -11 11 -13 9 -3 9 -9 1
-23 -6 -11 -25 -49 -42 -85 -41 -88 -90 -174 -101 -178 -5 -2 -7 -8 -4 -12 3
-5 -6 -27 -20 -49 -14 -23 -25 -43 -25 -46 0 -17 -88 -153 -95 -147 -5 4 -5 1
-1 -5 4 -7 -10 -43 -30 -80 -21 -38 -47 -86 -59 -108 -11 -22 -28 -51 -38 -65
-9 -14 -23 -46 -32 -70 -21 -61 -44 -110 -67 -143 -11 -15 -24 -43 -29 -62 -6
-22 -16 -35 -26 -35 -12 0 -14 -3 -6 -11 8 -8 7 -18 -3 -37 -8 -15 -14 -33
-14 -41 0 -8 -6 -11 -17 -6 -15 5 -16 4 -5 -6 18 -19 15 -46 -8 -52 -11 -3
-20 -11 -20 -19 0 -11 2 -11 9 1 7 10 10 10 16 1 4 -7 2 -16 -5 -20 -7 -5 -11
-19 -8 -34 3 -14 2 -26 -2 -26 -4 0 -12 -48 -19 -107 -7 -60 -16 -117 -21
-128 -4 -11 -14 -49 -20 -85 -14 -79 -36 -134 -50 -125 -5 3 -8 0 -5 -7 4 -10
-41 -13 -232 -13 l-238 1 228 -3 c146 -2 226 -7 222 -13 -4 -6 -269 -10 -734
-10 l-727 0 -34 35 c-19 19 -30 35 -24 35 5 0 1 6 -8 14 -16 12 -37 53 -44 86
-13 59 -24 142 -35 243 -6 64 -15 120 -20 123 -5 3 -9 15 -9 27 0 13 -7 50
-15 82 -13 52 -18 68 -30 95 -2 3 -6 16 -11 30 -4 13 -34 78 -66 144 -33 65
-57 125 -54 133 3 8 2 12 -2 9 -10 -6 -31 18 -50 54 -7 14 -26 48 -42 75 -16
28 -39 69 -50 93 -12 23 -25 42 -30 42 -6 0 -10 6 -10 13 0 7 -13 34 -29 58
-16 25 -35 62 -42 82 -7 21 -16 37 -21 37 -4 0 -18 22 -31 50 -17 35 -21 52
-13 60 8 8 7 10 -4 5 -11 -4 -26 14 -53 66 -21 39 -36 78 -33 86 3 8 2 12 -3
9 -8 -5 -100 172 -116 224 -1 3 -7 17 -13 31 -6 15 -14 43 -17 63 -4 20 -11
38 -15 41 -5 3 -6 14 -3 25 3 11 1 20 -4 20 -6 0 -15 33 -22 73 -22 137 -32
202 -42 287 -14 107 -5 435 11 455 6 8 10 24 9 37 -2 13 -1 28 3 33 3 6 9 33
13 60 4 28 13 64 20 80 8 17 21 55 29 85 9 30 23 71 32 90 48 103 72 149 96
187 16 23 28 46 28 51 0 6 3 12 8 14 4 2 21 23 37 48 17 24 95 111 174 192
117 121 148 147 165 143 14 -4 17 -3 8 2 -9 7 -4 17 18 38 16 16 30 23 30 17
0 -7 4 -12 9 -12 5 0 8 7 7 16 0 9 8 21 19 28 11 6 24 17 28 24 4 6 13 12 19
12 5 0 31 14 56 31 26 17 57 32 69 32 16 0 20 4 15 16 -5 13 -3 14 9 4 12 -10
17 -8 27 7 7 12 18 17 29 13 11 -4 14 -3 9 5 -6 11 5 15 30 11 4 0 11 5 15 13
8 11 10 11 18 0 6 -11 9 -9 13 5 4 13 21 24 54 33 27 7 64 19 82 28 26 11 35
12 47 2 12 -10 15 -10 15 3 0 15 77 37 150 41 19 1 42 5 50 9 9 4 41 6 73 4
31 -2 57 0 57 5 0 4 40 8 89 8 75 0 90 -3 95 -17z"/>
<path d="M4010 3085 c-7 -8 -16 -30 -20 -49 -15 -70 -54 -67 814 -66 426 0
781 2 789 5 36 15 49 98 17 115 -13 7 -270 10 -804 10 -666 -1 -786 -3 -796
-15z"/>
<path d="M4418 2943 c210 -2 554 -2 765 0 210 1 38 2 -383 2 -421 0 -593 -1
-382 -2z"/>
<path d="M4030 2887 c-32 -25 -48 -61 -38 -86 5 -14 7 -30 4 -37 -3 -7 9 -15
30 -18 19 -4 34 -11 34 -16 0 -6 279 -10 745 -10 695 0 746 1 766 18 33 27 51
70 44 103 -14 62 24 59 -810 59 -582 -1 -764 -3 -775 -13z"/>
<path d="M4038 2663 c-20 -5 -29 -25 -38 -85 -7 -49 -1 -58 37 -58 9 0 21 -8
28 -17 11 -15 17 -16 36 -5 18 9 200 13 751 15 822 2 761 -4 761 82 0 25 -5
51 -12 58 -9 9 -192 12 -779 13 -422 1 -774 0 -784 -3z"/>
<path d="M4085 2420 c-16 -11 -25 -20 -18 -20 9 0 8 -9 -2 -34 -13 -30 -12
-35 3 -48 54 -44 162 -65 162 -31 0 13 3 14 12 5 16 -16 1200 -17 1246 -1 34
12 62 47 62 79 0 12 -12 32 -26 45 l-27 25 -691 0 c-673 0 -692 -1 -721 -20z"/>
<path d="M4204 2186 c-11 -29 1 -61 24 -64 12 -2 22 -8 22 -15 0 -8 3 -8 12 1
9 9 148 12 564 12 552 0 553 0 568 21 11 17 12 25 3 40 -11 18 -36 19 -600 19
-500 0 -588 -2 -593 -14z"/>
</g>
</svg>
