<?xml version="1.0" standalone="no"?>
<!DOCTYPE svg PUBLIC "-//W3C//DTD SVG 20010904//EN"
 "http://www.w3.org/TR/2001/REC-SVG-20010904/DTD/svg10.dtd">
<svg version="1.0" xmlns="http://www.w3.org/2000/svg"
 width="800.000000pt" height="800.000000pt" viewBox="0 0 800.000000 800.000000"
 preserveAspectRatio="xMidYMid meet">

<g transform="translate(0.000000,800.000000) scale(0.100000,-0.100000)"
fill="#000000" stroke="none">
<path d="M4950 7335 c-68 -19 -96 -32 -153 -68 -112 -72 -225 -197 -291 -322
l-27 -49 -287 -2 c-158 0 -327 -6 -377 -13 -597 -77 -1088 -259 -1550 -572
-537 -364 -880 -828 -1024 -1383 -72 -275 -96 -484 -96 -836 0 -277 4 -320 45
-535 11 -55 26 -141 35 -192 17 -105 91 -317 158 -453 19 -40 108 -191 137
-235 79 -117 100 -151 100 -161 0 -6 -44 -23 -97 -38 -95 -26 -263 -99 -263
-114 0 -22 128 -265 169 -321 26 -36 58 -84 72 -106 47 -79 218 -282 302 -358
47 -43 116 -114 153 -158 181 -214 545 -474 846 -605 220 -96 305 -125 513
-173 275 -63 280 -63 520 -68 427 -9 729 30 954 124 48 19 131 46 186 58 189
43 403 128 610 242 218 120 529 311 627 385 189 143 366 323 552 562 173 221
234 336 290 537 19 68 46 165 61 214 50 173 67 301 68 525 1 116 -4 248 -11
305 -29 225 -84 558 -111 680 -47 207 -56 284 -37 328 15 37 15 37 -10 37 -14
0 -76 -20 -137 -44 -160 -62 -248 -90 -257 -80 -4 5 -20 83 -35 174 -56 341
-103 521 -192 728 -162 380 -449 817 -674 1027 -268 250 -697 458 -1017 495
-47 5 -87 12 -89 14 -10 9 108 155 183 226 110 104 157 124 311 128 l121 4
-34 30 c-19 17 -33 37 -30 44 3 8 -3 18 -14 24 -26 14 -145 11 -200 -5z m60
-35 c-20 -13 -33 -13 -25 0 3 6 14 10 23 10 15 0 15 -2 2 -10z m-58 -22 c-6
-6 -16 -7 -22 -3 -9 6 -9 9 1 16 17 10 34 0 21 -13z m128 13 c0 -8 -47 -21
-78 -21 -26 0 0 18 33 23 17 2 33 5 38 6 4 0 7 -3 7 -8z m-165 -20 c3 -5 1
-12 -4 -15 -5 -3 -11 1 -15 9 -6 16 9 21 19 6z m-35 -17 c0 -8 -4 -12 -10 -9
-5 3 -10 10 -10 16 0 5 5 9 10 9 6 0 10 -7 10 -16z m-75 -34 c-3 -5 -12 -10
-18 -10 -7 0 -6 4 3 10 19 12 23 12 15 0z m65 0 c0 -5 -5 -10 -11 -10 -5 0 -7
5 -4 10 3 6 8 10 11 10 2 0 4 -4 4 -10z m-30 -14 c0 -3 -4 -8 -10 -11 -5 -3
-10 -1 -10 4 0 6 5 11 10 11 6 0 10 -2 10 -4z m-70 -20 c0 -3 -4 -8 -10 -11
-5 -3 -10 -1 -10 4 0 6 5 11 10 11 6 0 10 -2 10 -4z m30 -15 c0 -6 -4 -13 -10
-16 -5 -3 -10 1 -10 9 0 9 5 16 10 16 6 0 10 -4 10 -9z m-63 -63 c-3 -8 -6 -5
-6 6 -1 11 2 17 5 13 3 -3 4 -12 1 -19z m-67 -45 c0 -13 -2 -13 -16 -2 -15 12
-16 11 -10 -9 4 -12 3 -22 -2 -22 -18 0 -20 24 -4 42 16 19 32 15 32 -9z m40
12 c-7 -8 -17 -12 -22 -9 -6 4 -5 10 3 15 22 14 33 10 19 -6z m-90 -57 c0 -16
-3 -19 -11 -11 -6 6 -8 16 -5 22 11 17 16 13 16 -11z m-30 -48 c0 -5 -4 -10
-10 -10 -5 0 -10 5 -10 10 0 6 5 10 10 10 6 0 10 -4 10 -10z m-38 -42 c-7 -7
-12 -8 -12 -2 0 14 12 26 19 19 2 -3 -1 -11 -7 -17z m-172 -83 c8 -5 7 -12 -4
-24 -13 -14 -25 -16 -59 -11 -58 9 -94 29 -76 42 15 10 120 5 139 -7z m238
-17 c10 -10 15 -10 22 2 5 8 10 10 10 5 0 -19 -23 -35 -52 -35 -15 0 -28 -5
-28 -12 0 -6 -2 -9 -5 -6 -9 8 17 58 30 58 6 0 17 -6 23 -12z m-114 -20 c-8
-27 -12 -33 -19 -27 -7 8 7 49 17 49 5 0 6 -10 2 -22z m251 16 c12 -5 14 -9 4
-14 -14 -9 -39 -2 -39 11 0 11 12 11 35 3z m-920 -17 c35 -2 40 -5 40 -26 0
-18 -7 -26 -27 -32 -34 -9 -36 3 -5 25 12 9 15 14 7 10 -8 -4 -23 -14 -33 -22
-14 -12 -22 -13 -43 -3 -14 6 -30 9 -35 5 -6 -3 -15 -1 -22 5 -8 6 -18 6 -27
1 -29 -18 -43 -10 -19 10 13 12 2 7 -25 -9 -47 -29 -72 -32 -63 -7 4 9 -2 11
-19 8 -13 -2 -22 -8 -19 -12 3 -4 -2 -11 -11 -14 -9 -4 -14 -9 -11 -12 3 -3
14 -1 26 5 11 6 22 7 25 2 9 -15 -40 -22 -71 -10 -31 12 -147 14 -166 3 -8 -5
-9 -4 -2 3 10 10 98 35 112 31 5 -1 26 4 48 10 22 6 60 14 85 17 25 3 65 10
90 15 25 5 63 6 85 3 22 -2 58 -5 80 -6z m95 -2 c-14 -17 -30 -20 -30 -6 0 5
8 12 18 14 9 3 19 5 21 6 2 0 -2 -6 -9 -14z m101 -16 c-30 -16 -64 -29 -75
-29 -17 0 -18 -2 -6 -10 11 -7 5 -10 -24 -10 -35 0 -37 2 -25 18 36 47 63 60
124 61 l60 0 -54 -30z m99 -2 c0 -22 -59 -50 -91 -43 -28 5 -41 -7 -16 -17 6
-3 8 -6 2 -6 -5 0 -17 4 -25 9 -16 10 -17 9 65 66 31 23 65 18 65 -9z m700 19
c0 -2 -9 -6 -20 -9 -11 -3 -18 -1 -14 4 5 9 34 13 34 5z m-471 -22 c15 -11 34
-15 59 -11 35 6 36 5 12 -7 -14 -7 -42 -16 -62 -19 -31 -5 -40 -2 -53 16 -11
16 -12 23 -2 29 17 11 19 10 46 -8z m541 -3 c0 -5 -9 -7 -20 -4 -11 3 -20 7
-20 9 0 2 9 4 20 4 11 0 20 -4 20 -9z m-366 -26 c-4 -8 -13 -15 -21 -15 -13 0
-13 3 -3 15 7 8 16 15 21 15 5 0 6 -7 3 -15z m49 -11 c-3 -9 -9 -12 -12 -7 -3
4 -10 11 -15 16 -5 4 0 7 12 7 15 0 20 -4 15 -16z m222 -23 c12 -9 15 -10 8
-1 -18 20 -16 26 9 27 32 3 81 -45 65 -62 -7 -7 -15 -9 -18 -4 -3 5 -51 10
-107 12 -100 2 -124 9 -79 23 21 7 21 7 2 16 -16 7 -15 7 7 3 15 -3 30 -1 33
5 8 13 54 2 80 -19z m185 -27 c0 11 12 15 40 14 42 0 60 -12 35 -22 -8 -3 -15
0 -15 6 0 6 -2 9 -6 6 -3 -3 2 -21 11 -39 9 -21 14 -25 11 -11 -6 33 19 27 34
-8 7 -17 15 -29 17 -26 3 2 0 14 -7 25 -17 33 6 26 57 -15 24 -20 46 -34 49
-31 3 3 -9 15 -26 27 -44 32 -32 34 31 6 41 -18 59 -33 77 -65 21 -37 32 -46
55 -42 4 0 7 -13 7 -31 l0 -31 -24 22 c-13 12 -45 29 -72 37 -26 8 -55 21 -65
30 -10 9 -22 13 -27 10 -15 -9 -42 4 -42 20 0 13 -39 36 -63 38 -5 1 -15 12
-23 26 -14 23 -14 23 -9 3 7 -26 -3 -24 -66 12 -33 18 -89 75 -89 89 0 4 25
-9 55 -29 38 -24 55 -30 55 -21z m-822 33 c6 -7 7 -18 3 -25 -6 -9 -15 -9 -39
4 -18 8 -30 20 -27 25 9 13 51 11 63 -4z m92 -38 c0 -6 -6 -8 -12 -5 -7 3 -21
9 -30 12 -10 4 -18 13 -18 20 0 12 5 12 30 -1 17 -9 30 -20 30 -26z m180 15
c0 -8 -4 -12 -10 -9 -5 3 -10 10 -10 16 0 5 5 9 10 9 6 0 10 -7 10 -16z m50
-5 c0 -5 -4 -8 -9 -5 -5 4 -12 0 -14 -6 -3 -8 -6 -6 -6 5 -1 9 6 17 14 17 8 0
15 -5 15 -11z m130 -4 c0 -8 -4 -15 -10 -15 -5 0 -10 7 -10 15 0 8 5 15 10 15
6 0 10 -7 10 -15z m-1430 2 c0 -2 -10 -12 -21 -23 -22 -19 -22 -19 -10 4 10
18 31 31 31 19z m1195 -27 c-4 -12 -9 -19 -12 -17 -3 3 -2 15 2 27 4 12 9 19
12 17 3 -3 2 -15 -2 -27z m-1261 -30 c-14 -27 -27 -50 -29 -50 -8 0 0 33 13
56 6 12 8 25 4 29 -4 5 -2 5 5 1 6 -3 14 -2 18 4 3 5 8 10 10 10 2 0 -7 -22
-21 -50z m560 35 c9 -12 18 -13 45 -5 41 12 49 7 27 -16 -9 -9 -20 -29 -23
-45 -4 -24 -9 -27 -34 -24 -16 2 -33 6 -38 9 -5 3 -44 -12 -86 -35 l-76 -41 6
38 6 39 -17 -37 c-17 -40 -34 -50 -34 -20 0 14 -2 15 -10 2 -14 -22 -13 2 2
54 13 44 28 58 68 61 14 2 35 6 48 10 16 5 22 3 22 -7 0 -8 11 -20 25 -26 22
-10 25 -9 25 8 0 10 -5 22 -10 25 -6 4 -8 11 -5 16 9 14 47 11 59 -6z m-614
-35 c-23 -32 -36 -40 -27 -15 5 11 -1 13 -26 9 -30 -4 -30 -4 -8 6 14 6 30 9
37 6 7 -3 18 2 24 10 22 26 22 15 0 -16z m775 20 c-9 -15 -44 -18 -55 -5 -8
10 -3 13 25 13 19 0 33 -4 30 -8z m-439 -13 c-11 -7 -31 -22 -44 -35 -24 -23
-41 -24 -27 -2 9 15 67 50 80 49 6 0 1 -6 -9 -12z m1404 -7 c0 -12 -37 -12
-65 0 -15 7 -10 9 23 9 23 1 42 -3 42 -9z m-1360 -19 c0 -19 -23 -71 -31 -71
-5 0 -19 -11 -31 -25 -12 -14 -58 -49 -102 -77 -44 -28 -102 -68 -129 -89 -27
-20 -64 -39 -81 -42 -17 -3 -55 -14 -83 -24 -52 -18 -66 -34 -68 -78 0 -12
-24 -37 -64 -67 l-63 -47 -18 22 c-15 18 -21 20 -32 9 -10 -10 -10 -16 0 -32
10 -17 7 -27 -24 -70 -20 -27 -40 -50 -45 -50 -5 0 -17 8 -27 18 -10 9 -33 25
-51 36 l-33 18 7 -33 c4 -19 11 -39 16 -45 7 -8 -2 -14 -28 -19 -20 -4 -50
-16 -66 -27 -22 -16 -25 -23 -16 -34 6 -8 19 -14 29 -14 10 0 20 -8 24 -17 3
-10 9 -23 12 -30 3 -6 -14 -23 -40 -38 -43 -25 -46 -25 -75 -11 -16 9 -35 16
-41 16 -13 0 -13 -37 0 -45 19 -12 10 -73 -20 -137 -16 -34 -30 -68 -30 -74 0
-6 -6 -17 -14 -23 -12 -10 -19 -8 -35 8 -12 12 -21 24 -21 27 0 3 -7 12 -15
20 -9 9 -15 34 -15 62 0 51 -15 88 -24 62 -3 -8 -21 -80 -40 -160 -20 -80 -57
-212 -84 -295 -27 -82 -52 -162 -56 -177 -3 -16 -24 -56 -46 -89 -22 -34 -40
-73 -40 -85 0 -13 -14 -50 -30 -81 -37 -71 -61 -156 -53 -193 4 -22 -2 -36
-31 -67 -64 -71 -70 -96 -68 -293 1 -178 -9 -260 -34 -260 -8 0 -16 -11 -20
-25 -7 -28 -8 -28 -32 -16 -46 23 -94 33 -105 21 -9 -9 -6 -16 13 -28 14 -10
35 -26 46 -37 12 -11 30 -25 40 -31 22 -13 33 -49 38 -129 2 -33 10 -81 16
-106 16 -60 9 -79 -29 -79 -40 0 -46 -14 -23 -48 11 -15 23 -38 27 -52 14 -48
46 -110 55 -110 6 0 10 -21 10 -47 0 -27 5 -83 12 -127 11 -74 11 -79 -8 -93
-10 -8 -31 -17 -45 -20 l-26 -5 20 -39 c14 -28 28 -41 51 -47 26 -7 32 -14 39
-48 4 -21 15 -68 24 -104 9 -36 16 -82 15 -103 -1 -22 3 -48 9 -58 16 -30 2
-55 -46 -83 -54 -32 -59 -32 -52 -1 3 16 0 24 -7 22 -14 -5 -99 110 -91 123 3
6 16 11 28 11 18 1 18 2 4 6 -10 3 -24 0 -31 -6 -10 -9 -20 -3 -41 25 -15 20
-23 39 -19 44 5 5 29 11 54 13 38 4 36 4 -13 4 -69 -1 -100 20 -76 49 12 15
12 16 -9 10 -21 -7 -22 -4 -23 41 -1 26 -4 59 -9 73 l-7 25 -12 -29 c-13 -33
-19 -30 -39 22 -30 79 -39 127 -30 151 10 28 -2 40 -42 41 -24 1 -25 1 -5 16
19 14 19 15 -5 12 -20 -3 -24 2 -27 29 -2 25 2 33 18 38 29 10 20 41 -11 37
-55 -6 -68 5 -90 74 -25 83 -25 87 3 74 21 -11 21 -10 3 4 -11 9 -23 16 -26
16 -11 0 2 154 14 170 6 8 18 15 26 15 11 0 16 13 17 45 1 25 6 101 11 170 6
69 8 127 6 130 -3 2 -14 -2 -25 -9 -24 -15 -21 -17 -42 37 -20 50 -22 135 -4
154 6 7 14 22 15 33 2 11 10 31 17 45 7 14 20 53 29 88 11 44 30 82 63 125 64
86 62 84 74 67 7 -11 8 -8 3 11 -3 15 -1 30 5 33 6 4 11 12 11 19 0 8 -3 8
-12 -1 -18 -18 -24 -15 -38 18 -11 26 -8 39 18 109 17 44 47 103 67 131 44 62
59 97 56 131 -2 28 40 66 61 53 6 -4 8 -3 4 4 -6 10 69 82 86 82 4 0 9 -8 9
-17 1 -10 5 -4 8 12 5 20 3 34 -5 41 -7 5 -17 26 -23 45 l-10 34 5 -42 5 -41
-48 -15 c-26 -7 -50 -12 -51 -11 -7 5 51 170 82 233 34 70 45 78 153 110 73
22 136 60 101 61 -22 0 -33 42 -18 69 13 25 70 214 70 234 0 17 84 99 93 91 4
-4 7 -2 7 5 0 12 49 60 62 61 4 0 9 -10 11 -22 5 -21 5 -20 4 2 -1 14 3 31 8
39 7 12 10 11 16 -5 6 -16 8 -15 8 7 1 30 11 36 79 44 65 8 107 25 90 37 -10
7 -9 12 6 21 10 7 26 20 35 30 22 24 31 21 32 -10 0 -16 4 -37 9 -48 7 -14 8
-8 4 20 -3 22 -8 47 -10 56 -2 9 5 24 16 34 11 10 17 21 15 26 -3 4 -1 10 4
13 5 4 12 -2 16 -13 8 -25 24 -17 127 62 41 31 77 57 81 57 3 0 8 -15 10 -32
3 -28 4 -27 3 6 0 39 2 41 79 93 43 29 97 58 120 64 22 6 60 20 84 32 30 15
46 18 48 10 3 -9 17 -8 52 3 26 7 57 12 70 9 13 -2 24 2 28 10 6 18 30 20 35
3 3 -8 9 -8 22 -1 14 8 35 5 79 -8 65 -20 83 -18 51 5 -19 15 -19 15 1 30 22
17 55 21 55 7z m650 -6 c0 -13 -63 -42 -81 -38 -41 11 -21 25 51 36 14 3 26 5
28 6 1 0 2 -1 2 -4z m155 -10 c-21 -8 -41 -12 -44 -10 -6 6 40 24 64 24 11 0
2 -6 -20 -14z m665 5 c0 -5 -2 -10 -4 -10 -3 0 -8 5 -11 10 -3 6 -1 10 4 10 6
0 11 -4 11 -10z m-1925 -10 c-3 -5 -12 -10 -18 -10 -7 0 -6 4 3 10 19 12 23
12 15 0z m1816 -21 c61 -12 65 -15 50 -38 -7 -12 -14 -10 -36 8 -15 11 -35 21
-44 21 -19 0 -41 19 -40 35 0 5 3 5 6 -2 2 -7 31 -18 64 -24z m-839 12 c-6 -3
-14 -19 -17 -34 -9 -33 -89 -102 -109 -94 -8 3 -17 -2 -21 -11 -10 -27 -37 37
-30 74 5 27 13 34 55 50 46 18 146 30 122 15z m1368 -50 c0 -11 -8 -6 -25 14
-32 39 -32 55 0 25 14 -13 25 -31 25 -39z m-432 -1 c-12 -36 -26 -47 -34 -26
-7 19 13 56 31 56 11 0 12 -6 3 -30z m66 15 c18 -13 18 -18 6 -55 -7 -22 -14
-40 -15 -40 -1 0 -16 5 -32 10 l-30 11 15 44 c15 48 25 53 56 30z m-790 -7
c-5 -8 -2 -9 11 -4 10 3 -4 -17 -31 -46 -27 -29 -56 -55 -64 -57 -8 -2 -21 -8
-28 -14 -17 -14 -24 -4 -25 37 -1 37 -17 52 -17 17 0 -11 -5 -21 -12 -23 -6
-2 -13 -14 -15 -27 -2 -13 1 -20 7 -16 6 3 13 0 16 -8 3 -9 -10 -36 -30 -62
-20 -25 -36 -54 -36 -64 0 -9 -7 -26 -15 -39 -13 -18 -19 -20 -35 -10 -16 11
-24 8 -50 -17 -16 -16 -39 -48 -51 -71 -18 -37 -19 -54 -14 -141 5 -77 3 -107
-9 -142 -9 -24 -16 -54 -16 -67 0 -30 -33 -41 -65 -20 -14 9 -25 15 -26 14 -7
-27 -7 -48 1 -53 19 -12 10 -25 -16 -25 -45 0 -251 -57 -241 -66 3 -3 49 6
103 20 55 13 119 27 143 31 51 8 50 20 2 -117 -17 -49 -31 -100 -31 -116 0
-15 -7 -38 -17 -51 -15 -22 -15 -25 0 -36 22 -16 22 -18 -14 -105 -43 -107
-51 -120 -67 -120 -11 0 -13 -7 -8 -27 4 -16 10 -77 13 -138 5 -107 4 -111
-21 -148 -35 -51 -35 -55 -6 -70 19 -10 26 -23 32 -61 4 -26 3 -58 -2 -69 -8
-21 -8 -21 -19 6 -6 16 -15 25 -21 22 -20 -12 -51 -139 -45 -182 7 -48 -5 -56
-25 -18 -24 45 -40 31 -39 -32 0 -32 -3 -85 -8 -118 l-8 -60 -23 38 c-24 38
-48 48 -58 23 -9 -24 16 -128 42 -171 18 -32 24 -60 28 -133 5 -81 3 -97 -17
-138 l-22 -46 21 -17 c11 -9 19 -22 17 -28 -2 -6 9 -21 26 -34 l30 -22 -32
-21 c-44 -30 -48 -55 -7 -54 16 1 32 -1 35 -4 10 -9 -8 -68 -20 -68 -23 0 -47
-74 -43 -133 1 -30 1 -55 -2 -54 -8 2 -60 -49 -60 -60 0 -5 16 -17 36 -26 22
-11 34 -23 32 -33 -4 -20 -532 -240 -622 -259 -82 -17 -86 -14 -84 58 0 36 4
47 17 47 13 0 13 2 2 9 -10 7 -11 13 -2 30 11 19 9 20 -18 15 -36 -7 -49 11
-20 27 20 10 20 12 6 21 -23 12 -57 81 -57 113 0 32 28 88 74 149 41 53 44 66
16 66 -15 0 -27 13 -40 43 -36 78 -22 181 32 243 l32 36 1 171 c1 193 20 291
76 395 16 30 29 67 29 83 0 33 -17 81 -32 90 -7 5 5 46 36 122 25 63 46 119
46 123 0 5 32 38 70 73 39 36 70 68 70 72 0 4 -12 9 -27 11 -27 3 -28 5 -28
63 -1 44 7 79 28 130 15 39 33 84 38 100 6 17 15 38 20 48 5 10 7 22 4 28 -4
5 -2 8 3 7 5 -2 31 24 58 57 27 33 55 64 62 68 7 5 28 22 46 38 19 16 40 29
47 29 8 0 41 13 74 28 33 16 67 27 75 25 13 -4 13 -3 0 6 -8 6 -10 11 -4 11 5
0 19 7 30 15 16 13 12 13 -21 -1 -22 -9 -65 -18 -95 -20 l-55 -4 2 53 c1 49
24 127 37 127 3 0 4 -12 2 -27 -2 -16 -1 -22 1 -15 8 24 76 87 130 122 29 18
55 43 58 54 3 12 15 42 27 68 19 42 26 48 79 68 33 11 59 24 59 27 0 3 -20 2
-44 -1 -35 -6 -45 -4 -50 9 -7 20 0 35 19 35 7 0 23 14 35 31 21 29 58 51 89
53 8 1 21 15 30 33 14 28 27 39 66 54 5 2 19 14 31 26 20 20 43 28 127 47 15
4 27 11 27 16 0 5 -6 7 -12 5 -7 -3 -19 -1 -27 4 -12 8 -12 13 1 33 18 28 50
44 100 53 21 3 43 12 51 19 23 24 104 36 91 14z m183 6 c-3 -3 -1 -20 5 -36
11 -30 12 -30 25 -12 14 17 14 16 8 -16 -12 -61 -14 -66 -50 -79 -32 -11 -48
-31 -25 -31 5 0 -2 -11 -15 -25 -14 -13 -25 -32 -25 -42 1 -17 1 -17 14 0 22
29 24 20 8 -37 -12 -45 -23 -60 -58 -86 -42 -30 -58 -60 -32 -60 6 0 26 11 44
25 18 14 35 25 38 25 3 0 6 -24 6 -52 0 -65 9 -98 25 -98 8 0 14 -26 19 -77 6
-71 3 -91 -31 -216 -30 -109 -41 -136 -53 -131 -60 25 -76 3 -32 -44 48 -51
79 -128 85 -212 5 -57 2 -80 -9 -94 -20 -27 -18 -53 10 -124 13 -34 22 -70 19
-80 -3 -12 4 -24 21 -36 36 -23 34 -63 -8 -161 -54 -129 -66 -145 -103 -145
-53 0 -42 -42 32 -120 l42 -45 -7 -72 c-4 -40 -13 -79 -19 -87 -10 -12 -8 -22
14 -50 15 -19 35 -38 46 -41 23 -7 22 -6 5 -70 -17 -64 -31 -91 -72 -137 -25
-28 -32 -44 -29 -67 2 -16 -3 -58 -10 -93 -14 -66 -12 -74 19 -80 16 -3 19
-15 22 -89 4 -83 4 -86 -21 -99 -17 -9 -23 -19 -20 -30 6 -18 -61 -48 -355
-161 -74 -28 -166 -63 -205 -79 -60 -23 -71 -25 -74 -12 -3 15 4 23 67 72 36
28 6 13 -35 -18 l-32 -24 0 91 c0 61 -5 100 -15 120 -14 26 -14 33 -1 58 23
44 18 60 -17 54 -4 0 9 20 28 47 l37 47 -42 3 -41 3 0 42 c0 53 15 107 47 174
21 43 31 52 59 57 37 7 56 26 27 26 -11 0 -24 5 -31 12 -9 9 -15 9 -24 0 -14
-14 -47 -15 -66 -3 -14 8 -12 17 98 366 41 128 44 153 26 220 -8 32 -13 62
-10 67 9 14 32 9 39 -9 6 -17 7 -17 16 -1 6 10 19 73 30 140 11 67 24 129 30
139 15 29 11 41 -9 30 -28 -15 -80 23 -88 64 -13 72 34 235 88 305 15 19 18
34 13 67 -8 55 14 97 65 123 29 15 47 34 65 70 14 27 25 55 25 62 0 6 14 27
32 45 l32 33 -25 0 c-14 0 -28 2 -31 5 -2 3 2 33 9 67 28 125 43 166 72 190
15 13 31 37 35 54 14 57 92 160 155 204 33 23 62 48 65 56 6 17 -17 19 -44 4
-18 -10 -18 -9 -3 27 18 44 65 93 90 93 9 0 14 -3 10 -6z m719 -9 c10 -8 15
-14 9 -14 -5 0 -19 6 -29 14 -11 8 -15 15 -10 15 6 0 19 -7 30 -15z m-2266 -5
c0 -5 -13 -16 -30 -25 -35 -18 -40 -5 -7 18 26 19 37 21 37 7z m955 -7 c-4
-10 -9 -31 -12 -48 -5 -31 -29 -65 -45 -65 -13 0 -78 -65 -78 -79 0 -6 -14
-14 -31 -18 -19 -3 -34 -14 -36 -24 -3 -11 -9 -17 -13 -14 -15 9 -84 -56 -101
-95 -14 -31 -24 -40 -43 -40 -13 0 -31 -3 -40 -6 -12 -4 -16 0 -17 17 -1 17
-3 19 -6 7 -2 -10 -10 -18 -18 -18 -19 0 -45 -73 -45 -129 0 -44 -2 -49 -20
-44 -15 4 -26 -6 -50 -43 -16 -26 -30 -55 -30 -63 -1 -9 -12 -29 -26 -46 -13
-16 -22 -22 -18 -12 10 27 -13 20 -36 -12 -11 -17 -30 -33 -41 -36 -14 -5 -34
-35 -59 -90 -21 -46 -48 -93 -59 -104 -11 -11 -32 -40 -47 -63 -15 -24 -40
-58 -55 -76 -16 -18 -29 -38 -29 -44 0 -7 -14 -26 -31 -44 -27 -28 -35 -31
-62 -23 -17 5 -34 5 -38 1 -3 -4 -2 -45 3 -92 10 -98 7 -131 -29 -298 -23
-104 -25 -127 -15 -155 20 -55 14 -84 -30 -151 -68 -103 -118 -122 -144 -56
-9 22 -19 38 -23 36 -3 -2 -7 -54 -9 -114 -2 -98 -7 -123 -45 -238 -23 -70
-48 -130 -55 -132 -6 -2 -16 7 -21 20 -18 44 -12 -43 6 -92 9 -25 17 -79 18
-122 1 -66 5 -80 27 -107 14 -16 28 -28 30 -25 3 2 13 -5 23 -16 18 -20 18
-21 -3 -36 -27 -19 -28 -35 -3 -51 10 -6 22 -24 25 -39 6 -22 1 -33 -25 -60
-18 -19 -49 -39 -68 -45 -55 -17 -56 -24 -10 -60 23 -19 55 -54 70 -78 26 -40
27 -45 13 -67 -9 -13 -22 -20 -30 -17 -18 7 -18 -7 1 -33 18 -27 11 -34 -34
-34 -34 -1 -35 -1 -16 -16 11 -8 31 -17 45 -20 64 -14 64 -14 20 -79 -23 -33
-58 -74 -78 -92 l-37 -31 28 -11 c16 -6 35 -11 43 -11 10 0 13 -6 10 -17 -3
-10 -10 -38 -16 -63 -14 -58 -63 -96 -214 -168 -130 -62 -147 -61 -118 11 16
37 15 47 -3 47 -12 0 -14 8 -9 38 3 22 1 70 -5 109 -10 62 -9 73 9 108 26 51
25 72 -2 97 -16 13 -19 21 -10 24 24 11 11 31 -37 62 -40 25 -52 38 -61 71 -6
23 -14 41 -19 41 -4 0 -11 37 -14 83 -4 45 -10 112 -13 149 -6 56 -3 80 16
134 16 47 21 81 17 113 -4 35 1 60 19 103 13 32 24 64 24 71 0 8 7 20 15 27
19 16 20 44 1 37 -9 -4 -18 2 -22 15 -5 16 4 30 40 64 25 23 46 45 46 48 0 3
-15 6 -34 6 -33 0 -35 2 -41 44 -9 56 -3 107 24 216 11 47 21 98 21 113 0 59
33 99 119 146 45 25 81 49 81 54 0 5 -7 6 -16 3 -12 -5 -15 -2 -10 10 4 10 0
18 -12 21 -18 4 -18 7 -1 81 10 42 27 102 38 132 11 30 21 69 21 85 0 17 21
66 45 110 25 44 52 94 60 111 14 30 88 88 114 89 8 0 17 7 22 15 25 47 38 84
33 92 -3 5 3 19 14 31 11 12 27 38 36 58 24 51 209 262 243 276 15 6 53 34 82
62 39 35 69 54 103 62 29 8 50 20 53 30 3 9 24 29 46 44 48 31 45 42 -6 25
-52 -17 -56 -4 -10 37 22 19 72 66 111 103 80 76 110 94 174 105 25 4 87 23
138 42 58 22 104 33 120 30 15 -3 56 -2 92 3 36 4 51 8 33 9 -36 1 -83 20 -83
33 0 4 6 8 13 8 6 0 37 13 67 30 64 34 75 36 65 13z m908 5 c12 -6 41 -28 65
-49 24 -21 63 -46 88 -55 24 -9 42 -20 39 -24 -2 -4 6 -5 20 -3 15 3 39 -5 69
-26 57 -40 62 -48 24 -43 -25 4 -29 2 -26 -14 2 -11 10 -19 18 -20 33 -2 40
-5 69 -30 17 -14 39 -27 48 -28 10 -2 17 -7 16 -12 -1 -5 8 -19 19 -31 12 -13
16 -23 10 -23 -6 0 -14 5 -17 10 -10 17 -24 2 -18 -20 3 -11 15 -26 27 -32 11
-6 45 -26 74 -46 44 -28 50 -37 40 -49 -10 -12 -3 -22 36 -55 52 -44 96 -107
96 -136 0 -9 15 -50 34 -89 25 -52 43 -76 65 -88 20 -10 31 -23 31 -37 0 -12
11 -31 25 -43 31 -24 80 -185 79 -257 -1 -27 2 -48 6 -48 4 0 11 -32 14 -71 9
-85 39 -188 72 -245 30 -52 30 -75 -1 -112 -31 -37 -31 -48 -1 -56 31 -8 40
-35 27 -83 -6 -21 -11 -61 -11 -89 0 -37 -4 -54 -15 -58 -21 -8 -19 -37 4 -43
31 -8 54 -86 58 -200 3 -58 0 -110 -6 -121 -5 -10 -29 -24 -53 -31 -24 -7
-108 -42 -188 -78 -80 -35 -151 -67 -157 -70 -9 -3 -13 5 -13 25 0 43 -17 82
-35 82 -17 0 -19 27 -5 65 8 22 7 27 -15 37 -13 6 -26 17 -29 25 -11 27 25 88
88 153 65 66 93 107 81 118 -3 3 -17 -6 -31 -21 -28 -31 -46 -34 -64 -12 -10
12 -16 13 -27 3 -19 -16 -82 -21 -97 -8 -7 5 -17 6 -21 2 -5 -4 -1 7 10 23 15
25 16 28 2 16 -16 -12 -17 -7 -17 65 0 44 7 103 14 133 16 57 8 101 -17 101
-18 0 -36 41 -44 97 -5 35 -2 48 14 66 37 40 95 136 91 148 -2 7 -17 -3 -34
-25 -70 -90 -63 -87 -63 -31 -1 28 6 81 14 119 l15 70 -30 30 c-29 28 -31 33
-28 100 2 43 -1 71 -7 70 -5 -1 -25 -4 -42 -7 -32 -6 -33 -5 -33 27 0 18 -7
53 -15 76 -9 24 -15 77 -15 122 0 65 -5 93 -30 155 -41 102 -40 129 10 183 40
44 66 118 59 170 -3 20 -13 8 -52 -65 -56 -105 -72 -129 -84 -122 -5 3 -15 2
-23 -3 -11 -7 -22 4 -47 48 -18 31 -33 69 -33 83 0 14 -23 77 -51 139 -28 63
-53 128 -56 146 -3 20 -11 31 -20 30 -22 -1 -53 55 -40 72 12 15 13 15 40 0z
m333 -49 c-4 -26 -3 -38 4 -34 5 3 10 22 10 41 l0 35 30 -16 c16 -8 36 -15 45
-15 9 0 13 -4 10 -10 -4 -6 6 -10 23 -10 16 0 43 -3 60 -6 37 -8 49 -39 18
-50 -15 -5 -7 -8 34 -13 41 -4 63 -13 85 -33 16 -16 38 -28 48 -28 13 0 17 -5
13 -15 -8 -23 106 -147 149 -161 11 -4 21 -2 23 5 3 9 7 9 17 1 8 -6 11 -18 9
-25 -3 -8 -1 -20 5 -27 6 -7 23 -29 39 -48 16 -19 32 -43 35 -53 4 -9 17 -21
31 -27 13 -5 31 -18 39 -30 8 -11 21 -18 28 -15 21 8 76 -37 109 -88 16 -25
48 -70 72 -99 24 -30 63 -93 87 -140 43 -85 44 -87 31 -132 -15 -53 -4 -89 37
-128 14 -12 31 -35 39 -50 13 -25 12 -32 -5 -69 l-20 -41 62 -90 c34 -50 67
-98 74 -107 11 -14 69 -194 79 -244 2 -10 6 -26 9 -36 3 -10 -4 -44 -15 -76
-11 -32 -20 -69 -20 -82 0 -20 -4 -23 -27 -21 -25 3 -28 0 -26 -26 1 -19 17
-42 46 -71 43 -41 66 -93 43 -100 -6 -2 -83 -22 -171 -45 -88 -23 -168 -43
-177 -46 -16 -5 -18 3 -18 58 -1 78 -14 151 -29 156 -6 2 -11 10 -11 19 0 8
-9 26 -20 40 -11 14 -20 39 -20 54 0 16 -4 29 -9 29 -6 0 -12 21 -16 48 -3 26
-8 59 -10 75 -3 15 0 27 5 27 6 0 10 -14 10 -31 0 -55 25 -27 28 32 1 30 7 64
14 76 11 22 8 109 -10 299 l-7 72 -90 75 c-120 100 -150 144 -180 262 -13 52
-21 104 -18 115 4 14 -4 34 -24 58 -16 20 -40 59 -52 85 -13 26 -42 74 -66
106 -23 32 -46 69 -50 82 -4 13 -20 38 -35 54 -60 65 -130 159 -130 176 0 26
-11 49 -22 49 -7 0 -8 -15 -5 -37 l6 -38 -26 30 c-14 16 -35 34 -47 40 -19 9
-60 61 -68 86 -2 6 -10 11 -18 13 -8 1 -34 14 -57 29 -37 24 -41 30 -33 49 5
13 11 35 14 51 10 43 19 32 12 -14z m-420 -34 c18 -21 31 -42 27 -48 -3 -6 -1
-7 5 -3 8 5 12 -2 12 -18 0 -14 -6 -26 -12 -27 -10 0 -10 -2 0 -6 6 -2 10 -9
6 -14 -3 -5 2 -19 10 -31 10 -13 13 -31 9 -46 -5 -21 -3 -24 11 -19 14 6 16 3
11 -13 -3 -10 -1 -37 6 -59 10 -32 19 -43 45 -51 35 -12 74 -65 74 -101 0 -11
7 -33 15 -49 19 -36 9 -43 -41 -25 -21 8 -46 14 -54 15 -24 0 59 -68 90 -75
16 -3 36 -17 44 -30 9 -14 22 -22 30 -19 10 4 17 -8 25 -44 15 -70 7 -92 -35
-92 -51 0 -45 -27 39 -185 14 -26 37 -150 37 -197 0 -42 -7 -45 -50 -23 -36
19 -39 7 -6 -24 24 -23 38 -96 40 -221 l1 -55 -42 4 c-47 3 -59 -14 -20 -28
12 -5 34 -19 48 -32 46 -41 64 -55 74 -54 6 0 21 -31 34 -70 31 -94 42 -273
17 -297 -22 -22 -20 -35 9 -70 29 -35 30 -41 10 -99 -17 -47 -14 -69 10 -69 9
0 15 -9 14 -22 -1 -102 3 -128 22 -138 11 -6 19 -21 19 -36 0 -38 -32 -158
-44 -166 -6 -4 -81 -24 -166 -44 -184 -43 -244 -63 -351 -115 -44 -21 -83 -39
-87 -39 -14 0 -6 125 11 179 9 30 17 73 17 96 0 26 7 51 19 66 17 23 18 34 10
149 -7 107 -11 127 -29 140 -23 18 -17 34 43 113 44 57 46 77 12 111 -25 25
-25 30 -24 148 1 68 -1 155 -3 193 -3 46 0 81 9 102 19 46 17 55 -20 109 -50
73 -71 116 -59 123 19 12 32 62 32 125 0 66 24 166 40 166 6 0 10 4 10 9 0 19
-27 4 -67 -39 -23 -25 -45 -41 -49 -37 -19 18 -23 134 -8 215 8 45 14 116 13
156 -3 69 -1 75 31 120 28 38 46 52 90 67 30 11 64 29 75 41 l20 21 -30 -21
c-33 -22 -78 -20 -106 5 -14 12 -18 10 -34 -14 l-18 -27 -9 24 c-5 14 -13 58
-19 99 -5 41 -14 78 -20 81 -24 15 14 57 92 98 43 24 79 45 79 48 0 2 -24 -8
-52 -23 -74 -39 -78 -39 -38 -5 27 24 31 31 17 32 -10 0 -27 -5 -39 -11 -28
-15 -35 -3 -16 29 8 15 18 40 22 55 15 65 47 62 112 -8z m824 50 c0 -8 16 -21
35 -29 30 -13 35 -19 34 -48 -1 -18 -3 -25 -6 -15 -3 12 -11 16 -24 12 -26 -9
-89 23 -89 45 0 20 25 50 41 50 5 0 9 -7 9 -15z m-545 -53 c-3 -3 -11 0 -18 7
-9 10 -8 11 6 5 10 -3 15 -9 12 -12z m54 -11 c10 -6 10 -10 1 -16 -7 -4 -19 0
-28 9 -14 13 -14 16 -2 16 8 0 21 -4 29 -9z m592 2 c0 -5 3 -21 5 -36 4 -21 1
-28 -8 -25 -16 5 -24 68 -9 68 6 0 11 -3 12 -7z m44 -44 c18 -34 13 -48 -10
-29 -13 11 -22 60 -10 60 2 0 12 -14 20 -31z m53 -31 c7 -17 8 -28 2 -28 -8 0
-40 62 -40 78 0 12 27 -24 38 -50z m102 -52 c35 -36 60 -66 54 -66 -49 0 -120
62 -144 125 -9 23 -8 24 8 16 9 -5 46 -39 82 -75z m-3240 49 c0 -2 -15 -12
-32 -20 l-33 -16 25 20 c24 20 40 26 40 16z m60 -9 c0 -3 -4 -8 -10 -11 -5 -3
-10 -1 -10 4 0 6 5 11 10 11 6 0 10 -2 10 -4z m-170 -41 c0 -2 -10 -9 -22 -15
-22 -11 -22 -10 -4 4 21 17 26 19 26 11z m2380 -28 c0 -5 -4 -5 -10 -2 -5 3
-10 14 -10 23 0 15 2 15 10 2 5 -8 10 -19 10 -23z m-2405 -37 c-3 -5 -12 -10
-18 -10 -7 0 -6 4 3 10 19 12 23 12 15 0z m-85 -4 c0 -2 -8 -10 -17 -17 -16
-13 -17 -12 -4 4 13 16 21 21 21 13z m3340 -11 c7 -8 8 -15 2 -15 -5 0 -15 7
-22 15 -7 8 -8 15 -2 15 5 0 15 -7 22 -15z m-3451 -85 c-9 -5 -49 -35 -90 -66
-41 -31 -65 -47 -54 -34 28 31 148 120 155 114 2 -3 -2 -10 -11 -14z m3601
-60 c0 -5 -4 -10 -10 -10 -5 0 -10 5 -10 10 0 6 5 10 10 10 6 0 10 -4 10 -10z
m191 -32 c11 -21 11 -22 -4 -9 -10 7 -17 17 -17 22 0 15 9 10 21 -13z m3 -100
l19 -33 -24 22 c-13 12 -33 37 -43 55 l-19 33 24 -22 c13 -12 33 -37 43 -55z
m-2505 -29 c-25 -16 -32 -9 -13 12 12 13 20 16 22 9 3 -7 -2 -16 -9 -21z
m-1497 -51 c-7 -7 -12 -8 -12 -2 0 14 12 26 19 19 2 -3 -1 -11 -7 -17z m1378
-17 c0 -5 -7 -14 -15 -21 -16 -14 -18 -10 -9 14 6 17 24 22 24 7z m2180 -122
c0 -6 -4 -7 -10 -4 -5 3 -10 11 -10 16 0 6 5 7 10 4 6 -3 10 -11 10 -16z
m-3599 -62 c-5 -14 -15 -28 -21 -32 -5 -3 -3 10 7 29 19 40 29 42 14 3z m4317
-58 c-3 -8 -7 -3 -11 10 -4 17 -3 21 5 13 5 -5 8 -16 6 -23z m-24 -14 c15 -22
15 -28 2 -52 l-14 -28 -9 45 c-14 64 -6 76 21 35z m62 -50 c13 -31 13 -39 -2
-66 -8 -17 -13 -33 -10 -37 3 -3 6 1 6 8 0 7 2 11 5 8 3 -3 3 -12 -1 -21 -5
-15 -7 -15 -21 -1 -14 13 -14 23 -3 69 7 29 10 58 6 64 -4 6 -4 11 -1 11 3 0
13 -16 21 -35z m-4673 10 c-3 -9 -8 -14 -10 -11 -3 3 -2 9 2 15 9 16 15 13 8
-4z m4637 -50 c-8 -21 -14 -25 -22 -17 -8 8 -6 18 7 39 21 32 30 19 15 -22z
m165 -238 c13 -40 14 -52 3 -65 -11 -15 -11 -15 4 -4 14 11 19 4 42 -65 21
-65 44 -155 71 -279 4 -19 -47 -104 -63 -104 -4 0 -8 17 -9 38 -2 30 4 44 30
70 31 32 31 33 7 29 -14 -2 -26 -9 -26 -15 -1 -7 -2 -16 -3 -22 0 -5 -6 -10
-12 -10 -8 0 -8 5 1 15 7 8 8 15 3 15 -13 0 -13 62 0 78 7 9 6 11 -7 6 -10 -4
-16 -1 -16 7 0 10 -3 10 -11 2 -9 -9 -16 -6 -29 10 -17 21 -17 23 2 52 l20 30
-21 -24 c-12 -13 -23 -22 -24 -20 -1 2 -8 19 -14 38 -11 30 -10 39 8 70 l21
36 -24 -28 -24 -29 -27 83 c-20 57 -25 85 -18 92 6 6 11 23 11 37 0 14 6 32
13 40 10 12 9 12 -5 1 -15 -12 -19 -10 -28 14 -8 20 -6 38 7 76 l18 49 42 -88
c23 -48 49 -109 58 -135z m-256 150 c1 -5 -3 -5 -9 -2 -5 3 -10 16 -9 28 0 21
1 21 9 2 5 -11 9 -24 9 -28z m-449 -231 c-7 -7 -10 1 -9 25 0 32 1 33 10 10 6
-16 6 -28 -1 -35z m210 -18 c0 -23 -16 -16 -23 11 -3 14 -1 18 9 14 8 -3 14
-14 14 -25z m-3143 0 c-3 -8 -6 -5 -6 6 -1 11 2 17 5 13 3 -3 4 -12 1 -19z
m3048 -58 c3 -5 1 -10 -4 -10 -6 0 -11 5 -11 10 0 6 2 10 4 10 3 0 8 -4 11
-10z m-2876 -50 c-6 -16 -15 -30 -20 -30 -13 0 -11 7 7 35 22 33 25 31 13 -5z
m2948 -12 c-3 -7 -5 -2 -5 12 0 14 2 19 5 13 2 -7 2 -19 0 -25z m-1337 -134
c0 -14 -4 -23 -9 -20 -5 3 -7 15 -4 26 7 28 13 25 13 -6z m1844 0 c3 -8 2 -12
-4 -9 -6 3 -10 10 -10 16 0 14 7 11 14 -7z m-4364 -36 c0 -7 -5 -20 -10 -28
-8 -12 -10 -9 -10 13 0 15 5 27 10 27 6 0 10 -6 10 -12z m4515 -125 c4 -27 9
-61 11 -78 3 -16 7 -44 10 -62 5 -24 0 -40 -21 -70 -21 -30 -22 -32 -3 -10 29
33 36 34 36 5 0 -13 4 -35 7 -50 5 -20 4 -28 -6 -28 -7 0 -21 -8 -32 -17 -19
-17 -20 -17 -14 0 4 11 1 20 -9 24 -8 3 -13 12 -10 20 3 8 1 23 -4 34 -9 15
-5 29 15 62 14 24 25 48 25 53 -1 5 -10 -8 -21 -29 -11 -22 -22 -37 -24 -35
-2 1 -6 26 -9 55 -4 41 -1 56 14 76 11 14 20 28 20 32 0 4 -9 -4 -21 -19 -11
-14 -27 -26 -35 -26 -11 0 -8 10 12 38 l26 37 -26 -29 c-15 -15 -30 -26 -33
-23 -7 7 70 96 78 91 4 -2 10 -25 14 -51z m-65 -195 c0 -19 -2 -20 -10 -8 -13
19 -13 30 0 30 6 0 10 -10 10 -22z m526 -131 c1 -47 14 -145 32 -232 30 -148
80 -481 103 -685 17 -157 15 -464 -5 -595 -29 -191 -72 -329 -153 -490 -287
-572 -994 -1093 -1909 -1405 -158 -54 -445 -141 -479 -145 -11 -2 -63 -14
-115 -28 -200 -53 -421 -73 -775 -71 -194 2 -235 9 -530 100 -331 101 -532
187 -700 299 -97 65 -490 378 -598 476 -43 39 -100 103 -126 143 -27 39 -59
82 -72 96 -13 14 -41 51 -62 82 -21 31 -49 64 -63 73 -13 8 -33 34 -45 58 -12
23 -45 71 -74 107 -64 79 -75 100 -75 139 0 27 5 31 56 51 31 11 116 37 188
58 110 31 173 58 391 167 143 72 339 162 435 200 96 37 373 149 615 248 242
99 580 232 750 297 325 123 454 176 595 242 47 22 142 67 212 100 104 49 165
69 340 113 227 57 269 73 531 197 204 96 330 139 637 217 129 32 293 76 364
96 114 32 131 34 138 21 14 -24 38 -19 38 7 0 18 8 26 37 35 44 13 53 9 53
-26 0 -15 11 -75 25 -134 44 -198 48 -252 42 -573 -8 -388 -32 -552 -114 -790
-95 -273 -260 -499 -579 -790 -206 -188 -353 -287 -744 -500 -369 -202 -475
-248 -637 -275 -40 -6 -73 -16 -73 -21 0 -5 -10 -9 -22 -9 -11 0 -105 -20
-207 -44 -366 -87 -508 -102 -711 -72 -215 32 -730 172 -866 235 -252 118
-650 453 -891 751 l-61 75 8 55 c5 30 8 78 8 105 l0 50 -9 -40 c-4 -22 -9 -66
-10 -97 0 -32 -3 -58 -4 -58 -4 0 -123 163 -148 203 -19 29 -42 35 -50 13 -4
-9 0 -12 13 -9 14 4 24 -6 43 -44 14 -26 51 -84 82 -128 205 -287 449 -528
762 -752 216 -155 274 -180 678 -285 337 -88 452 -108 609 -108 144 0 218 12
516 80 512 117 553 131 895 317 457 249 627 360 841 549 524 466 689 826 710
1553 8 249 -5 414 -46 611 -16 80 -30 154 -30 165 0 16 21 28 108 62 59 23
112 42 117 42 6 1 11 -34 11 -82z m-409 6 c0 -17 -14 -33 -29 -33 -3 0 -1 11
5 25 14 29 24 32 24 8z m-27 3 c0 -2 -8 -10 -17 -17 -16 -13 -17 -12 -4 4 13
16 21 21 21 13z m-644 -163 c-10 -10 -19 5 -10 18 6 11 8 11 12 0 2 -7 1 -15
-2 -18z m-3309 -1129 c-3 -3 -12 -4 -19 -1 -8 3 -5 6 6 6 11 1 17 -2 13 -5z
m113 -169 c-33 -19 -50 -18 -26 0 11 8 27 15 35 15 10 -1 7 -6 -9 -15z m-350
-130 c0 -2 -15 -12 -32 -20 l-33 -16 24 21 c22 19 41 26 41 15z m1603 -2092
c-7 -2 -21 -2 -30 0 -10 3 -4 5 12 5 17 0 24 -2 18 -5z"/>
<path d="M3774 6785 c-10 -8 -14 -15 -8 -15 6 0 17 7 24 15 16 19 9 19 -16 0z"/>
<path d="M5016 6687 c3 -10 9 -15 12 -12 3 3 0 11 -7 18 -10 9 -11 8 -5 -6z"/>
<path d="M2971 6504 c0 -11 3 -14 6 -6 3 7 2 16 -1 19 -3 4 -6 -2 -5 -13z"/>
<path d="M2919 6478 c-3 -22 -1 -34 4 -29 5 5 7 21 5 37 -3 27 -4 26 -9 -8z"/>
<path d="M2962 6460 c0 -14 2 -19 5 -12 2 6 2 18 0 25 -3 6 -5 1 -5 -13z"/>
<path d="M2782 6390 c0 -14 2 -19 5 -12 2 6 2 18 0 25 -3 6 -5 1 -5 -13z"/>
<path d="M2182 5965 c0 -16 2 -22 5 -12 2 9 2 23 0 30 -3 6 -5 -1 -5 -18z"/>
<path d="M1581 4985 c0 -5 9 -28 20 -50 10 -22 16 -29 13 -15 -7 28 -33 80
-33 65z"/>
<path d="M1270 3615 c0 -5 5 -17 10 -25 5 -8 10 -10 10 -5 0 6 -5 17 -10 25
-5 8 -10 11 -10 5z"/>
<path d="M1790 2640 c-13 -8 -13 -10 2 -10 9 0 20 5 23 10 8 13 -5 13 -25 0z"/>
<path d="M3326 5792 c-3 -6 -1 -14 5 -17 15 -10 25 3 12 16 -7 7 -13 7 -17 1z"/>
<path d="M4160 3600 c-19 -11 -30 -19 -25 -19 6 0 26 8 45 19 19 11 31 19 25
19 -5 0 -26 -8 -45 -19z"/>
<path d="M4065 3559 c-22 -10 -29 -16 -15 -13 28 7 80 33 65 33 -5 0 -28 -9
-50 -20z"/>
<path d="M4806 6352 l-19 -27 26 24 c28 26 32 31 20 31 -5 0 -17 -13 -27 -28z"/>
<path d="M5349 4293 l-24 -28 28 24 c25 23 32 31 24 31 -2 0 -14 -12 -28 -27z"/>
<path d="M5294 4288 l-19 -23 23 19 c21 18 27 26 19 26 -2 0 -12 -10 -23 -22z"/>
<path d="M6349 5233 c-29 -35 -41 -53 -36 -53 2 0 17 16 31 35 28 36 31 49 5
18z"/>
<path d="M6389 5003 c-13 -16 -12 -17 4 -4 9 7 17 15 17 17 0 8 -8 3 -21 -13z"/>
<path d="M6447 4958 c-10 -17 -16 -33 -13 -35 2 -3 12 9 21 27 21 41 15 48 -8
8z"/>
<path d="M6526 4508 c-16 -23 -11 -47 7 -29 9 9 18 51 11 51 -2 0 -10 -10 -18
-22z"/>
<path d="M6140 3669 c0 -13 80 -151 99 -172 4 -4 22 -2 39 4 24 8 32 17 32 35
0 61 -66 133 -129 141 -31 4 -41 2 -41 -8z m140 -126 c0 -7 -7 -13 -15 -13 -9
0 -14 9 -14 23 1 12 -2 31 -6 42 -4 11 2 7 14 -10 11 -16 21 -36 21 -42z"/>
<path d="M5670 3322 c0 -55 39 -128 67 -125 15 2 24 -4 29 -19 4 -13 23 -40
43 -61 37 -38 37 -38 59 -20 43 34 46 125 5 140 -10 3 -39 23 -64 43 -54 45
-109 80 -126 80 -8 0 -13 -14 -13 -38z m210 -148 c0 -21 -19 -54 -30 -54 -6 0
-10 9 -10 20 0 11 -11 38 -25 60 -14 22 -25 42 -25 45 0 3 20 -8 45 -25 25
-17 45 -38 45 -46z"/>
<path d="M3362 3155 c0 -16 2 -22 5 -12 2 9 2 23 0 30 -3 6 -5 -1 -5 -18z"/>
<path d="M5174 2954 c8 -62 41 -118 88 -149 53 -35 76 -33 94 10 7 19 14 36
14 39 0 3 -32 26 -71 52 -39 26 -79 58 -89 71 -30 38 -44 30 -36 -23z m46 -24
c0 -5 -2 -10 -4 -10 -3 0 -8 5 -11 10 -3 6 -1 10 4 10 6 0 11 -4 11 -10z m120
-96 c0 -17 -24 -34 -37 -26 -6 4 -9 19 -6 34 4 24 7 25 24 15 10 -6 19 -17 19
-23z"/>
<path d="M3654 2915 c3 -16 10 -67 15 -113 9 -88 21 -120 21 -58 0 57 -21 180
-32 191 -7 7 -8 0 -4 -20z"/>
<path d="M2622 2850 c0 -14 2 -19 5 -12 2 6 2 18 0 25 -3 6 -5 1 -5 -13z"/>
<path d="M3912 2835 c0 -22 4 -53 8 -70 7 -27 8 -25 8 15 0 25 -4 56 -8 70 -7
21 -8 19 -8 -15z"/>
<path d="M3741 2809 c1 -30 5 -67 10 -84 5 -18 6 1 2 50 -6 93 -14 113 -12 34z"/>
<path d="M3797 2775 c3 -44 7 -82 9 -84 8 -9 2 125 -6 144 -5 12 -6 -12 -3
-60z"/>
<path d="M2562 2810 c0 -14 2 -19 5 -12 2 6 2 18 0 25 -3 6 -5 1 -5 -13z"/>
<path d="M3841 2764 c0 -11 3 -14 6 -6 3 7 2 16 -1 19 -3 4 -6 -2 -5 -13z"/>
<path d="M4684 2715 c-20 -48 -18 -165 3 -210 18 -39 30 -42 72 -20 37 18 53
63 40 108 -9 34 -83 157 -94 157 -3 0 -13 -16 -21 -35z m41 -26 c10 -30 0 -33
-13 -4 -6 14 -7 25 -2 25 5 0 12 -9 15 -21z m45 -70 c10 -24 10 -32 0 -42 -10
-9 -11 -9 -8 3 3 8 -1 27 -9 43 -7 15 -9 27 -4 27 5 0 14 -14 21 -31z m-58 -4
c3 -13 1 -22 -3 -19 -9 5 -13 44 -5 44 2 0 6 -11 8 -25z m55 -88 c-15 -22 -47
-36 -47 -20 0 5 9 19 21 31 25 28 46 19 26 -11z"/>
<path d="M2337 2682 c8 -91 24 -145 18 -62 -3 36 -9 79 -15 95 -7 23 -8 14 -3
-33z"/>
<path d="M2263 2640 c0 -41 2 -58 4 -37 2 20 2 54 0 75 -2 20 -4 3 -4 -38z"/>
<path d="M2097 2557 c9 -34 12 -76 9 -122 -4 -48 -3 -65 4 -55 20 31 5 210
-20 225 -4 2 -1 -19 7 -48z"/>
<path d="M3303 2535 c0 -22 2 -30 4 -17 2 12 2 30 0 40 -3 9 -5 -1 -4 -23z"/>
<path d="M3081 2534 c0 -11 3 -14 6 -6 3 7 2 16 -1 19 -3 4 -6 -2 -5 -13z"/>
<path d="M3511 2530 c0 -8 4 -24 9 -35 5 -13 9 -14 9 -5 0 8 -4 24 -9 35 -5
13 -9 14 -9 5z"/>
<path d="M2007 2455 c3 -44 7 -82 9 -84 7 -8 3 73 -6 119 -6 34 -7 25 -3 -35z"/>
<path d="M3012 2495 c0 -16 2 -22 5 -12 2 9 2 23 0 30 -3 6 -5 -1 -5 -18z"/>
<path d="M3092 2480 c0 -19 2 -27 5 -17 2 9 2 25 0 35 -3 9 -5 1 -5 -18z"/>
<path d="M4151 2492 c-16 -29 -14 -95 4 -128 8 -16 15 -37 15 -47 0 -46 50
-101 73 -78 5 5 11 47 14 93 5 80 4 85 -21 113 -14 15 -26 34 -26 43 0 8 -6
12 -14 9 -7 -3 -18 -1 -24 5 -7 7 -14 4 -21 -10z m93 -112 c4 -20 3 -30 -2
-25 -5 6 -12 26 -16 45 -4 20 -3 30 2 25 5 -6 12 -26 16 -45z m-34 -5 c0 -5
-5 -3 -10 5 -5 8 -10 20 -10 25 0 6 5 3 10 -5 5 -8 10 -19 10 -25z m0 -68 c0
-5 -4 -5 -10 -2 -5 3 -10 14 -10 23 0 15 2 15 10 2 5 -8 10 -19 10 -23z m23
-37 c-3 -11 -9 -17 -14 -15 -10 7 -1 35 11 35 5 0 6 -9 3 -20z"/>
<path d="M1827 2465 c-9 -20 -17 -41 -17 -48 0 -7 9 8 20 32 24 52 21 66 -3
16z"/>
<path d="M2731 2424 c-65 -102 -50 -264 25 -264 51 0 54 5 54 112 0 75 -4 103
-15 114 -8 9 -15 28 -15 44 0 46 -18 44 -49 -6z m14 -54 c-4 -12 -9 -19 -12
-17 -3 3 -2 15 2 27 4 12 9 19 12 17 3 -3 2 -15 -2 -27z m35 -110 c0 -9 -7
-26 -16 -39 -12 -17 -19 -20 -28 -11 -8 9 -5 16 11 29 15 13 20 25 17 42 -5
19 -4 21 5 9 6 -8 11 -22 11 -30z m10 -54 c0 -3 -4 -8 -10 -11 -5 -3 -10 -1
-10 4 0 6 5 11 10 11 6 0 10 -2 10 -4z"/>
<path d="M3020 2444 c0 -10 5 -26 10 -34 8 -11 9 -7 4 15 -8 37 -14 45 -14 19z"/>
<path d="M3102 2420 c0 -14 2 -19 5 -12 2 6 2 18 0 25 -3 6 -5 1 -5 -13z"/>
<path d="M1927 2335 c3 -55 7 -102 9 -104 8 -9 2 155 -6 179 -5 15 -6 -16 -3
-75z"/>
<path d="M3246 2372 c-2 -4 -14 -32 -25 -62 -24 -63 -27 -147 -7 -175 12 -17
18 -18 40 -7 15 7 26 8 26 2 0 -6 4 -10 9 -10 14 0 24 112 16 179 -6 49 -11
60 -30 69 -14 6 -26 8 -29 4z m34 -43 c0 -5 -7 -9 -15 -9 -15 0 -20 12 -9 23
8 8 24 -1 24 -14z m-9 -156 c-9 -16 -10 -16 -11 -1 0 9 3 25 7 35 7 16 8 17
11 1 2 -10 -1 -25 -7 -35z"/>
<path d="M2002 2295 c0 -83 13 -174 22 -154 4 8 0 60 -7 115 -14 91 -15 94
-15 39z"/>
<path d="M3699 2297 c-17 -77 -9 -190 16 -217 25 -28 66 -23 82 10 8 15 13 65
13 128 l0 102 -27 0 c-21 0 -33 -9 -51 -38 l-23 -37 5 30 c2 17 7 40 11 53 4
13 3 22 -3 22 -6 0 -16 -24 -23 -53z m88 -69 c-3 -8 -6 -5 -6 6 -1 11 2 17 5
13 3 -3 4 -12 1 -19z m-47 -32 c0 -13 3 -33 7 -43 6 -16 5 -16 -10 -4 -18 14
-24 71 -7 71 6 0 10 -11 10 -24z m50 -62 c-12 -53 -41 -67 -64 -31 -13 21 -1
33 18 18 12 -10 18 -7 31 18 21 41 25 39 15 -5z"/>
<path d="M2256 1929 c-4 -23 -5 -44 -2 -46 2 -2 7 14 11 37 4 23 5 43 2 46 -2
3 -7 -14 -11 -37z"/>
<path d="M2322 1895 c0 -16 2 -22 5 -12 2 9 2 23 0 30 -3 6 -5 -1 -5 -18z"/>
<path d="M2393 1850 c0 -25 2 -35 4 -22 2 12 2 32 0 45 -2 12 -4 2 -4 -23z"/>
<path d="M2461 1874 c0 -11 3 -14 6 -6 3 7 2 16 -1 19 -3 4 -6 -2 -5 -13z"/>
<path d="M2331 1844 c0 -11 3 -14 6 -6 3 7 2 16 -1 19 -3 4 -6 -2 -5 -13z"/>
<path d="M2471 1824 c1 -16 5 -40 9 -54 6 -17 7 -9 3 25 -6 56 -14 74 -12 29z"/>
<path d="M2402 1780 c0 -14 2 -19 5 -12 2 6 2 18 0 25 -3 6 -5 1 -5 -13z"/>
<path d="M4250 1314 c0 -6 7 -19 16 -30 14 -18 14 -18 3 6 -14 31 -19 36 -19
24z"/>
</g>
</svg>
